<svg width="174" height="156" viewBox="0 0 174 156" fill="none" xmlns="http://www.w3.org/2000/svg">
<path d="M173.155 90.2328L113.959 124.634C113.959 124.634 115.72 123.89 115.72 120.849C115.818 116.689 115.818 115.254 115.818 115.254L173.155 81.2055L173.155 90.2328Z" fill="url(#paint0_linear_1_16650)"/>
<path d="M45.1284 42.7413L18.7953 27.5348C18.3873 27.2938 18.3317 26.9043 18.3317 26.7374C18.3317 26.5705 18.3688 26.1811 18.7953 25.94L23.1347 23.4365C24.303 22.7689 25.0077 21.545 25.0077 20.2098C25.0077 18.8746 24.303 17.6506 23.1347 16.983L5.81415 6.96902C5.14655 6.57959 4.27496 6.80212 3.88553 7.48827C3.49609 8.17441 3.71862 9.02746 4.40477 9.41689L21.7253 19.4124C22.1333 19.6534 22.1889 20.0429 22.1889 20.2098C22.1889 20.3767 22.1518 20.7661 21.7253 21.0072L17.3859 23.5107C16.2176 24.1783 15.5129 25.4022 15.5129 26.7374C15.5129 28.0726 16.2176 29.2966 17.3859 29.9642L43.7191 45.1706C43.9416 45.3005 44.1827 45.3561 44.4237 45.3561C44.9059 45.3561 45.3881 45.0965 45.6477 44.6514C46.0371 43.9838 45.8146 43.1122 45.1284 42.7228V42.7413Z" fill="#70CD28"/>
<path d="M172.177 77.4195C171.602 76.1028 170.786 74.8418 169.858 73.7662C169.061 72.8761 168.189 72.1157 167.244 71.5594C153.261 63.4926 95.0501 29.89 83.3485 23.1212C81.6795 22.1569 80.1774 22.0642 79.0833 22.7133L75.1704 25.1611C76.2645 24.5306 77.7666 24.6233 79.4356 25.5691C91.1557 32.3378 149.348 65.9404 163.331 74.0073C164.277 74.5451 165.148 75.3054 165.946 76.2141C166.873 77.2711 167.689 78.5321 168.264 79.8673C168.931 81.3509 169.302 82.9272 169.302 84.3736L173.215 81.9258C173.215 80.4793 172.844 78.903 172.177 77.4195Z" fill="#70CD28" fill-opacity="0.3"/>
<g style="mix-blend-mode:screen" opacity="0.5">
<path d="M169.858 73.7848L165.946 76.2327C166.873 77.2897 167.689 78.5507 168.264 79.8859L172.177 77.4381C171.602 76.1214 170.786 74.8604 169.858 73.7848Z" fill="#70CD28"/>
</g>
<path d="M163.331 74.0259C149.348 65.959 91.1372 32.3564 79.4356 25.5877C76.1347 23.6776 73.4458 25.2168 73.4272 29.0184L73.3901 34.452C73.3901 38.2721 76.0605 42.9082 79.3615 44.7998C93.344 52.8666 151.555 86.4692 163.257 93.2379L169.265 89.8072L169.302 84.3737C169.302 80.5535 166.632 75.9174 163.331 74.0259Z" fill="url(#paint1_radial_1_16650)"/>
<path d="M165.185 86.5619L165.148 91.9954C165.148 93.887 164.481 95.2222 163.405 95.8527L171.435 91.2166C172.51 90.586 173.178 89.2508 173.178 87.3593L173.215 81.9258L165.185 86.5619Z" fill="#70CD28" fill-opacity="0.3"/>
<path d="M165.834 81.0727C165.259 79.7561 164.443 78.4951 163.516 77.4195C162.719 76.5293 161.847 75.769 160.901 75.2127C146.919 67.1458 64.0807 19.3196 52.3605 12.5509L1.28906 42.2592C13.0092 49.0279 95.8288 96.8541 109.83 104.921C110.776 105.459 111.647 106.219 112.445 107.128C113.372 108.185 114.188 109.446 114.763 110.781C115.43 112.265 115.801 113.841 115.801 115.287L166.891 85.5976C166.891 84.1511 166.52 82.5748 165.853 81.0913L165.834 81.0727Z" fill="url(#paint2_radial_1_16650)"/>
<g style="mix-blend-mode:screen" opacity="0.5">
<path d="M163.516 77.438L112.426 107.128C113.353 108.185 114.169 109.446 114.744 110.781L165.834 81.0913C165.259 79.7746 164.444 78.5136 163.516 77.438Z" fill="#0D3C26"/>
</g>
<path d="M109.83 104.921C95.829 96.8355 13.0094 49.0279 1.28927 42.2592L1.21509 61.4898C15.1976 69.5752 98.0358 117.383 109.756 124.152C113.057 126.062 115.746 124.522 115.764 120.721L115.801 115.287C115.801 111.467 113.131 106.831 109.83 104.939V104.921Z" fill="#70CD28" fill-opacity="0.3"/>
<path d="M117.415 60.9335L113.131 63.4184C111.684 64.2529 109.329 64.2529 107.864 63.4184L105.287 61.9349C104.545 61.5084 104.192 60.952 104.192 60.3957V61.7309C104.192 62.2872 104.545 62.8436 105.287 63.2701L107.864 64.7536C109.311 65.5882 111.684 65.5882 113.131 64.7536L117.415 62.2687C118.138 61.8607 118.49 61.3044 118.49 60.748V59.4128C118.49 59.9692 118.138 60.507 117.415 60.9335Z" fill="url(#paint3_linear_1_16650)"/>
<path d="M117.396 57.8922C118.843 58.7267 118.861 60.099 117.396 60.9335L113.112 63.4184C111.666 64.2529 109.311 64.2529 107.846 63.4184L105.268 61.9349C103.803 61.0818 103.803 59.7281 105.268 58.8936L109.552 56.4086C110.998 55.5741 113.353 55.5556 114.818 56.4086L117.396 57.8922Z" fill="#E6F3C0"/>
<path d="M103.358 69.1116L99.0744 71.5966C97.6094 72.4496 95.2728 72.4311 93.8078 71.5966L91.2301 70.113C90.4883 69.6865 90.1174 69.1301 90.1174 68.5738V69.909C90.1174 70.4653 90.4883 71.0217 91.2116 71.4482L93.7892 72.9318C95.2357 73.7663 97.5909 73.7848 99.0559 72.9318L103.34 70.4468C104.063 70.0388 104.415 69.4825 104.415 68.9261V67.5909C104.415 68.1473 104.063 68.6851 103.34 69.1116H103.358Z" fill="url(#paint4_linear_1_16650)"/>
<path d="M103.34 66.0517C104.786 66.8862 104.805 68.2585 103.34 69.093L99.0557 71.578C97.5907 72.431 95.2541 72.4125 93.7891 71.578L91.2114 70.0944C89.7464 69.2414 89.7279 67.8876 91.2114 67.0531L95.4952 64.5682C96.9417 63.7337 99.2968 63.7151 100.762 64.5682L103.34 66.0517Z" fill="#E6F3C0"/>
<path d="M89.2271 77.3082L84.9619 79.7932C83.4968 80.6462 81.1602 80.6277 79.6952 79.7932L77.1175 78.3096C76.3758 77.8831 76.0049 77.3268 76.0049 76.7705V78.1057C76.0049 78.662 76.3758 79.2183 77.099 79.6448L79.6767 81.1284C81.1232 81.9629 83.4783 81.9815 84.9433 81.1284L89.2085 78.6434C89.9318 78.2169 90.2841 77.6791 90.2841 77.1228V75.7876C90.2841 76.3254 89.9318 76.8817 89.2085 77.3082H89.2271Z" fill="url(#paint5_linear_1_16650)"/>
<path d="M89.2086 74.2483C90.655 75.0828 90.6736 76.4551 89.2086 77.2896L84.9433 79.7746C83.4783 80.6276 81.1417 80.6091 79.6767 79.7746L77.099 78.291C75.634 77.438 75.634 76.0842 77.099 75.2497L81.3642 72.7648C82.8293 71.9117 85.1659 71.9117 86.6309 72.7648L89.2086 74.2483Z" fill="#E6F3C0"/>
<path d="M127.262 66.6266L122.978 69.1116C121.532 69.9461 119.176 69.9461 117.711 69.1116L115.134 67.628C114.392 67.2015 114.04 66.6451 114.04 66.0888V67.424C114.04 67.9804 114.392 68.5367 115.134 68.9632L117.711 70.4468C119.158 71.2813 121.532 71.2813 122.978 70.4468L127.262 67.9618C127.985 67.5538 128.337 66.9975 128.337 66.4412V65.106C128.337 65.6623 127.985 66.2001 127.262 66.6266Z" fill="url(#paint6_linear_1_16650)"/>
<path d="M127.243 63.5667C128.69 64.4012 128.708 65.7735 127.243 66.608L122.959 69.093C121.513 69.9275 119.158 69.9275 117.693 69.093L115.115 67.6094C113.65 66.7564 113.65 65.4026 115.115 64.5681L119.399 62.0832C120.845 61.2487 123.201 61.2301 124.666 62.0832L127.243 63.5667Z" fill="#E6F3C0"/>
<path d="M113.187 74.7861L108.903 77.2711C107.438 78.1242 105.101 78.1056 103.636 77.2711L101.058 75.7876C100.317 75.361 99.9458 74.8047 99.9458 74.2484V75.5836C99.9458 76.1399 100.317 76.6962 101.04 77.1228L103.618 78.6063C105.064 79.4408 107.419 79.4594 108.884 78.6063L113.168 76.1214C113.891 75.7134 114.244 75.157 114.244 74.6007V73.2655C114.244 73.8218 113.891 74.3596 113.168 74.7861H113.187Z" fill="url(#paint7_linear_1_16650)"/>
<path d="M113.168 71.7448C114.614 72.5793 114.633 73.9516 113.168 74.7861L108.884 77.2711C107.419 78.1241 105.083 78.1056 103.618 77.2711L101.04 75.7875C99.5749 74.9345 99.5749 73.5807 101.04 72.7462L105.324 70.2613C106.77 69.4268 109.125 69.4082 110.59 70.2613L113.168 71.7448Z" fill="#E6F3C0"/>
<path d="M99.0743 82.9828L94.809 85.4678C93.344 86.3208 91.0074 86.3023 89.5424 85.4678L86.9647 83.9842C86.2229 83.5577 85.8521 83.0013 85.8521 82.445V83.7802C85.8521 84.3366 86.2229 84.8929 86.9462 85.3194L89.5239 86.803C90.9703 87.6375 93.3255 87.656 94.7905 86.803L99.0557 84.318C99.7789 83.8915 100.131 83.3537 100.131 82.7974V81.4622C100.131 81.9999 99.7789 82.5563 99.0557 82.9828H99.0743Z" fill="url(#paint8_linear_1_16650)"/>
<path d="M99.0557 79.9415C100.502 80.776 100.521 82.1483 99.0557 82.9828L94.7905 85.4677C93.3255 86.3208 90.9889 86.3022 89.5239 85.4677L86.9462 83.9842C85.4812 83.1311 85.4812 81.7774 86.9462 80.9429L91.2114 78.4579C92.6764 77.6049 95.013 77.6049 96.478 78.4579L99.0557 79.9415Z" fill="#E6F3C0"/>
<path d="M137.109 72.3013L132.825 74.7862C131.379 75.6207 129.024 75.6207 127.559 74.7862L124.981 73.3027C124.239 72.8762 123.887 72.3198 123.887 71.7635V73.0987C123.887 73.655 124.239 74.2114 124.981 74.6379L127.559 76.1214C129.005 76.956 131.379 76.956 132.825 76.1214L137.109 73.6365C137.832 73.2285 138.185 72.6722 138.185 72.1158V70.7806C138.185 71.337 137.832 71.8748 137.109 72.3013Z" fill="url(#paint9_linear_1_16650)"/>
<path d="M137.09 69.26C138.537 70.0945 138.555 71.4668 137.09 72.3013L132.807 74.7862C131.36 75.6207 129.005 75.6207 127.54 74.7862L124.962 73.3027C123.497 72.4496 123.497 71.0959 124.962 70.2614L129.246 67.7764C130.693 66.9419 133.048 66.9234 134.513 67.7764L137.09 69.26Z" fill="#E6F3C0"/>
<path d="M123.034 80.4794L118.75 82.9643C117.285 83.8174 114.948 83.7988 113.483 82.9643L110.906 81.4808C110.164 81.0543 109.793 80.4979 109.793 79.9416V81.2768C109.793 81.8331 110.164 82.3895 110.887 82.816L113.465 84.2996C114.911 85.1341 117.266 85.1526 118.731 84.2996L123.015 81.8146C123.738 81.4066 124.091 80.8503 124.091 80.2939V78.9587C124.091 79.5151 123.738 80.0529 123.015 80.4794H123.034Z" fill="url(#paint10_linear_1_16650)"/>
<path d="M123.015 77.4195C124.462 78.254 124.48 79.6263 123.015 80.4608L118.731 82.9458C117.266 83.7988 114.93 83.7803 113.465 82.9458L110.887 81.4622C109.422 80.6092 109.422 79.2554 110.887 78.4209L115.171 75.9359C116.617 75.1014 118.972 75.0829 120.437 75.9359L123.015 77.4195Z" fill="#E6F3C0"/>
<path d="M108.921 88.6759L104.656 91.1609C103.191 92.0139 100.855 91.9954 99.3896 91.1609L96.8119 89.6773C96.0701 89.2508 95.6992 88.6945 95.6992 88.1381V89.4733C95.6992 90.0297 96.0701 90.586 96.7933 91.0125L99.371 92.4961C100.817 93.3306 103.173 93.3491 104.638 92.4961L108.903 90.0111C109.626 89.5846 109.978 89.0468 109.978 88.4905V87.1553C109.978 87.6931 109.626 88.2494 108.903 88.6759H108.921Z" fill="url(#paint11_linear_1_16650)"/>
<path d="M108.903 85.6161C110.349 86.4506 110.368 87.8229 108.903 88.6574L104.638 91.1424C103.173 91.9954 100.836 91.9769 99.371 91.1424L96.7933 89.6588C95.3283 88.8058 95.3283 87.452 96.7933 86.6175L101.059 84.1326C102.524 83.2795 104.86 83.2795 106.325 84.1326L108.903 85.6161Z" fill="#E6F3C0"/>
<path d="M146.956 77.9944L142.672 80.4794C141.226 81.3139 138.87 81.3139 137.405 80.4794L134.828 78.9958C134.086 78.5693 133.734 78.013 133.734 77.4566V78.7918C133.734 79.3481 134.086 79.9045 134.828 80.331L137.405 81.8146C138.852 82.6491 141.226 82.6491 142.672 81.8146L146.956 79.3296C147.679 78.9216 148.031 78.3653 148.031 77.809V76.4738C148.031 77.0301 147.679 77.5679 146.956 77.9944Z" fill="#75A140"/>
<path d="M146.937 74.9345C148.384 75.769 148.402 77.1413 146.937 77.9758L142.654 80.4608C141.207 81.2953 138.852 81.2953 137.387 80.4608L134.809 78.9772C133.344 78.1242 133.344 76.7704 134.809 75.9359L139.093 73.451C140.539 72.6165 142.895 72.5979 144.36 73.451L146.937 74.9345Z" fill="#91C63E"/>
<path d="M132.881 86.1539L128.597 88.6389C127.132 89.492 124.795 89.4734 123.33 88.6389L120.753 87.1554C120.011 86.7288 119.64 86.1725 119.64 85.6162V86.9514C119.64 87.5077 120.011 88.064 120.734 88.4905L123.312 89.9741C124.758 90.8086 127.113 90.8272 128.578 89.9741L132.862 87.4892C133.585 87.0812 133.938 86.5248 133.938 85.9685V84.6333C133.938 85.1896 133.585 85.7274 132.862 86.1539H132.881Z" fill="#EFA520"/>
<path d="M132.862 83.1126C134.309 83.9471 134.327 85.3194 132.862 86.1539L128.578 88.6389C127.113 89.4919 124.777 89.4734 123.312 88.6389L120.734 87.1553C119.269 86.3023 119.269 84.9485 120.734 84.114L125.018 81.6291C126.464 80.7946 128.819 80.776 130.284 81.6291L132.862 83.1126Z" fill="#FFC541"/>
<path d="M118.75 94.3506L114.485 96.8356C113.02 97.6886 110.683 97.6701 109.218 96.8356L106.64 95.352C105.898 94.9255 105.528 94.3692 105.528 93.8128V95.148C105.528 95.7043 105.898 96.2607 106.622 96.6872L109.199 98.1708C110.646 99.0053 113.001 99.0238 114.466 98.1708L118.731 95.6858C119.454 95.2593 119.807 94.7215 119.807 94.1652V92.83C119.807 93.3677 119.454 93.9241 118.731 94.3506H118.75Z" fill="#A63131"/>
<path d="M118.731 91.3093C120.178 92.1438 120.196 93.516 118.731 94.3505L114.466 96.8355C113.001 97.6886 110.664 97.67 109.199 96.8355L106.622 95.3519C105.157 94.4989 105.157 93.1452 106.622 92.3107L110.887 89.8257C112.352 88.9727 114.689 88.9727 116.154 89.8257L118.731 91.3093Z" fill="#D34444"/>
<path d="M75.4672 71.0957C76.2275 71.5223 76.2275 72.2455 75.4672 72.672L73.2418 73.9516C72.4815 74.3967 71.2576 74.3781 70.5158 73.9516L69.1806 73.1727C68.4203 72.7462 68.4203 72.023 69.1806 71.5964L71.4059 70.3169C72.1662 69.8718 73.3902 69.8904 74.132 70.3169L75.4672 71.0957Z" fill="#E6F3C0"/>
<path d="M76.0421 72.876V71.8932C76.0421 72.1714 75.8566 72.4681 75.4857 72.6721L73.2604 73.9516C72.5001 74.3967 71.2761 74.3781 70.5344 73.9516L69.1991 73.1728C68.8283 72.9502 68.6243 72.6721 68.6243 72.3753V73.3582C68.6243 73.6549 68.8097 73.9331 69.1991 74.1556L70.5344 74.9345C71.2947 75.361 72.5001 75.3795 73.2604 74.9345L75.4857 73.6549C75.8566 73.4324 76.0421 73.1542 76.0421 72.876Z" fill="url(#paint12_linear_1_16650)"/>
<path d="M86.4269 64.7721C87.1872 65.1987 87.1872 65.9219 86.4269 66.3484L84.2015 67.628C83.4412 68.073 82.2173 68.0545 81.4755 67.628L80.1403 66.8491C79.38 66.4226 79.38 65.6994 80.1403 65.2728L82.3656 63.9933C83.126 63.5482 84.3499 63.5667 85.0917 63.9933L86.4269 64.7721Z" fill="#E6F3C0"/>
<path d="M87.0018 66.5524V65.5696C87.0018 65.8477 86.8163 66.1445 86.4454 66.3484L84.2201 67.628C83.4598 68.0731 82.2358 68.0545 81.4941 67.628L80.1589 66.8491C79.788 66.6266 79.584 66.3484 79.584 66.0517V67.0346C79.584 67.3313 79.7694 67.6095 80.1589 67.832L81.4941 68.6109C82.2544 69.0374 83.4598 69.0559 84.2201 68.6109L86.4454 67.3313C86.8163 67.1088 87.0018 66.8306 87.0018 66.5524Z" fill="url(#paint13_linear_1_16650)"/>
<path d="M97.3868 58.4484C98.1472 58.8749 98.1472 59.5982 97.3868 60.0247L95.1615 61.3043C94.4012 61.7493 93.1772 61.7308 92.4355 61.3043L91.1003 60.5254C90.3399 60.0989 90.3399 59.3756 91.1003 58.9491L93.3256 57.6695C94.0859 57.2245 95.3099 57.243 96.0516 57.6695L97.3868 58.4484Z" fill="#E6F3C0"/>
<path d="M97.9617 60.2102V59.2273C97.9617 59.5055 97.7763 59.8022 97.4054 60.0062L95.1801 61.2857C94.4197 61.7308 93.1958 61.7123 92.454 61.2857L91.1188 60.5069C90.7479 60.2843 90.5439 60.0062 90.5439 59.7095V60.6923C90.5439 60.989 90.7294 61.2672 91.1188 61.4897L92.454 62.2686C93.2144 62.6951 94.4197 62.7137 95.1801 62.2686L97.4054 60.989C97.7763 60.7665 97.9617 60.4883 97.9617 60.2102Z" fill="url(#paint14_linear_1_16650)"/>
<path d="M108.346 52.1248C109.106 52.5513 109.106 53.2746 108.346 53.7011L106.12 54.9806C105.36 55.4257 104.136 55.4072 103.394 54.9806L102.059 54.2018C101.299 53.7753 101.299 53.052 102.059 52.6255L104.284 51.3459C105.045 50.9009 106.269 50.9194 107.01 51.3459L108.346 52.1248Z" fill="#E6F3C0"/>
<path d="M108.903 53.8865V52.9037C108.903 53.1819 108.717 53.4786 108.347 53.6826L106.121 54.9621C105.361 55.4072 104.137 55.3886 103.395 54.9621L102.06 54.1833C101.689 53.9607 101.485 53.6826 101.485 53.3858V54.3687C101.485 54.6654 101.671 54.9436 102.06 55.1661L103.395 55.945C104.156 56.3715 105.361 56.39 106.121 55.945L108.347 54.6654C108.717 54.4429 108.903 54.1647 108.903 53.8865Z" fill="url(#paint15_linear_1_16650)"/>
<path d="M161.365 91.4576L122.552 113.878V116.177L161.365 93.7572V91.4576Z" fill="url(#paint16_radial_1_16650)"/>
<path d="M157.962 99.9403L125.176 118.985C123.488 119.968 120.725 119.95 119.037 118.985V119.801C120.725 120.784 123.488 120.784 125.176 119.801L157.962 100.756C158.797 100.274 159.205 99.6436 159.223 98.9945V98.1786C159.223 98.8091 158.815 99.4582 157.981 99.9403H157.962Z" fill="url(#paint17_radial_1_16650)"/>
<path d="M161.551 93.683C163.238 94.6658 163.275 96.2607 161.588 97.2435L128.801 116.289C127.114 117.272 124.35 117.253 122.663 116.289L161.569 93.7015L161.551 93.683Z" fill="url(#paint18_radial_1_16650)"/>
<path d="M71.2205 22.5278C70.0522 19.876 68.4388 17.3539 66.5658 15.2028C64.9895 13.4039 63.2092 11.8833 61.3362 10.7892C57.9982 8.86054 54.9755 8.6751 52.8058 9.95467L7.79834 36.2322C9.98659 34.9712 13.0093 35.1381 16.3288 37.0667C18.2018 38.1423 19.9821 39.6815 21.5583 41.4803C23.4313 43.6129 25.0447 46.1535 26.213 48.8053C26.8806 50.326 27.3999 51.8652 27.7707 53.4044L72.7782 27.1454C72.4258 25.6062 71.8881 24.0485 71.2205 22.5464V22.5278Z" fill="#0D3C26"/>
<g style="mix-blend-mode:screen" opacity="0.5">
<path d="M66.5658 15.2213L21.5583 41.4803C23.4313 43.6129 25.0447 46.1535 26.213 48.8054L71.2204 22.5464C70.0521 19.8945 68.4388 17.3725 66.5658 15.2213Z" fill="#422C42"/>
</g>
<path d="M16.3289 37.0667C10.9324 33.9513 6.37049 35.3977 4.8313 40.1637L27.7523 53.4044C26.2502 46.9138 21.7068 40.1822 16.3103 37.0853L16.3289 37.0667Z" fill="#70CD28"/>
<path d="M104.155 47.804L63.3019 71.3925L35.6892 55.4628L76.5427 31.8743L104.155 47.804Z" fill="#232323"/>
<g style="mix-blend-mode:multiply" opacity="0.8">
<path d="M76.5427 34.044L102.282 48.8981L104.155 47.804L76.5427 31.8743L35.6892 55.4628L37.5622 56.5384L76.5427 34.044Z" fill="#23262F"/>
</g>
<path d="M54.994 62.7137L54.6602 62.8991C54.6602 62.8991 54.5304 62.9362 54.4562 62.8991L49.8943 60.2658C49.8943 60.2658 49.8201 60.1916 49.8943 60.1546L51.6375 59.1532C51.9713 58.9492 52.3422 58.8564 52.7316 58.8564C53.121 58.8564 53.4919 58.9492 53.8257 59.1532L54.6417 59.6353C54.994 59.8393 55.1609 60.0433 55.1609 60.2658C55.1609 60.4884 54.994 60.6923 54.6417 60.8963L53.4177 61.601C53.4177 61.601 53.3621 61.6567 53.4177 61.6752L54.994 62.5839C54.994 62.5839 55.0682 62.6581 54.994 62.6952V62.7137ZM52.9541 61.3229L54.1039 60.6553C54.5119 60.4142 54.5119 60.1731 54.1039 59.932L53.325 59.487C52.8985 59.2459 52.472 59.2273 52.064 59.487L50.9142 60.1546C50.9142 60.1546 50.8586 60.2102 50.9142 60.2287L52.8429 61.3414C52.8429 61.3414 52.9356 61.3599 52.9912 61.3414L52.9541 61.3229Z" fill="white" fill-opacity="0.8"/>
<path d="M58.6474 60.5996L58.3136 60.7851C58.3136 60.7851 58.1838 60.8222 58.1096 60.7851L54.5305 58.7266C54.5305 58.7266 54.4563 58.6525 54.5305 58.6154L54.8643 58.4299C54.8643 58.4299 54.9941 58.3928 55.0683 58.4299L55.365 58.5968C55.3279 58.4856 55.3279 58.3743 55.4021 58.263C55.4763 58.1518 55.5876 58.0219 55.773 57.9107L56.0697 57.7438C56.0697 57.7438 56.1995 57.7067 56.2737 57.7438L56.5519 57.9107C56.5519 58.0219 56.1439 58.2445 56.1439 58.2445C55.9214 58.3743 55.8101 58.5041 55.8286 58.6525C55.8286 58.8008 55.9585 58.9306 56.1995 59.079L58.6474 60.4884C58.6474 60.4884 58.7216 60.5625 58.6474 60.5996Z" fill="white" fill-opacity="0.8"/>
<path d="M62.0781 58.6339L61.4476 59.0048C61.1138 59.2088 60.7429 59.3015 60.3535 59.3015C59.964 59.3015 59.5931 59.2088 59.2593 59.0048L57.6645 58.0961C57.3122 57.8921 57.1453 57.6881 57.1453 57.4656C57.1453 57.2431 57.3122 57.0391 57.6645 56.8351L58.295 56.4642C58.6288 56.2602 58.9997 56.1675 59.3891 56.1675C59.7786 56.1675 60.1495 56.2602 60.4833 56.4642L62.0781 57.3729C62.4304 57.5769 62.5973 57.7808 62.5973 58.0034C62.5973 58.2259 62.4304 58.4299 62.0781 58.6339ZM61.0211 58.6895L61.5403 58.3928C61.9483 58.1517 61.9483 57.9107 61.5403 57.6696L59.9826 56.7609C59.556 56.5198 59.1295 56.5198 58.7215 56.7609L58.2023 57.0576C57.7943 57.2987 57.7943 57.5398 58.2023 57.7808L59.76 58.6895C60.1866 58.9306 60.6131 58.9306 61.0211 58.6895Z" fill="white" fill-opacity="0.8"/>
<path d="M65.7684 56.0562L66.0466 56.2231C66.0466 56.2231 66.1022 56.2973 66.0466 56.3344L64.971 56.9463C64.6372 57.1503 64.2663 57.2431 63.8769 57.2431C63.4875 57.2431 63.1166 57.1503 62.7828 56.9463L61.1879 56.0377C60.8356 55.8337 60.6687 55.6297 60.6687 55.4072C60.6687 55.1846 60.8356 54.9806 61.1879 54.7766L62.2635 54.1647C62.2635 54.1647 62.3933 54.1276 62.4675 54.1647L62.7457 54.3316C62.7457 54.3316 62.8013 54.4058 62.7457 54.4428L61.7257 55.0363C61.3178 55.2773 61.3178 55.5184 61.7628 55.7595L63.302 56.6496C63.7285 56.8907 64.1551 56.9093 64.563 56.6496L65.583 56.0562C65.583 56.0562 65.7128 56.0191 65.787 56.0562H65.7684Z" fill="white" fill-opacity="0.8"/>
<path d="M69.3102 54.4429L67.734 55.3516C67.4002 55.5556 67.0293 55.6483 66.6398 55.6483C66.2504 55.6483 65.8795 55.5556 65.5457 55.3516L63.9509 54.4429C63.5985 54.2389 63.4316 54.0349 63.4316 53.8124C63.4316 53.5899 63.5985 53.3859 63.9509 53.1819L64.5814 52.8295C64.9152 52.6256 65.2861 52.5328 65.6755 52.5328C66.065 52.5328 66.4358 52.6256 66.7696 52.8295L67.7154 53.3673C67.7154 53.3673 67.7896 53.4601 67.7154 53.4972L65.6199 54.7025C65.6199 54.7025 65.5643 54.7582 65.6199 54.7767L66.065 55.0363C66.4915 55.2774 66.918 55.296 67.326 55.0363L68.8466 54.1648C68.8466 54.1648 68.9764 54.1277 69.0506 54.1648L69.3102 54.3131C69.3102 54.3131 69.3659 54.3873 69.3102 54.4244V54.4429ZM65.2305 54.48L66.8253 53.5528C66.8253 53.5528 66.8809 53.4971 66.8253 53.4601L66.2504 53.1263C65.8239 52.8852 65.3974 52.8852 64.9894 53.1263L64.4887 53.423C64.0807 53.6641 64.0807 53.9051 64.4887 54.1462L65.0636 54.48C65.0636 54.48 65.1563 54.5171 65.2119 54.48H65.2305Z" fill="white" fill-opacity="0.8"/>
<path d="M71.4616 53.2003L70.145 53.9607C70.145 53.9607 70.0152 53.9978 69.941 53.9607L69.6813 53.8123C69.6813 53.8123 69.6257 53.7381 69.6813 53.701L70.9238 52.9778C71.3133 52.7553 71.3503 52.5698 71.0722 52.4029L70.9238 52.3288C70.6642 52.1804 70.3489 52.1433 69.9966 52.236L68.7541 52.5327C68.4018 52.6255 68.0865 52.644 67.8454 52.6255C67.6044 52.6255 67.3633 52.5327 67.1222 52.4029C66.5102 52.0506 66.5473 51.6797 67.2149 51.2903L68.4389 50.5856C68.4389 50.5856 68.5687 50.5485 68.6429 50.5856L68.9025 50.7339C68.9025 50.7339 68.9581 50.8081 68.9025 50.8452L67.7898 51.4943C67.6044 51.6055 67.5116 51.6982 67.4931 51.791C67.4931 51.8837 67.5116 51.9579 67.6229 52.0135L67.7527 52.0877C67.9567 52.1989 68.2534 52.2175 68.6429 52.1248L69.9039 51.8466C70.2562 51.7539 70.5715 51.7353 70.8126 51.7724C71.0722 51.8095 71.3318 51.9208 71.6285 52.0877C72.2219 52.4215 72.1663 52.8109 71.4616 53.2189V53.2003Z" fill="white" fill-opacity="0.8"/>
<path d="M74.4843 51.4572L73.1677 52.2175C73.1677 52.2175 73.0379 52.2546 72.9637 52.2175L72.7041 52.0691C72.7041 52.0691 72.6484 51.995 72.7041 51.9579L73.9465 51.2347C74.336 51.0121 74.3731 50.8267 74.0949 50.6598L73.9465 50.5856C73.6869 50.4372 73.3717 50.4001 73.0193 50.4929L71.7768 50.7896C71.4245 50.8823 71.1092 50.9008 70.8682 50.8823C70.6271 50.8823 70.386 50.7896 70.1449 50.6598C69.5329 50.3074 69.57 49.9365 70.2376 49.5471L71.4616 48.8424C71.4616 48.8424 71.5914 48.8053 71.6656 48.8424L71.9252 48.9908C71.9252 48.9908 71.9808 49.0649 71.9252 49.102L70.8125 49.7511C70.6271 49.8624 70.5343 49.9551 70.5158 50.0478C70.5158 50.1405 70.5343 50.2147 70.6456 50.2703L70.7754 50.3445C70.9794 50.4558 71.2761 50.4743 71.6656 50.3816L72.9266 50.1034C73.2789 50.0107 73.5942 49.9922 73.8353 50.0293C74.0949 50.0663 74.3545 50.1776 74.6512 50.3445C75.2446 50.6783 75.189 51.0677 74.4843 51.4757V51.4572Z" fill="white" fill-opacity="0.8"/>
<path d="M71.8695 47.8967L71.1648 47.4887C71.1648 47.4887 71.0906 47.4145 71.1648 47.3775L71.4986 47.1735C71.4986 47.1735 71.6284 47.1364 71.7026 47.1735L72.4073 47.5814C72.4073 47.5814 72.4815 47.6556 72.4073 47.6927L72.0735 47.8967C72.0735 47.8967 71.9437 47.9338 71.8695 47.8967ZM76.1718 50.3631L72.5927 48.3047C72.5927 48.3047 72.5186 48.2305 72.5927 48.1934L72.9265 47.9894C72.9265 47.9894 73.0563 47.9523 73.1305 47.9894L76.7096 50.0479C76.7096 50.0479 76.7838 50.122 76.7096 50.1591L76.3758 50.3446C76.3758 50.3446 76.246 50.3817 76.1718 50.3446V50.3631Z" fill="white" fill-opacity="0.8"/>
<path d="M78.1191 49.3617L77.7853 49.5471C77.7853 49.5471 77.6555 49.5842 77.5813 49.5471L74.0022 47.4887C74.0022 47.4887 73.928 47.4145 74.0022 47.3774L74.336 47.192C74.336 47.192 74.4658 47.1549 74.54 47.192L74.8367 47.3589C74.7254 47.1178 74.8367 46.8953 75.2261 46.6727L75.6341 46.4317C75.9679 46.2462 76.3203 46.135 76.7097 46.1535C77.0991 46.1535 77.4515 46.2648 77.8038 46.4502L80.3815 47.9338C80.3815 47.9338 80.4557 48.0079 80.3815 48.045L80.0477 48.2305C80.0477 48.2305 79.9179 48.2676 79.8437 48.2305L77.2846 46.7469C76.8581 46.5058 76.4315 46.4873 76.0236 46.7469L75.6156 46.988C75.393 47.1178 75.2818 47.2476 75.2818 47.3774C75.2818 47.5072 75.393 47.6371 75.6156 47.7669L78.1376 49.2319C78.1376 49.2319 78.2118 49.3061 78.1376 49.3431L78.1191 49.3617Z" fill="white" fill-opacity="0.8"/>
<path d="M82.5327 46.58L82.1247 46.8211C81.7909 47.0065 81.4386 47.1178 81.0491 47.0993C80.6597 47.0993 80.3073 46.988 79.955 46.8026L78.5642 46.0051C78.2118 45.8012 78.0449 45.5972 78.0449 45.3746C78.0449 45.1521 78.2118 44.9481 78.5642 44.7441L80.1775 43.8169C80.1775 43.8169 80.3073 43.7798 80.3815 43.8169L84.0533 45.9495C84.3871 46.1535 84.5726 46.3575 84.5726 46.58C84.5726 46.8026 84.4057 47.0251 84.0533 47.2105L82.681 47.9894C82.681 47.9894 82.5327 48.0265 82.4585 47.9894L82.1803 47.8225C82.1803 47.8225 82.1062 47.7483 82.1803 47.6927L83.4785 46.9509C83.8864 46.7098 83.8864 46.4688 83.4785 46.2277L82.9036 45.8939C83.0148 46.135 82.9036 46.3575 82.5141 46.58H82.5327ZM82.1618 45.4674L80.2703 44.3732C80.2703 44.3732 80.1775 44.3547 80.1219 44.3732L79.0834 44.9667C78.6754 45.2077 78.6754 45.4488 79.102 45.6899L80.4372 46.4688C80.8637 46.7098 81.2902 46.7284 81.6982 46.4688L82.1062 46.2277C82.3287 46.0979 82.44 45.9681 82.44 45.8382C82.44 45.7084 82.3287 45.5786 82.1062 45.4488L82.1618 45.4674Z" fill="white" fill-opacity="0.8"/>
<path d="M84.387 44.5773L85.2771 45.0965C85.2771 45.0965 85.3513 45.1707 85.2771 45.2078L84.9062 45.4303C84.9062 45.4303 84.7764 45.4674 84.7022 45.4303L83.8121 44.9111C83.8121 44.9111 83.7564 44.8369 83.8121 44.7998L84.183 44.5773C84.183 44.5773 84.3128 44.5402 84.3684 44.5773H84.387Z" fill="white" fill-opacity="0.8"/>
<path d="M85.6479 43.854L86.5381 44.3733C86.5381 44.3733 86.6123 44.4474 86.5381 44.4845L86.1672 44.7071C86.1672 44.7071 86.0374 44.7441 85.9632 44.7071L85.0731 44.1878C85.0731 44.1878 85.0174 44.1136 85.0731 44.0765L85.4439 43.854C85.4439 43.854 85.5738 43.8169 85.6294 43.854H85.6479Z" fill="white" fill-opacity="0.8"/>
<path d="M86.9092 43.1307L87.7993 43.65C87.7993 43.65 87.8735 43.7242 87.7993 43.7613L87.4284 43.9838C87.4284 43.9838 87.2986 44.0209 87.2244 43.9838L86.3343 43.4645C86.3343 43.4645 86.2787 43.3904 86.3343 43.3533L86.7052 43.1307C86.7052 43.1307 86.835 43.0937 86.8906 43.1307H86.9092Z" fill="white" fill-opacity="0.8"/>
<path d="M70.5713 32.7459L37.4138 51.8838L35.1885 50.5857L68.346 31.4663L70.5713 32.7459Z" fill="#70CD28"/>
<mask id="mask0_1_16650" style="mask-type:alpha" maskUnits="userSpaceOnUse" x="-3" y="-15" width="74" height="67">
<path d="M37.3527 51.9542L70.5618 32.7509L68.3172 9.20075L53.3473 -14.4218L-2.46411 23.122L37.3527 51.9542Z" fill="#D9D9D9"/>
</mask>
<g mask="url(#mask0_1_16650)">
<path d="M51.7673 1.87185C50.6732 1.24134 49.5976 0.74064 48.5406 0.369751C48.5962 0.481018 48.6704 0.610829 48.726 0.722096C48.0399 0.722096 47.669 0.722096 47.0014 0.74064C47.1312 1.00026 47.261 1.24134 47.3908 1.50096C46.7047 1.50096 46.3338 1.50096 45.6662 1.51951C45.796 1.77913 45.9258 2.02021 46.0556 2.27983C45.3695 2.27983 44.9986 2.27983 44.331 2.29838C44.4608 2.558 44.5906 2.79908 44.7204 3.0587C44.0528 3.0587 43.719 3.0587 42.9958 3.07724C43.1256 3.33687 43.2554 3.57794 43.3852 3.83757C42.6991 3.83757 42.3282 3.83757 41.6606 3.85611C41.7904 4.11573 41.9202 4.35681 42.05 4.61644C41.3639 4.61644 40.993 4.61644 40.3254 4.63498C40.4552 4.8946 40.585 5.13568 40.7148 5.3953C40.0287 5.3953 39.6578 5.3953 38.9902 5.41385C39.12 5.67347 39.2498 5.91455 39.3796 6.17417C38.6935 6.17417 38.3226 6.17417 37.655 6.19272C37.7848 6.45234 37.9146 6.69342 38.0444 6.95304C37.3583 6.95304 36.9874 6.95304 36.3198 6.97158C36.4496 7.23121 36.5794 7.47228 36.7092 7.73191C36.0231 7.73191 35.6522 7.73191 34.9846 7.75045C35.1144 8.01007 35.2442 8.25115 35.374 8.51077C34.6879 8.51077 34.317 8.51077 33.6494 8.52932C33.7792 8.78894 33.909 9.03002 34.0388 9.28964C33.3712 9.28964 33.0374 9.28964 32.3142 9.30819C32.444 9.56781 32.5738 9.80889 32.7036 10.0685C32.0175 10.0685 31.6466 10.0685 30.979 10.0871C31.1088 10.3467 31.2386 10.5878 31.3684 10.8474C30.6823 10.8474 30.3114 10.8474 29.6438 10.8659C29.7736 11.1255 29.9034 11.3666 30.0332 11.6262C29.3471 11.6262 28.9762 11.6262 28.3086 11.6448C28.4384 11.9044 28.5682 12.1455 28.698 12.4051C28.0119 12.4051 27.641 12.4051 26.9734 12.4237C27.1032 12.6833 27.233 12.9244 27.3628 13.184C26.6767 13.184 26.3058 13.184 25.6382 13.2025C25.768 13.4621 25.8978 13.7032 26.0276 13.9628C25.3415 13.9628 24.9706 13.9629 24.303 13.9814C24.4328 14.241 24.5626 14.4821 24.6924 14.7417C24.0062 14.7417 23.6354 14.7417 22.9678 14.7603C23.0976 15.0199 23.2274 15.261 23.3572 15.5206C22.6896 15.5206 22.3558 15.5206 21.6326 15.5391C21.7624 15.7988 21.8922 16.0398 22.022 16.2995C21.3358 16.2995 20.965 16.2995 20.2974 16.318C20.4272 16.5776 20.557 16.8187 20.6868 17.0783C20.0006 17.0783 19.6298 17.0783 18.9622 17.0969C19.092 17.3565 19.2218 17.5976 19.3516 17.8572C18.6654 17.8572 18.2946 17.8572 17.627 17.8757C17.7568 18.1354 17.8866 18.3764 18.0164 18.6361C17.3302 18.6361 16.9593 18.6361 16.2917 18.6546C16.3659 18.803 16.4772 19.0069 16.5514 19.1553C17.5713 19.5262 18.6098 20.0083 19.6483 20.6018C28.6238 25.7757 35.8933 38.3859 35.8747 48.6966L37.7292 49.7908L68.2163 32.1735V29.8926C68.2534 19.5818 60.9654 6.97158 51.9899 1.79768L51.7673 1.87185Z" fill="#FCF0F6"/>
<path d="M28.9577 21.8258L28.3271 22.1967C29.0504 22.9199 29.9776 23.9028 30.6452 24.6446L31.2757 24.2737C30.5896 23.5134 29.6624 22.549 28.9577 21.8258Z" fill="#23262F"/>
<path d="M30.2186 21.1025L29.5881 21.4734C30.3114 22.1967 31.2386 23.1795 31.9062 23.9213L32.5367 23.5504C31.8506 22.7901 30.9233 21.8258 30.2186 21.1025Z" fill="#23262F"/>
<path d="M30.9047 20.6946L30.7563 20.7873C31.4796 21.5105 32.4068 22.4934 33.0744 23.2352L33.2228 23.1424C32.5366 22.3821 31.6094 21.4178 30.9047 20.6946Z" fill="#23262F"/>
<path d="M31.5539 20.3237L31.4055 20.4165C32.1288 21.1397 33.056 22.1225 33.7236 22.8643L33.8719 22.7716C33.1858 22.0113 32.2586 21.047 31.5539 20.3237Z" fill="#23262F"/>
<path d="M32.7038 19.6561L32.0732 20.027C32.7965 20.7503 33.7237 21.7331 34.3913 22.4749L35.0218 22.104C34.3357 21.3437 33.4084 20.3794 32.7038 19.6561Z" fill="#23262F"/>
<path d="M33.9647 18.9143L33.3342 19.2852C34.0575 20.0084 34.9847 20.9913 35.6523 21.7331L36.2828 21.3622C35.5967 20.6019 34.6694 19.6375 33.9647 18.9143Z" fill="#23262F"/>
<path d="M35.2072 18.191L34.5767 18.5619C35.2999 19.2852 36.2271 20.268 36.8947 21.0098L37.5252 20.6389C36.8391 19.8786 35.9119 18.9143 35.2072 18.191Z" fill="#23262F"/>
<path d="M35.9488 17.7645L35.7078 17.8943C36.431 18.6176 37.3582 19.6004 38.0258 20.3422L38.2669 20.2124C37.5808 19.4521 36.6535 18.4878 35.9488 17.7645Z" fill="#23262F"/>
<path d="M37.4695 16.8744L36.5608 17.3936C37.284 18.1169 38.2112 19.0997 38.8789 19.8415L39.7875 19.3223C39.1014 18.5619 38.1742 17.5976 37.4695 16.8744Z" fill="#23262F"/>
<path d="M38.6935 16.1697L38.1187 16.5035C38.8419 17.2267 39.7691 18.2096 40.4367 18.9513L41.0116 18.6175C40.3254 17.8572 39.3982 16.8929 38.6935 16.1697Z" fill="#23262F"/>
<path d="M39.4723 15.7061L39.324 15.7988C40.0472 16.522 40.9744 17.5049 41.642 18.2466L41.7904 18.1539C41.1042 17.3936 40.177 16.4293 39.4723 15.7061Z" fill="#23262F"/>
<path d="M40.7333 14.9829L40.1028 15.3538C40.826 16.077 41.7532 17.0599 42.4208 17.8017L43.0514 17.4308C42.3652 16.6705 41.438 15.7061 40.7333 14.9829Z" fill="#23262F"/>
<path d="M41.9945 14.2596L41.364 14.6305C42.0872 15.3538 43.0145 16.3366 43.6821 17.0784L44.3126 16.7075C43.6264 15.9472 42.6992 14.9829 41.9945 14.2596Z" fill="#23262F"/>
<path d="M42.6806 13.8517L42.5322 13.9444C43.2555 14.6676 44.1827 15.6505 44.8503 16.3923L44.9986 16.2996C44.3125 15.5392 43.3853 14.5749 42.6806 13.8517Z" fill="#23262F"/>
<path d="M43.311 13.4807L43.1626 13.5734C43.8858 14.2967 44.8131 15.2795 45.4807 16.0213L45.629 15.9286C44.9429 15.1683 44.0156 14.2039 43.311 13.4807Z" fill="#23262F"/>
<path d="M44.4608 12.8131L43.8303 13.184C44.5536 13.9072 45.4808 14.8901 46.1484 15.6319L46.7789 15.261C46.0927 14.5007 45.1655 13.5363 44.4608 12.8131Z" fill="#23262F"/>
<path d="M45.7218 12.0714L45.0913 12.4423C45.8145 13.1655 46.7418 14.1484 47.4094 14.8902L48.0399 14.5193C47.3537 13.759 46.4265 12.7946 45.7218 12.0714Z" fill="#23262F"/>
<path d="M46.9828 11.3481L46.3523 11.719C47.0755 12.4423 48.0028 13.4251 48.6704 14.1669L49.3009 13.796C48.6147 13.0357 47.6875 12.0714 46.9828 11.3481Z" fill="#23262F"/>
<path d="M47.7247 10.9216L47.4836 11.0514C48.2069 11.7747 49.1341 12.7575 49.8017 13.4993L50.0428 13.3695C49.3566 12.6092 48.4294 11.6449 47.7247 10.9216Z" fill="#23262F"/>
<path d="M49.2453 10.0315L48.3367 10.5507C49.0599 11.274 49.9871 12.2568 50.6547 12.9986L51.5634 12.4794C50.8773 11.719 49.95 10.7547 49.2453 10.0315Z" fill="#23262F"/>
<path d="M51.5077 8.7334L49.9128 9.66062C50.6361 10.3839 51.5633 11.3667 52.2309 12.1085L53.8257 11.1813C53.1396 10.4209 52.2124 9.45663 51.5077 8.7334Z" fill="#23262F"/>
<path d="M52.2865 8.26978L52.1382 8.3625C52.8614 9.08573 53.7886 10.0686 54.4562 10.8104L54.6046 10.7176C53.9185 9.95732 52.9912 8.99301 52.2865 8.26978Z" fill="#23262F"/>
<path d="M60.2052 11.3296L60.335 11.515C49.8203 17.6162 39.9732 23.3464 29.477 29.4475L29.3472 29.2621C39.8619 23.161 49.709 17.4307 60.2052 11.3296Z" fill="#23262F"/>
<path d="M65.1195 20.6204L65.1937 20.8243C54.6789 26.9255 44.8318 32.6557 34.3357 38.7569L34.2615 38.5529C44.7762 32.4517 54.6233 26.7215 65.1195 20.6204Z" fill="#23262F"/>
<path d="M26.0833 18.0056H26.2131C26.38 18.1169 26.4171 18.1725 26.4913 18.3023C26.5099 18.2467 26.5099 18.191 26.5655 18.0798C26.6026 18.0056 26.6768 17.9623 26.788 17.95L27.0106 18.0241L27.0476 18.1169C27.0476 18.1169 26.9178 18.2838 26.584 18.4136C26.6582 18.395 26.8437 18.3394 27.0662 18.3579C27.1898 18.3579 27.2825 18.3888 27.3444 18.4507L27.2887 18.599L27.1775 18.6546C26.9178 18.6176 26.7324 18.5619 26.5469 18.4321C26.3615 18.6361 26.2502 18.6546 26.0277 18.7474L25.8979 18.7103L25.7866 18.5619C26.0833 18.4136 26.2502 18.4136 26.5284 18.4321C26.2688 18.3765 26.1946 18.3579 26.1946 18.3579C26.1019 18.3208 25.935 18.2467 25.935 18.2467C25.9164 18.1354 26.0833 18.0427 26.0833 18.0427V18.0056Z" fill="#23262F"/>
<path d="M26.5466 18.4136C26.4479 18.6355 26.411 18.7835 26.4356 18.8574L26.5466 18.9129H26.787C26.787 18.9129 26.8425 18.8574 26.8795 18.839C26.824 18.6355 26.7315 18.543 26.5466 18.4136Z" fill="#23262F"/>
<path d="M28.7534 17.134C28.9938 17.3005 29.0308 17.3745 29.0863 17.5594C29.0678 17.5779 29.0308 17.6149 28.9938 17.6334H28.7534L28.6424 17.5779C28.6301 17.4916 28.6362 17.3991 28.6609 17.3005L28.7534 17.134Z" fill="#23262F"/>
<path d="M28.2901 16.726H28.4199C28.6054 16.8373 28.661 16.9486 28.6981 17.0228C28.7352 16.93 28.7352 16.8929 28.7908 16.8002C28.8279 16.726 28.9021 16.6828 29.0134 16.6704L29.2173 16.7446C29.2173 16.8929 29.1246 17.0042 28.7908 17.134C29.3657 16.9857 29.4955 17.134 29.5511 17.1711L29.4955 17.3195L29.3842 17.3751C29.1246 17.338 28.9392 17.2824 28.7537 17.1526C28.5683 17.338 28.457 17.3751 28.2345 17.4678L28.1047 17.4307L27.9934 17.2824C28.2901 17.134 28.4756 17.134 28.7352 17.1526C28.4014 17.0784 28.3087 17.0413 28.3087 17.0413L28.1418 16.9486C28.1047 16.8373 28.2901 16.7446 28.2901 16.7446V16.726Z" fill="#23262F"/>
<path d="M30.9417 15.8544C31.1822 16.0393 31.2191 16.1133 31.2746 16.2797C31.2561 16.2982 31.2191 16.3352 31.1821 16.3537H30.9417L30.8308 16.2982C30.8123 16.1873 30.8123 16.1873 30.8492 16.0208L30.9417 15.8544Z" fill="#23262F"/>
<path d="M30.4783 15.4464H30.6082C30.7936 15.5762 30.8678 15.706 30.8863 15.7431C30.8863 15.6318 30.942 15.5762 30.9605 15.5206C30.9976 15.4464 31.0718 15.4031 31.183 15.3907L31.387 15.4649L31.4241 15.5391C31.4241 15.5391 31.2758 15.7245 30.9605 15.8358C31.1274 15.7987 31.2758 15.7616 31.4797 15.7802C31.5786 15.7802 31.659 15.8111 31.7208 15.8729L31.6652 16.0213L31.5539 16.0769C31.2943 16.0398 31.1089 15.9842 30.9234 15.8544C30.7565 16.0398 30.7009 16.0583 30.4042 16.1696L30.2744 16.1325L30.1631 15.9842C30.4598 15.8358 30.6452 15.8358 30.9049 15.8544C30.5711 15.7802 30.4783 15.7431 30.4783 15.7431L30.3114 15.6504C30.2929 15.5391 30.4598 15.4464 30.4598 15.4464H30.4783Z" fill="#23262F"/>
<path d="M42.2913 8.58493H42.4211C42.588 8.6962 42.6251 8.75183 42.6993 8.88164C42.7179 8.82601 42.7179 8.77037 42.7735 8.65911C42.8106 8.58493 42.8848 8.54166 42.996 8.5293L43.2186 8.60347L43.2556 8.6962C43.2556 8.6962 43.1073 8.88164 42.792 8.99291C43.3669 8.84455 43.4967 8.99291 43.5524 9.03L43.4967 9.17835L43.3855 9.23399C43.1258 9.1969 42.9404 9.14126 42.7364 9.01145C42.551 9.1969 42.4397 9.23399 42.2172 9.32671L42.0873 9.28962L41.9761 9.14126C42.2728 8.99291 42.4397 8.99291 42.7179 9.01145C42.4582 8.95582 42.3841 8.93727 42.3841 8.93727C42.2913 8.90019 42.1244 8.82601 42.1244 8.82601C42.1059 8.71474 42.2728 8.62202 42.2728 8.62202L42.2913 8.58493Z" fill="#23262F"/>
<path d="M42.7544 8.99292C42.6681 9.21486 42.6311 9.36281 42.6434 9.43679L42.7544 9.49227H42.9948C42.9948 9.49227 43.0503 9.43679 43.0688 9.4183C43.0318 9.19636 42.8839 9.10389 42.7359 8.99292H42.7544Z" fill="#23262F"/>
<path d="M44.9427 7.71338C45.1831 7.87983 45.2201 7.95381 45.2756 8.13876C45.2571 8.15725 45.2201 8.19424 45.1831 8.21273H44.9427L44.8317 8.15725C44.8132 8.04628 44.8132 8.04628 44.8502 7.87983L44.9427 7.71338Z" fill="#23262F"/>
<path d="M44.4796 7.30539H44.6094C44.7948 7.4352 44.8505 7.52792 44.8875 7.6021C44.8875 7.50938 44.9432 7.4352 44.9803 7.37957C45.0174 7.30539 45.0915 7.26212 45.2028 7.24976L45.4068 7.32393L45.4439 7.39811C45.4439 7.39811 45.2955 7.58356 44.9803 7.69482C45.1843 7.63919 45.3326 7.62065 45.4995 7.63919C45.5984 7.63919 45.6726 7.6701 45.722 7.73191L45.6664 7.88027L45.5551 7.9359C45.2955 7.89881 45.1101 7.84318 44.9246 7.71337C44.7392 7.89881 44.6465 7.9359 44.4054 8.02862L44.2756 7.99154L44.1643 7.84318C44.461 7.69482 44.6465 7.69482 44.9061 7.71337C44.5723 7.63919 44.4796 7.6021 44.4796 7.6021L44.3127 7.50938C44.2941 7.39811 44.461 7.30539 44.461 7.30539H44.4796Z" fill="#23262F"/>
<path d="M47.1495 6.43384C47.3899 6.61878 47.4269 6.69276 47.4824 6.85921C47.4639 6.87771 47.4269 6.9147 47.3899 6.93319H47.1495L47.0385 6.8962C47.02 6.78524 47.0385 6.78524 47.0755 6.61878L47.168 6.45233L47.1495 6.43384Z" fill="#23262F"/>
<path d="M46.6863 6.02585H46.8162C46.9645 6.11857 47.0016 6.1742 47.0943 6.32256C47.0943 6.21129 47.15 6.15566 47.1685 6.10003C47.2056 6.02585 47.2798 5.98258 47.391 5.97021L47.595 6.04439L47.6321 6.11857C47.6321 6.11857 47.4838 6.30402 47.1685 6.41528C47.2427 6.41528 47.4467 6.3411 47.6507 6.35965C47.7743 6.35965 47.867 6.39056 47.9288 6.45237L47.8732 6.60073L47.7619 6.65636C47.5023 6.61927 47.3169 6.56364 47.1314 6.43383C46.946 6.63782 46.8347 6.65636 46.6122 6.74908L46.4824 6.71199L46.3711 6.56364C46.6493 6.41528 46.8903 6.45237 47.1129 6.43383C46.7791 6.35965 46.6863 6.32256 46.6863 6.32256L46.5194 6.22984C46.4824 6.11857 46.6678 6.02585 46.6678 6.02585H46.6863Z" fill="#23262F"/>
<path d="M39.7505 8.88171C40.8446 9.53077 40.9744 9.62349 42.6249 10.8474C39.6763 12.5535 36.7277 14.2782 33.7792 15.9842C32.7221 15.1683 32.6109 15.0941 30.9048 14.0185C33.8534 12.3124 36.8019 10.5878 39.7505 8.88171Z" fill="#23262F"/>
<path d="M66.77 30.5045V29.5958C65.7871 30.1522 64.5261 30.8939 63.5618 31.4503V32.359C64.5817 31.7841 65.75 31.0979 66.77 30.5045Z" fill="#23262F"/>
<path d="M45.7776 42.6697V41.7424C42.5137 43.634 39.6579 45.2844 36.4126 47.176V48.1032C39.6764 46.2116 42.5323 44.5612 45.7776 42.6697Z" fill="#23262F"/>
<path d="M39.0643 41.9468C37.9516 42.5958 37.247 43.0038 36.1528 43.6343L36.227 44.0608C37.3397 43.4118 38.0444 43.0038 39.1385 42.3733L39.0643 41.9468Z" fill="#23262F"/>
<path d="M45.2768 38.3491C44.3125 38.9055 43.0144 39.6658 42.0501 40.2221C41.2712 40.6857 40.2142 41.2791 39.4353 41.7428L39.5095 42.1693C41.4566 41.0381 43.4038 39.9069 45.351 38.7756L45.2768 38.3491Z" fill="#23262F"/>
<path d="M48.1697 36.6613C47.4094 37.1063 46.3895 37.6997 45.6292 38.1448L45.7033 38.5713C46.4636 38.1263 47.4836 37.5328 48.2439 37.0878L48.1697 36.6613Z" fill="#23262F"/>
<path d="M50.5807 35.2704C49.9687 35.6227 49.1527 36.1049 48.5408 36.4572L48.6149 36.8838C49.2269 36.5314 50.0429 36.0493 50.6548 35.6969L50.5807 35.2704Z" fill="#23262F"/>
<path d="M54.9756 32.6927C53.6218 33.4716 52.2866 34.2505 50.9329 35.0479L51.007 35.4744C51.9714 34.9181 53.2695 34.1578 54.2338 33.6014C54.4749 33.4531 54.8087 33.2676 55.0497 33.1378L54.9756 32.7113V32.6927Z" fill="#23262F"/>
<path d="M44.5535 36.8652C41.4751 38.6455 38.8047 40.2032 35.7263 42.0021L35.819 42.4286C38.8974 40.6483 41.5678 39.0906 44.6462 37.2918L44.5535 36.8652Z" fill="#23262F"/>
<path d="M49.505 33.9908L44.9246 36.6427L45.0173 37.0692C46.5379 36.1791 48.0771 35.289 49.5978 34.4174L49.505 33.9908Z" fill="#23262F"/>
<path d="M53.6776 31.5615C52.398 32.3033 51.137 33.0451 49.8574 33.7869L49.9501 34.2134C50.9145 33.657 52.2126 32.8967 53.1769 32.3404C53.3438 32.2477 53.5849 32.0993 53.7518 32.0066L53.659 31.5801L53.6776 31.5615Z" fill="#23262F"/>
<path d="M56.0697 30.1707C55.4577 30.523 54.6418 31.0052 54.0298 31.3575L54.1225 31.784C54.7345 31.4317 55.5504 30.9495 56.1624 30.5972L56.0697 30.1707Z" fill="#23262F"/>
<path d="M39.7878 37.6627C38.1559 38.6085 36.9134 39.3317 35.2629 40.296L35.3928 40.7226C37.0247 39.7768 38.2671 39.0536 39.9176 38.0892L39.7878 37.6627Z" fill="#23262F"/>
<path d="M46.0002 34.0465C44.053 35.1777 42.0873 36.3089 40.1401 37.4587L40.2699 37.8852C41.2343 37.3289 42.5324 36.5686 43.4967 36.0122C44.2756 35.5486 45.3326 34.9366 46.1115 34.4916L45.9816 34.0651L46.0002 34.0465Z" fill="#23262F"/>
<path d="M48.8929 32.359C48.1326 32.8041 47.1126 33.3975 46.3523 33.8426L46.4821 34.2691C47.2424 33.824 48.2624 33.2306 49.0227 32.7855L48.8929 32.359Z" fill="#23262F"/>
<path d="M51.3038 30.9685C50.6918 31.3209 49.8759 31.803 49.2639 32.1554L49.3937 32.5819C50.0057 32.2295 50.8217 31.7474 51.4336 31.395L51.3038 30.9685Z" fill="#23262F"/>
<path d="M56.2738 28.0752C54.7346 28.9653 53.1954 29.8555 51.6562 30.7456L51.7861 31.1721L56.4036 28.5017L56.2738 28.0752Z" fill="#23262F"/>
<path d="M39.7691 32.3405C37.5994 33.6015 35.8191 34.64 33.6309 35.901L33.8163 36.309C35.986 35.0479 37.7663 34.0095 39.9545 32.7484L39.7691 32.3405Z" fill="#23262F"/>
<path d="M44.7021 29.4846C43.7378 30.041 42.4397 30.8013 41.4753 31.3576C41.0674 31.5987 40.5296 31.8954 40.1401 32.1365L40.3256 32.5445C41.2899 31.9881 42.588 31.2278 43.5523 30.6715C43.9603 30.4304 44.4981 30.1337 44.8875 29.8926L44.7021 29.4846Z" fill="#23262F"/>
<path d="M48.8744 27.0555C47.5948 27.7973 46.3338 28.5391 45.0542 29.2809L45.2396 29.6889C46.5192 28.9471 47.7802 28.2053 49.0598 27.4635L48.8744 27.0555Z" fill="#23262F"/>
<path d="M53.4364 24.4033C52.0456 25.2193 50.6362 26.0352 49.2454 26.8326L49.4308 27.2406C50.8216 26.4247 52.231 25.6087 53.6219 24.8113L53.4364 24.4033Z" fill="#23262F"/>
<path d="M39.3055 30.5045C37.006 31.8397 35.1145 32.9338 32.8335 34.269L33.0375 34.6956C35.337 33.3604 37.2285 32.2662 39.5095 30.931L39.3055 30.5045Z" fill="#23262F"/>
<path d="M42.1986 28.817C41.4382 29.2621 40.4183 29.8555 39.658 30.3006L39.8619 30.7271C40.6223 30.282 41.6422 29.6886 42.4025 29.2435L42.1986 28.817Z" fill="#23262F"/>
<path d="M44.6092 27.4076C43.9973 27.7599 43.1813 28.2421 42.5693 28.5944L42.7733 29.021C43.3853 28.6686 44.2012 28.1865 44.8132 27.8341L44.6092 27.4076Z" fill="#23262F"/>
<path d="M49.5793 24.5332C48.0401 25.4233 46.5009 26.3135 44.9802 27.2036L45.1842 27.6301C46.7234 26.74 48.2626 25.8499 49.7832 24.9597L49.5793 24.5332Z" fill="#23262F"/>
<path d="M54.1781 21.8628L49.9314 24.3292L50.1354 24.7557C51.5448 23.9398 52.9727 23.1053 54.3821 22.2893L54.1781 21.8628Z" fill="#23262F"/>
<path d="M38.0816 29.0765C35.9119 30.3376 34.1502 31.3575 31.9805 32.6185L32.203 33.0265C34.3727 31.7655 36.1344 30.7455 38.3041 29.4845L38.0816 29.0765Z" fill="#23262F"/>
<path d="M43.0143 26.2207C41.4937 27.1108 39.9545 28.001 38.4338 28.8726L38.6564 29.2805C40.177 28.3904 41.7162 27.5003 43.2369 26.6287L43.0143 26.2207Z" fill="#23262F"/>
<path d="M47.1869 23.7914C45.9073 24.5332 44.6463 25.2749 43.3667 26.0167L43.5892 26.4247C44.8688 25.6829 46.1298 24.9411 47.4094 24.1994L47.1869 23.7914Z" fill="#23262F"/>
<path d="M49.5978 22.4009C48.9858 22.7532 48.1698 23.2354 47.5579 23.5877L47.7804 23.9957C48.3924 23.6434 49.2083 23.1612 49.8203 22.8089L49.5978 22.4009Z" fill="#23262F"/>
<path d="M52.8614 20.4905C51.9898 20.9912 50.8215 21.6773 49.95 22.178L50.1725 22.586C51.0441 22.0853 52.2124 21.3992 53.084 20.8985L52.8614 20.4905Z" fill="#23262F"/>
<path d="M32.815 30.0042C32.1659 30.375 31.7208 30.6532 31.0718 31.0241L31.3129 31.4135C31.9619 31.0426 32.407 30.7645 33.056 30.3936L32.815 30.0042Z" fill="#23262F"/>
<path d="M39.0459 26.4065C37.0987 27.5377 35.1515 28.6689 33.2043 29.8001L33.4454 30.1896C35.3926 29.0584 37.3398 27.9271 39.2869 26.7959L39.0459 26.4065Z" fill="#23262F"/>
<path d="M41.9388 24.7186C41.1785 25.1637 40.1585 25.7571 39.3982 26.2022L39.6393 26.5916C40.3996 26.1466 41.4195 25.5531 42.1799 25.1081L41.9388 24.7186Z" fill="#23262F"/>
<path d="M44.3497 23.3278C43.7377 23.6801 42.9218 24.1623 42.3098 24.5146L42.5509 24.904C43.1629 24.5517 43.9788 24.0695 44.5908 23.7172L44.3497 23.3278Z" fill="#23262F"/>
<path d="M49.3009 20.4352C47.7617 21.3253 46.2411 22.2155 44.7019 23.1056L44.943 23.495C46.4822 22.6049 48.0028 21.7147 49.542 20.8246L49.3009 20.4352Z" fill="#23262F"/>
<path d="M52.2125 18.7473C51.4521 19.1924 50.4322 19.7858 49.6719 20.2309L49.913 20.6203C50.6733 20.1752 51.6932 19.5818 52.4535 19.1367L52.2125 18.7473Z" fill="#23262F"/>
<path d="M66.8071 32.3405L63.5618 34.1949V33.1935L66.8071 31.3206V32.3405Z" fill="#23262F"/>
<path d="M36.969 49.5498L43.7934 45.6183V44.5984L36.5425 48.7894V49.3087L36.969 49.5498Z" fill="#23262F"/>
</g>
<path d="M106.881 155.262L59.1709 155.262L0.771667 61.6311L114.237 124.048L106.881 155.262Z" fill="url(#paint19_linear_1_16650)"/>
<path d="M153.001 137.918L105.177 154.342L114.199 124.455L173.228 90.0855L153.001 137.918Z" fill="url(#paint20_linear_1_16650)"/>
<defs>
<linearGradient id="paint0_linear_1_16650" x1="161.164" y1="132.494" x2="139.196" y2="89.2465" gradientUnits="userSpaceOnUse">
<stop stop-color="white" stop-opacity="0"/>
<stop offset="1" stop-color="#98DA64"/>
</linearGradient>
<radialGradient id="paint1_radial_1_16650" cx="0" cy="0" r="1" gradientUnits="userSpaceOnUse" gradientTransform="translate(118.94 64.8129) rotate(90) scale(45.2711 72.932)">
<stop stop-color="#666666"/>
<stop offset="1"/>
</radialGradient>
<radialGradient id="paint2_radial_1_16650" cx="0" cy="0" r="1" gradientUnits="userSpaceOnUse" gradientTransform="translate(79.935 72.6371) rotate(90) scale(67.9267 125.925)">
<stop stop-color="#666666"/>
<stop offset="1"/>
</radialGradient>
<linearGradient id="paint3_linear_1_16650" x1="104.157" y1="62.4023" x2="118.49" y2="62.4023" gradientUnits="userSpaceOnUse">
<stop stop-color="#A1BA8E"/>
<stop offset="1" stop-color="#E6F3C0"/>
</linearGradient>
<linearGradient id="paint4_linear_1_16650" x1="90.0817" y1="70.5839" x2="104.415" y2="70.5839" gradientUnits="userSpaceOnUse">
<stop stop-color="#A1BA8E"/>
<stop offset="1" stop-color="#E6F3C0"/>
</linearGradient>
<linearGradient id="paint5_linear_1_16650" x1="75.9692" y1="78.7806" x2="90.2841" y2="78.7806" gradientUnits="userSpaceOnUse">
<stop stop-color="#A1BA8E"/>
<stop offset="1" stop-color="#E6F3C0"/>
</linearGradient>
<linearGradient id="paint6_linear_1_16650" x1="114.004" y1="68.0954" x2="128.337" y2="68.0954" gradientUnits="userSpaceOnUse">
<stop stop-color="#A1BA8E"/>
<stop offset="1" stop-color="#E6F3C0"/>
</linearGradient>
<linearGradient id="paint7_linear_1_16650" x1="99.9101" y1="76.2585" x2="114.244" y2="76.2585" gradientUnits="userSpaceOnUse">
<stop stop-color="#A1BA8E"/>
<stop offset="1" stop-color="#E6F3C0"/>
</linearGradient>
<linearGradient id="paint8_linear_1_16650" x1="85.8164" y1="84.4551" x2="100.131" y2="84.4551" gradientUnits="userSpaceOnUse">
<stop stop-color="#A1BA8E"/>
<stop offset="1" stop-color="#E6F3C0"/>
</linearGradient>
<linearGradient id="paint9_linear_1_16650" x1="123.851" y1="73.7701" x2="138.185" y2="73.7701" gradientUnits="userSpaceOnUse">
<stop stop-color="#A1BA8E"/>
<stop offset="1" stop-color="#E6F3C0"/>
</linearGradient>
<linearGradient id="paint10_linear_1_16650" x1="109.757" y1="81.9517" x2="124.091" y2="81.9517" gradientUnits="userSpaceOnUse">
<stop stop-color="#A1BA8E"/>
<stop offset="1" stop-color="#E6F3C0"/>
</linearGradient>
<linearGradient id="paint11_linear_1_16650" x1="95.6635" y1="90.1482" x2="109.978" y2="90.1482" gradientUnits="userSpaceOnUse">
<stop stop-color="#A1BA8E"/>
<stop offset="1" stop-color="#E6F3C0"/>
</linearGradient>
<linearGradient id="paint12_linear_1_16650" x1="68.6057" y1="73.5807" x2="76.0421" y2="73.5807" gradientUnits="userSpaceOnUse">
<stop stop-color="#A1BA8E"/>
<stop offset="1" stop-color="#E6F3C0"/>
</linearGradient>
<linearGradient id="paint13_linear_1_16650" x1="79.5654" y1="67.2571" x2="87.0018" y2="67.2571" gradientUnits="userSpaceOnUse">
<stop stop-color="#A1BA8E"/>
<stop offset="1" stop-color="#E6F3C0"/>
</linearGradient>
<linearGradient id="paint14_linear_1_16650" x1="90.5254" y1="60.9148" x2="97.9617" y2="60.9148" gradientUnits="userSpaceOnUse">
<stop stop-color="#A1BA8E"/>
<stop offset="1" stop-color="#E6F3C0"/>
</linearGradient>
<linearGradient id="paint15_linear_1_16650" x1="101.467" y1="54.5912" x2="108.903" y2="54.5912" gradientUnits="userSpaceOnUse">
<stop stop-color="#A1BA8E"/>
<stop offset="1" stop-color="#E6F3C0"/>
</linearGradient>
<radialGradient id="paint16_radial_1_16650" cx="0" cy="0" r="1" gradientUnits="userSpaceOnUse" gradientTransform="translate(140.984 105.915) rotate(90) scale(16.3441 29.514)">
<stop stop-color="#666666"/>
<stop offset="1"/>
</radialGradient>
<radialGradient id="paint17_radial_1_16650" cx="0" cy="0" r="1" gradientUnits="userSpaceOnUse" gradientTransform="translate(138.122 111.256) rotate(90) scale(14.7839 30.5575)">
<stop stop-color="#666666"/>
<stop offset="1"/>
</radialGradient>
<radialGradient id="paint18_radial_1_16650" cx="0" cy="0" r="1" gradientUnits="userSpaceOnUse" gradientTransform="translate(141.741 107.331) rotate(90) scale(15.4291 30.5471)">
<stop stop-color="#666666"/>
<stop offset="1"/>
</radialGradient>
<linearGradient id="paint19_linear_1_16650" x1="62.2759" y1="144.22" x2="81.4122" y2="76.7077" gradientUnits="userSpaceOnUse">
<stop stop-color="white" stop-opacity="0"/>
<stop offset="1" stop-color="#98DA64"/>
</linearGradient>
<linearGradient id="paint20_linear_1_16650" x1="147.766" y1="139.346" x2="135.187" y2="100.547" gradientUnits="userSpaceOnUse">
<stop stop-color="white" stop-opacity="0"/>
<stop offset="1" stop-color="#98DA64"/>
</linearGradient>
</defs>
</svg>
