<svg width="186" height="188" viewBox="0 0 186 188" fill="none" xmlns="http://www.w3.org/2000/svg">
<g clip-path="url(#clip0_1_16019)">
<path d="M179.608 116.88C178.783 116.403 177.446 116.403 176.621 116.88C176.211 117.118 176.003 117.431 176.003 117.74C176.003 118.049 176.211 118.366 176.621 118.6C177.446 119.077 178.783 119.077 179.608 118.6C180.018 118.362 180.226 118.049 180.226 117.74C180.226 117.431 180.018 117.114 179.608 116.88Z" fill="#455A64"/>
<path d="M180.23 117.74C180.23 117.427 180.022 117.114 179.612 116.88C178.787 116.403 177.45 116.403 176.625 116.88C176.215 117.118 176.007 117.431 176.007 117.74V118.248C176.007 118.561 176.215 118.874 176.625 119.108C177.45 119.585 178.787 119.585 179.612 119.108C180.022 118.87 180.23 118.557 180.23 118.248V117.74Z" fill="#263238"/>
<path d="M179.608 116.88C178.783 116.403 177.446 116.403 176.621 116.88C176.211 117.118 176.003 117.431 176.003 117.74C176.003 118.049 176.211 118.366 176.621 118.6C177.446 119.077 178.783 119.077 179.608 118.6C180.018 118.362 180.226 118.049 180.226 117.74C180.226 117.431 180.018 117.114 179.608 116.88Z" fill="#455A64"/>
<path d="M176.555 103.786C176.555 103.556 176.707 103.325 177.012 103.149C177.622 102.797 178.611 102.797 179.225 103.149C179.53 103.325 179.682 103.556 179.682 103.786V117.595C179.682 117.825 179.53 118.056 179.225 118.232C178.615 118.584 177.626 118.584 177.012 118.232C176.707 118.056 176.555 117.825 176.555 117.595V103.786Z" fill="#37474F"/>
<path d="M179.221 103.149C178.611 102.797 177.622 102.797 177.008 103.149C176.703 103.325 176.551 103.556 176.551 103.786C176.551 104.017 176.703 104.248 177.008 104.424C177.618 104.775 178.607 104.775 179.221 104.424C179.526 104.248 179.678 104.017 179.678 103.786C179.678 103.556 179.526 103.325 179.221 103.149Z" fill="#455A64"/>
<path d="M178.372 55.8564V103.786C178.372 103.825 178.349 103.864 178.298 103.892C178.197 103.95 178.032 103.95 177.935 103.892C177.884 103.861 177.856 103.825 177.856 103.786V55.8564C177.856 55.7157 177.97 55.5984 178.114 55.5984C178.259 55.5984 178.372 55.7118 178.372 55.8564Z" fill="#263238"/>
<path d="M178.349 63.9296H177.884C177.884 62.1274 176.848 60.4072 175.182 59.4338C173.349 58.3665 171.167 58.3899 169.201 59.5041L168.974 59.1014C171.085 57.9012 173.435 57.8778 175.417 59.0311C177.227 60.0866 178.349 61.9593 178.349 63.9257V63.9296Z" fill="#263238"/>
<path d="M168.849 60.8957L167.7 61.6971C166.781 62.3343 165.303 62.4282 164.392 61.9043C163.974 61.6619 163.767 61.3609 163.767 61.0599C163.767 60.9504 163.775 60.5204 163.775 60.4148C163.775 60.0669 164.044 59.7228 164.588 59.4726L166.402 58.6399C167.418 58.1747 168.747 58.0887 169.377 58.4483C169.611 58.5852 169.721 58.7807 169.721 59.0113C169.721 59.1208 169.721 59.5469 169.721 59.6525C169.729 60.0356 169.424 60.4969 168.853 60.8957H168.849Z" fill="#263238"/>
<path d="M169.378 58.4479C170.004 58.8114 169.769 59.6207 168.85 60.2579L167.701 61.0594C166.782 61.6966 165.304 61.7904 164.397 61.2666C163.49 60.7427 163.576 59.9374 164.593 59.4721L166.407 58.6394C167.423 58.1742 168.753 58.0882 169.382 58.4479H169.378Z" fill="#37474F"/>
<path d="M169.451 59.0036C169.447 58.8707 169.373 58.769 169.24 58.6908C169.029 58.5696 168.693 58.5032 168.298 58.5032C167.712 58.5032 167.047 58.6478 166.519 58.8902L164.705 59.7268C164.295 59.9145 164.056 60.1608 164.044 60.4032C164.033 60.6182 164.209 60.841 164.533 61.0287C164.873 61.2241 165.327 61.3336 165.815 61.3336C166.461 61.3336 167.09 61.1499 167.543 60.8371L168.693 60.0357C169.166 59.7073 169.463 59.3007 169.455 59.0036H169.451Z" fill="#E0E0E0"/>
<path d="M166.019 15.2331C165.581 15.0337 165.065 15.0181 164.69 14.9868C164.259 14.9516 164.123 14.8656 164.041 14.7757C162.993 13.2784 161.265 13.2198 160.229 13.6498C159.975 12.6177 158.728 11.7263 157.355 12.0274C157.402 10.6864 155.694 9.24776 154.157 8.92327C152.684 8.61052 151.401 8.73953 150.561 9.70907C149.662 7.94982 146.131 7.45723 144.224 8.38768C143.125 8.92327 142.195 9.47059 141.741 10.4753C141.44 11.1399 141.334 11.5817 141.327 12.477C140.584 11.8202 139.094 11.6443 138.097 12.0274C137.026 12.4418 136.944 13.251 136.893 14.072C135.842 13.8062 135.142 13.9782 134.943 14.0368C134.266 14.2362 133.879 14.7679 133.973 15.194C133.437 15.1628 132.167 15.5967 132.311 16.1597C132.476 16.793 133.93 16.7304 134.469 16.707C134.919 16.6914 135.502 16.5702 135.99 16.4685C136.139 16.5428 136.534 16.621 136.78 16.6171C137.706 16.6093 138.097 16.2144 138.246 15.8704C138.696 16.8204 140.306 17.5436 141.44 17.8368C143.578 18.3841 146.604 18.0518 147.922 16.4529C148.059 16.7422 148.289 17.008 148.559 17.2309C149.083 17.6609 149.787 17.9619 150.537 18.0323C151.417 18.1144 153.774 18.2278 154.439 16.8321C154.908 17.7625 157.007 18.1848 158.603 17.958C159.201 17.872 159.869 17.6648 160.389 17.4185C160.807 17.2191 161.046 17.0237 161.417 16.8008C161.73 16.6132 161.875 16.6132 162.293 16.7422C163.388 17.0706 164.658 17.2074 165.776 16.7422C166.668 16.3669 166.855 15.6202 166.019 15.2409V15.2331Z" fill="#F0F0F0"/>
<path d="M181.879 30.531C181.528 30.3708 181.113 30.359 180.812 30.3356C180.468 30.3082 180.359 30.2378 180.288 30.1636C179.448 28.9594 178.056 28.9125 177.227 29.2605C177.024 28.4317 176.023 27.7123 174.921 27.9547C174.96 26.8796 173.584 25.7224 172.352 25.4605C171.167 25.2103 170.135 25.3158 169.459 26.0938C168.736 24.6825 165.901 24.2837 164.369 25.0305C163.485 25.4605 162.739 25.9023 162.371 26.7076C162.129 27.2393 162.043 27.5951 162.039 28.3144C161.441 27.7866 160.244 27.6459 159.447 27.9547C158.587 28.287 158.52 28.936 158.477 29.5967C157.633 29.3856 157.07 29.5224 156.91 29.5693C156.366 29.7296 156.054 30.1557 156.128 30.4998C155.698 30.4763 154.677 30.8243 154.795 31.2738C154.928 31.7821 156.093 31.7313 156.531 31.7156C156.89 31.7039 157.359 31.6061 157.75 31.5241C157.871 31.5827 158.184 31.6452 158.384 31.6452C159.126 31.6413 159.443 31.3208 159.56 31.0432C159.924 31.8055 161.214 32.388 162.125 32.6226C163.845 33.0644 166.277 32.7946 167.332 31.5084C167.442 31.7391 167.629 31.9541 167.844 32.1339C168.263 32.478 168.83 32.7203 169.436 32.779C170.139 32.8454 172.035 32.9354 172.567 31.8133C172.946 32.5601 174.631 32.9002 175.914 32.7164C176.394 32.65 176.93 32.4819 177.348 32.2825C177.685 32.1222 177.876 31.9658 178.173 31.786C178.427 31.6335 178.541 31.6374 178.877 31.7391C179.757 32.0049 180.777 32.1144 181.676 31.7391C182.392 31.438 182.544 30.8399 181.872 30.535L181.879 30.531Z" fill="#F5F5F5"/>
<path opacity="0.1" d="M86.5319 78.074L5.8252 124.671L70.4914 161.963L151.198 115.366L86.5319 78.074Z" fill="black"/>
<path opacity="0.1" d="M160.929 102.09C163.697 103.704 163.697 106.324 160.929 107.942C158.161 109.557 153.677 109.557 150.909 107.942C148.141 106.327 148.141 103.708 150.909 102.094C153.677 100.479 158.161 100.479 160.929 102.094V102.09Z" fill="black"/>
<path d="M152.651 88.7879L152.054 89.0903L155.758 96.3909L156.354 96.0885L152.651 88.7879Z" fill="#263238"/>
<path d="M159.535 88.2011L155.921 94.0381L156.49 94.39L160.103 88.5529L159.535 88.2011Z" fill="#263238"/>
<path d="M155.502 87.5V105.093C155.502 105.175 155.557 105.257 155.667 105.319C155.886 105.444 156.241 105.444 156.46 105.319C156.57 105.257 156.624 105.175 156.624 105.093V87.5H155.502Z" fill="#263238"/>
<path d="M151.374 90.1267C155.853 89.5751 159.036 85.4973 158.485 81.0186C157.933 76.5398 153.856 73.3561 149.377 73.9077C144.898 74.4592 141.714 78.537 142.266 83.0158C142.817 87.4945 146.895 90.6782 151.374 90.1267Z" fill="#BA68C8"/>
<path opacity="0.35" d="M151.374 90.1267C155.853 89.5751 159.036 85.4973 158.485 81.0186C157.933 76.5398 153.856 73.3561 149.377 73.9077C144.898 74.4592 141.714 78.537 142.266 83.0158C142.817 87.4945 146.895 90.6782 151.374 90.1267Z" fill="black"/>
<path opacity="0.15" d="M147.813 79.9347C146.761 76.6155 145.635 75.3176 146.35 74.9149C147.539 74.2386 148.911 73.8555 150.377 73.8555C154.889 73.8555 158.548 77.5147 158.548 82.0262C158.548 86.5377 154.889 90.197 150.377 90.197C147.84 90.197 145.573 89.0398 144.075 87.2258C146.495 87.9334 149.185 84.239 147.817 79.9386L147.813 79.9347Z" fill="black"/>
<path d="M157.5 84.3382C157.5 87.5088 160.073 90.0812 163.243 90.0812C166.414 90.0812 168.986 87.5088 168.986 84.3382C168.986 81.1676 166.414 78.5952 163.243 78.5952C160.073 78.5952 157.5 81.1676 157.5 84.3382Z" fill="#BA68C8"/>
<path opacity="0.35" d="M157.5 84.3382C157.5 87.5088 160.073 90.0812 163.243 90.0812C166.414 90.0812 168.986 87.5088 168.986 84.3382C168.986 81.1676 166.414 78.5952 163.243 78.5952C160.073 78.5952 157.5 81.1676 157.5 84.3382Z" fill="black"/>
<path opacity="0.15" d="M163.243 78.5942C164.498 78.5942 165.655 78.9969 166.598 79.6772C166.754 83.1839 163.775 86.6047 164.608 87.7541C165.448 88.9113 167.489 88.1959 168.204 87.2224C167.207 88.9308 165.358 90.0763 163.243 90.0763C160.073 90.0763 157.5 87.5039 157.5 84.3333C157.5 81.1627 160.073 78.5903 163.243 78.5903V78.5942Z" fill="black"/>
<path d="M145.529 78.1441C145.529 83.9614 150.244 88.6762 156.061 88.6762C161.879 88.6762 166.593 83.9614 166.593 78.1441C166.593 72.3269 161.879 67.6121 156.061 67.6121C150.244 67.6121 145.529 72.3269 145.529 78.1441Z" fill="#BA68C8"/>
<g opacity="0.3">
<path d="M145.529 78.1441C145.529 83.9614 150.244 88.6762 156.061 88.6762C161.879 88.6762 166.593 83.9614 166.593 78.1441C166.593 72.3269 161.879 67.6121 156.061 67.6121C150.244 67.6121 145.529 72.3269 145.529 78.1441Z" fill="black"/>
</g>
<path opacity="0.1" d="M145.807 80.5525C146.894 85.2087 151.069 88.6803 156.061 88.6803C161.879 88.6803 166.597 83.9655 166.597 78.1482C166.597 75.3725 165.526 72.8509 163.771 70.9705C163.04 70.1847 162.993 70.1534 163.712 70.9118C163.892 71.6859 163.99 72.4873 163.99 73.3161C163.99 79.1334 159.275 83.8521 153.458 83.8521C150.443 83.8521 147.73 82.5855 145.811 80.5564L145.807 80.5525Z" fill="black"/>
<path d="M141.163 114.404L67.7822 156.735V75.1802L141.163 32.8486V114.404Z" fill="#F0F0F0"/>
<path d="M67.7822 156.736L12.1194 124.694V43.1387L67.7822 75.1805V156.736Z" fill="#E0E0E0"/>
<path d="M12.1194 43.1389L67.7822 75.1808L73.5916 71.8265L92.9981 60.622L111.85 49.7733L135.349 36.2035L141.163 32.8492L85.4998 0.807373L12.1194 43.1389Z" fill="#455A64"/>
<path d="M20.947 44.8513L67.7822 71.7991L73.6425 68.4136L87.1262 60.6298L111.834 46.3994L129.411 36.2544L132.362 34.546L85.4647 7.59424L20.947 44.8513Z" fill="#BA68C8"/>
<path opacity="0.6" d="M20.947 44.8513L67.7822 71.7991L73.6425 68.4136L87.1262 60.6298L111.834 46.3994L129.411 36.2544L132.362 34.546L85.4647 7.59424L20.947 44.8513Z" fill="white"/>
<path d="M85.4647 4.20874V7.59433L20.947 44.8514L17.9797 43.1351L85.4647 4.20874Z" fill="#37474F"/>
<path opacity="0.15" d="M85.4647 4.20874L88.9167 9.57251L24.5672 46.939L17.9797 43.1391L85.4647 4.20874Z" fill="black"/>
<path d="M135.271 32.8728L85.4646 4.20874V7.59433L132.362 34.5461L135.271 32.8728Z" fill="#263238"/>
<g opacity="0.1">
<path d="M45.1895 35.6526L27.554 45.8289L39.9586 52.991L57.5942 42.8147L45.1895 35.6526Z" fill="black"/>
</g>
<path d="M45.3068 33.3574L38.907 37.0519L47.8675 42.2241L54.2672 38.5296L45.3068 33.3574Z" fill="#FAFAFA"/>
<path d="M38.907 37.052V40.7464L47.8674 45.9225V42.2242L38.907 37.052Z" fill="#E0E0E0"/>
<path d="M54.2672 38.5295V42.224L47.8674 45.9223V42.224L54.2672 38.5295Z" fill="#F0F0F0"/>
<path d="M43.2036 35.8354C42.0425 36.5078 42.0425 37.5946 43.2036 38.2631C44.3647 38.9356 46.2491 38.9317 47.4102 38.2631C48.5713 37.5907 48.5713 36.5039 47.4102 35.8354C46.2491 35.1669 44.3647 35.1669 43.2036 35.8354Z" fill="#E0E0E0"/>
<path d="M44.3216 36.5275C43.7782 36.8168 43.7782 37.286 44.3216 37.5713C44.865 37.8606 45.7486 37.8606 46.292 37.5713C46.8354 37.282 46.8354 36.8129 46.292 36.5275C45.7486 36.2382 44.865 36.2382 44.3216 36.5275Z" fill="#FAFAFA"/>
<path d="M51.1279 45.8281C50.952 45.8281 50.8113 45.6873 50.8113 45.5114V43.4746L49.6893 42.8256C49.5368 42.7396 49.486 42.5441 49.572 42.3956C49.658 42.2431 49.8535 42.1923 50.002 42.2783L51.2804 43.0172C51.3781 43.0719 51.4368 43.1775 51.4368 43.2908V45.5075C51.4368 45.6834 51.296 45.8242 51.1201 45.8242L51.1279 45.8281Z" fill="#BA68C8"/>
<path d="M52.9888 44.757C52.8129 44.757 52.6722 44.6163 52.6722 44.4404V42.4035L51.5502 41.7546C51.3977 41.6686 51.3469 41.4731 51.4368 41.3245C51.5228 41.1721 51.7183 41.1212 51.8668 41.2072L53.1452 41.9461C53.243 42.0009 53.3016 42.1064 53.3016 42.2198V44.4364C53.3016 44.6124 53.1609 44.7531 52.9849 44.7531L52.9888 44.757Z" fill="#BA68C8"/>
<path d="M36.3463 38.5288L29.9465 42.2232L38.907 47.3994L45.3068 43.701L36.3463 38.5288Z" fill="#FAFAFA"/>
<path d="M29.9465 42.2236V45.922L38.907 51.0942V47.3997L29.9465 42.2236Z" fill="#E0E0E0"/>
<path d="M45.3068 43.7009V47.3993L38.907 51.0937V47.3993L45.3068 43.7009Z" fill="#F0F0F0"/>
<path d="M34.2431 41.0121C33.082 41.6846 33.082 42.7714 34.2431 43.4399C35.4043 44.1123 37.2886 44.1084 38.4497 43.4399C39.6108 42.7675 39.6108 41.6806 38.4497 41.0121C37.2886 40.3436 35.4043 40.3436 34.2431 41.0121Z" fill="#E0E0E0"/>
<path d="M35.3612 41.7043C34.8178 41.9936 34.8178 42.4627 35.3612 42.7481C35.9046 43.0374 36.7881 43.0374 37.3315 42.7481C37.875 42.4588 37.875 41.9897 37.3315 41.7043C36.7881 41.415 35.9046 41.415 35.3612 41.7043Z" fill="#FAFAFA"/>
<path d="M42.1675 51.0041C41.9916 51.0041 41.8508 50.8634 41.8508 50.6874V48.6506L40.7288 48.0016C40.5764 47.9156 40.5255 47.7202 40.6115 47.5716C40.6975 47.4191 40.893 47.3683 41.0416 47.4543L42.32 48.1932C42.4177 48.2479 42.4763 48.3535 42.4763 48.4669V50.6835C42.4763 50.8594 42.3356 51.0002 42.1597 51.0002L42.1675 51.0041Z" fill="#BA68C8"/>
<path d="M44.0244 49.9323C43.8485 49.9323 43.7078 49.7916 43.7078 49.6156V47.5788L42.5858 46.9299C42.4333 46.8438 42.3825 46.6484 42.4685 46.4998C42.5545 46.3473 42.75 46.2965 42.8985 46.3825L44.1769 47.1214C44.2746 47.1762 44.3333 47.2817 44.3333 47.3951V49.6117C44.3333 49.7877 44.1925 49.9284 44.0166 49.9284L44.0244 49.9323Z" fill="#BA68C8"/>
<path d="M147.015 66.866V86.2256L79.2722 125.457V105.964L147.015 66.866Z" fill="#BA68C8"/>
<path opacity="0.6" d="M147.015 66.866V86.2256L79.2722 125.457V105.964L147.015 66.866Z" fill="white"/>
<path d="M128.355 125.55V98.4612L83.1462 124.561V151.653L128.355 125.55Z" fill="#BA68C8"/>
<path opacity="0.8" d="M128.355 125.55V98.4612L83.1462 124.561V151.653L128.355 125.55Z" fill="white"/>
<path d="M99.8632 123.338C99.6325 123.788 99.4136 124.245 99.1986 124.702C99.0617 124.988 98.9288 125.277 98.7959 125.566C98.7646 125.629 98.7372 125.695 98.706 125.758C98.6708 125.836 98.6317 125.914 98.6004 125.989C98.4831 126.235 98.3697 126.485 98.2642 126.731C98.1039 127.079 97.9514 127.431 97.799 127.779C97.7208 127.959 97.6426 128.139 97.5644 128.319C97.2008 129.179 96.8372 130.047 96.4971 130.918L95.985 132.224C95.8247 132.666 95.6527 133.1 95.5002 133.546C95.7191 133.127 95.9185 132.701 96.1257 132.283L96.716 131.012C97.1109 130.164 97.4823 129.304 97.8537 128.448C97.9827 128.139 98.1156 127.83 98.2446 127.521C98.4323 127.075 98.6121 126.634 98.792 126.184C98.835 126.075 98.8819 125.957 98.9249 125.848C98.9835 125.703 99.0383 125.562 99.093 125.418C99.1516 125.277 99.2025 125.136 99.2572 124.999C99.308 124.87 99.3549 124.745 99.4058 124.616C99.566 124.186 99.7263 123.756 99.8788 123.318C99.8905 123.283 99.9023 123.252 99.914 123.217L99.8553 123.33L99.8632 123.338ZM102.541 130.438C102.146 131.286 101.775 132.146 101.403 133.002C101.036 133.862 100.676 134.726 100.332 135.602L99.8202 136.908C99.6599 137.349 99.4879 137.783 99.3393 138.229C99.5543 137.811 99.7576 137.385 99.9609 136.966L100.555 135.696C100.95 134.847 101.321 133.987 101.693 133.131C102.06 132.271 102.42 131.403 102.764 130.531C103.108 129.66 103.448 128.788 103.757 127.9C103.327 128.737 102.932 129.585 102.537 130.434L102.541 130.438ZM102.021 124.851C101.92 125.07 101.822 125.293 101.724 125.512C101.544 125.91 101.364 126.313 101.188 126.712C100.582 128.053 100.004 129.409 99.4136 130.758C98.8467 132.115 98.2642 133.471 97.709 134.832L96.8842 136.88C96.6183 137.568 96.3446 138.253 96.0866 138.941C96.4111 138.28 96.7121 137.607 97.0288 136.939L97.9397 134.929C98.5457 133.585 99.1204 132.228 99.7107 130.883C100.281 129.527 100.86 128.174 101.415 126.81C101.97 125.445 102.522 124.081 103.042 122.701C102.698 123.416 102.365 124.135 102.033 124.855L102.021 124.851ZM87.4233 132.447C87.0284 133.295 86.657 134.155 86.2856 135.012C85.9181 135.872 85.5546 136.736 85.2144 137.607L84.7023 138.917C84.542 139.355 84.37 139.793 84.2214 140.239C84.4365 139.824 84.6358 139.398 84.843 138.98L85.4373 137.709C85.8321 136.861 86.2035 136.001 86.5749 135.141C86.9385 134.281 87.3021 133.417 87.6422 132.545C87.9901 131.673 88.3303 130.801 88.6391 129.914C88.2091 130.75 87.8142 131.595 87.4194 132.447H87.4233ZM91.2624 137.127C90.8636 137.975 90.4922 138.835 90.1208 139.691C89.7572 140.551 89.3936 141.415 89.0496 142.287L88.5414 143.597C88.3811 144.035 88.2091 144.472 88.0566 144.918C88.2755 144.5 88.4749 144.078 88.6821 143.659L89.2725 142.389C89.6673 141.54 90.0387 140.676 90.4101 139.82C90.7776 138.96 91.1412 138.096 91.4813 137.224C91.8292 136.353 92.1654 135.481 92.4743 134.593C92.0482 135.43 91.6494 136.274 91.2584 137.127H91.2624ZM89.898 133.401C89.292 134.742 88.7173 136.098 88.127 137.447C87.5562 138.804 86.9776 140.156 86.4225 141.521L85.5937 143.569C85.3278 144.257 85.0542 144.942 84.8 145.63C85.1206 144.969 85.4255 144.297 85.7383 143.628L86.6492 141.615C87.2552 140.274 87.8338 138.917 88.4241 137.568C88.991 136.212 89.5735 134.859 90.1247 133.495C90.6799 132.13 91.2311 130.766 91.751 129.386C91.1138 130.711 90.5 132.052 89.9019 133.397L89.898 133.401ZM124.379 113.259C123.777 114.6 123.199 115.957 122.608 117.306C122.038 118.662 121.459 120.019 120.904 121.379L120.079 123.428C119.813 124.116 119.536 124.8 119.281 125.488C119.602 124.827 119.907 124.155 120.224 123.487L121.134 121.477C121.737 120.132 122.315 118.776 122.905 117.431C123.472 116.074 124.055 114.722 124.61 113.357C125.165 111.993 125.716 110.628 126.236 109.248C125.599 110.578 124.989 111.915 124.387 113.259H124.379ZM125.744 116.989C125.349 117.837 124.977 118.697 124.606 119.554C124.239 120.414 123.875 121.278 123.535 122.153L123.023 123.459C122.862 123.901 122.69 124.335 122.542 124.781C122.757 124.366 122.956 123.94 123.163 123.522L123.754 122.251C124.153 121.403 124.524 120.543 124.895 119.687C125.259 118.823 125.623 117.959 125.963 117.087C126.311 116.215 126.651 115.343 126.96 114.456C126.53 115.292 126.135 116.141 125.74 116.989H125.744ZM121.905 112.305C121.51 113.154 121.138 114.014 120.767 114.87C120.4 115.73 120.04 116.594 119.696 117.47L119.184 118.776C119.023 119.217 118.855 119.651 118.703 120.097C118.918 119.679 119.121 119.253 119.324 118.834L119.919 117.564C120.313 116.715 120.685 115.855 121.056 114.999C121.424 114.139 121.783 113.271 122.127 112.399C122.472 111.528 122.812 110.656 123.12 109.768C122.69 110.605 122.296 111.453 121.901 112.302L121.905 112.305ZM113.101 119.948C112.495 121.293 111.916 122.65 111.326 123.995C110.759 125.351 110.176 126.704 109.621 128.068L108.796 130.117C108.53 130.805 108.257 131.489 107.999 132.177C108.323 131.517 108.624 130.844 108.941 130.176L109.852 128.162C110.458 126.821 111.032 125.465 111.623 124.116C112.19 122.759 112.772 121.403 113.327 120.042C113.882 118.678 114.434 117.31 114.954 115.933C114.316 117.259 113.707 118.6 113.104 119.945L113.101 119.948ZM110.626 118.998C110.227 119.847 109.856 120.707 109.484 121.563C109.121 122.423 108.757 123.287 108.413 124.159L107.905 125.469C107.745 125.906 107.573 126.344 107.42 126.79C107.639 126.372 107.838 125.949 108.046 125.531L108.636 124.261C109.031 123.412 109.402 122.552 109.774 121.692C110.141 120.832 110.505 119.968 110.845 119.096C111.193 118.224 111.529 117.353 111.838 116.465C111.412 117.302 111.013 118.146 110.622 118.998H110.626ZM114.461 123.678C114.066 124.526 113.695 125.387 113.323 126.243C112.956 127.103 112.596 127.967 112.252 128.839L111.74 130.148C111.58 130.586 111.408 131.024 111.259 131.47C111.474 131.051 111.678 130.629 111.881 130.211L112.475 128.94C112.87 128.088 113.241 127.228 113.613 126.372C113.98 125.512 114.34 124.648 114.684 123.776C115.028 122.904 115.368 122.032 115.677 121.145C115.247 121.977 114.852 122.826 114.457 123.678H114.461Z" fill="white"/>
<path d="M128.355 103.086V102.339L117.847 108.407V103.282L117.198 103.653V108.778L105.751 115.389V110.264L105.106 110.635V115.761L94.4485 121.914V116.789L93.8035 117.16V122.289L83.1463 128.443L81.8562 129.186V129.928L83.1463 129.186L93.8035 123.032V145.496L83.1463 151.649L81.8562 152.392V153.882L83.1463 153.139L105.36 140.316L105.751 140.089L128.355 127.039V125.55L117.847 131.617V109.154L128.355 103.086ZM94.4485 145.128V122.665L105.106 116.511V138.975L94.4485 145.128ZM105.751 138.603V116.14L117.198 109.529V131.993L105.751 138.603Z" fill="#455A64"/>
<path d="M79.2722 156.872L83.1465 154.636V123.313L79.2722 125.549V156.872Z" fill="#BA68C8"/>
<path opacity="0.6" d="M79.2722 156.872L83.1465 154.636V123.313L79.2722 125.549V156.872Z" fill="white"/>
<path d="M129.645 127.791L147.019 117.775V36.2317L129.645 46.2477V127.791Z" fill="#BA68C8"/>
<path opacity="0.6" d="M129.645 127.791L147.019 117.775V36.2317L129.645 46.2477V127.791Z" fill="white"/>
<path d="M131.871 89.951V47.553L144.795 40.0898V82.4918L131.871 89.951Z" fill="#BA68C8"/>
<path opacity="0.8" d="M131.871 89.951V47.553L144.795 40.0898V82.4918L131.871 89.951Z" fill="white"/>
<path opacity="0.7" d="M144.794 69.0241V63.6877L136.405 87.3321L138.785 85.9599L144.794 69.0241Z" fill="white"/>
<path opacity="0.7" d="M131.87 60.7831V66.1195L140.15 42.7722L137.773 44.1444L131.87 60.7831Z" fill="white"/>
<path opacity="0.7" d="M131.87 78.97V88.427L144.794 51.9948V42.5378L131.87 78.97Z" fill="white"/>
<path d="M131.871 47.553V89.951L144.795 82.4879V40.0898L131.871 47.553ZM144.361 48.8431L138.548 52.2013V44.2769L144.361 40.9186V48.8431ZM138.118 61.326V69.055L132.305 72.4132V64.6842L138.118 61.326ZM132.305 64.1095V56.3805L138.118 53.0223V60.7513L132.305 64.1095ZM138.118 69.6297V77.3587L132.305 80.7169V72.9879L138.118 69.6297ZM138.548 69.3795L144.361 66.0212V73.7502L138.548 77.1084V69.3795ZM138.548 68.8048V61.0758L144.361 57.7176V65.4466L138.548 68.8048ZM138.548 60.5011V52.7721L144.361 49.4139V57.1429L138.548 60.5011ZM138.118 44.5232V52.4476L132.305 55.8058V47.8814L138.118 44.5232ZM132.305 81.2877L138.118 77.9294V85.7679L132.305 89.1261V81.2877ZM138.548 85.5216V77.6831L144.361 74.3249V82.1634L138.548 85.5216Z" fill="#455A64"/>
<path d="M144.795 81.9248V115.914L144.365 116.16L142.539 117.212L140.158 118.588L138.548 119.518L138.118 119.764L134.943 121.598L132.3 123.123L131.87 123.373V89.3879L144.795 81.9248Z" fill="#BA68C8"/>
<path opacity="0.8" d="M144.795 81.9248V115.914L144.365 116.16L142.539 117.212L140.158 118.588L138.548 119.518L138.118 119.764L134.943 121.598L132.3 123.123L131.87 123.373V89.3879L144.795 81.9248Z" fill="white"/>
<path opacity="0.7" d="M144.794 105.519V110.855L144.364 112.071L142.8 116.489H142.797L142.539 117.212L140.158 118.588L140.412 117.861H140.42L143.864 108.146L144.118 107.419L144.364 106.735L144.794 105.519Z" fill="white"/>
<path opacity="0.7" d="M131.87 102.617V107.95L140.15 84.6025L137.773 85.9787L131.87 102.617Z" fill="white"/>
<path opacity="0.7" d="M144.794 84.3723V93.8254L144.364 95.0412L142.605 99.9906L142.351 100.714L138.903 110.433L138.649 111.156L138.547 111.434L138.117 112.649L135.197 120.871L134.942 121.598L132.3 123.123L131.87 123.373V120.801L132.3 119.585L134.426 113.592L134.684 112.868L138.117 103.196L138.547 101.977L141.839 92.7073L142.093 91.9879L144.364 85.5882L144.794 84.3723Z" fill="white"/>
<path d="M131.87 89.3889V123.374L132.3 123.127L134.942 121.603L138.117 119.769L138.547 119.523L140.158 118.593L142.539 117.216L144.36 116.165L144.79 115.918V81.9297L131.866 89.3928L131.87 89.3889ZM132.3 89.7134L138.113 86.3552V94.2796L132.3 97.6379V89.7134ZM132.3 98.2125L138.113 94.8582V102.583L132.3 105.938V98.2125ZM132.3 106.52L138.113 103.162V110.887L134.681 112.869L132.3 114.245V106.52ZM138.117 119.191L135.2 120.872L132.304 122.545V114.82L134.43 113.592L138.121 111.462V119.191H138.117ZM144.364 115.586L142.8 116.489H142.797L140.42 117.865H140.416L138.551 118.944V111.219L138.653 111.161L143.868 108.15L144.368 107.861V115.59L144.364 115.586ZM144.364 107.282L144.122 107.419L138.907 110.433L138.551 110.641V102.916L142.355 100.719L144.368 99.5574V107.282H144.364ZM144.364 98.9788L142.609 99.9874L138.551 102.329V94.6041L141.843 92.7041L144.368 91.2459V98.9749L144.364 98.9788ZM144.364 90.6751L142.097 91.9887L138.551 94.0333V86.105L144.364 82.7507V90.6751Z" fill="#455A64"/>
<path d="M129.645 127.791L128.355 127.044V98.4623L129.638 97.7234L129.645 127.791Z" fill="#BA68C8"/>
<path opacity="0.3" d="M129.645 127.791L128.355 127.044V98.4623L129.638 97.7234L129.645 127.791Z" fill="white"/>
<path d="M85.5709 109.599L124.622 87.0535C124.826 86.9362 125.013 86.9245 125.146 86.9988C125.275 87.0731 125.733 87.335 125.858 87.4093C125.991 87.4875 126.073 87.6517 126.073 87.8901V94.5949C126.073 95.0718 125.737 95.6543 125.322 95.8928L86.2746 118.439C86.0674 118.56 85.8837 118.568 85.7468 118.489C85.6217 118.415 85.1682 118.153 85.0431 118.083C84.9063 118.005 84.8242 117.84 84.8242 117.602V110.897C84.8242 110.42 85.1604 109.838 85.5748 109.599H85.5709Z" fill="#FAFAFA"/>
<path d="M86.27 118.439C86.0628 118.56 85.879 118.568 85.7422 118.49C85.6171 118.415 85.1636 118.154 85.0385 118.083C84.9017 118.005 84.8196 117.841 84.8196 117.602V110.898C84.8196 110.659 84.9017 110.393 85.0385 110.159L92.8222 114.655L86.27 118.439Z" fill="#E0E0E0"/>
<path d="M125.321 87.4601L86.2738 110.006C85.8594 110.244 85.5232 110.827 85.5232 111.304V118.009C85.5232 118.486 85.8594 118.681 86.2738 118.443L125.321 95.8967C125.736 95.6582 126.072 95.0757 126.072 94.5988V87.8941C126.072 87.4171 125.736 87.2216 125.321 87.4601Z" fill="#F5F5F5"/>
<path d="M129.645 80.4561L127.988 81.4139L79.2721 109.531L73.4119 106.157L122.014 78.1066L123.789 77.0784L129.645 80.4561Z" fill="#BA68C8"/>
<path opacity="0.2" d="M129.645 80.4561L127.988 81.4139L79.2721 109.531L73.4119 106.157L122.014 78.1066L123.789 77.0784L129.645 80.4561Z" fill="black"/>
<path d="M80.3512 124.738L79.2722 124.128V125.551L80.3512 126.176V124.738Z" fill="#BA68C8"/>
<path opacity="0.6" d="M80.3512 124.738L79.2722 124.128V125.551L80.3512 126.176V124.738Z" fill="white"/>
<path d="M131.956 93.7319L131.933 93.7202L79.2722 124.128L80.3551 124.742L115.626 104.377L115.794 104.284L133.004 94.3457L131.956 93.7359V93.7319Z" fill="#BA68C8"/>
<path opacity="0.9" d="M131.956 93.7319L131.933 93.7202L79.2722 124.128L80.3551 124.742L115.626 104.377L115.794 104.284L133.004 94.3457L131.956 93.7359V93.7319Z" fill="white"/>
<path d="M133 94.3408V95.7756L80.3513 126.175V124.737L133 94.3408Z" fill="#BA68C8"/>
<path opacity="0.75" d="M133 94.3408V95.7756L80.3513 126.175V124.737L133 94.3408Z" fill="white"/>
<path opacity="0.2" d="M79.2722 125.552V129.208L131.936 98.8037L131.933 96.3955L80.3512 126.178L79.2722 125.552Z" fill="black"/>
<path d="M97.791 126.031C97.791 126.031 97.7636 126.031 97.7519 126.019C97.7089 125.996 97.6932 125.945 97.7167 125.902L99.6128 121.746C99.6284 121.719 99.6519 121.703 99.6832 121.699C99.7105 121.699 99.7418 121.711 99.7613 121.734L101.392 123.853C101.419 123.892 101.407 123.947 101.368 123.975C101.329 124.002 101.274 123.99 101.247 123.951L99.6988 121.949L97.8692 125.976C97.8535 126.007 97.8223 126.023 97.791 126.023V126.031Z" fill="#455A64"/>
<path d="M97.4627 125.897L101.646 123.481C101.853 123.36 102.021 123.458 102.021 123.7V126.089C102.021 126.327 101.853 126.62 101.646 126.738L97.4627 129.154C97.2555 129.275 97.0874 129.177 97.0874 128.935V126.546C97.0874 126.308 97.2555 126.015 97.4627 125.897Z" fill="#BA68C8"/>
<path d="M98.6003 126.774C98.6003 126.696 98.5886 126.629 98.569 126.571C98.5456 126.512 98.5221 126.465 98.483 126.438C98.4478 126.407 98.4048 126.391 98.3501 126.391C98.2993 126.391 98.2406 126.41 98.1703 126.45C98.1038 126.489 98.0413 126.539 97.9904 126.598C97.9396 126.657 97.8966 126.727 97.8575 126.797C97.8223 126.868 97.795 126.942 97.7754 127.028C97.7559 127.106 97.7441 127.188 97.7441 127.27C97.7441 127.333 97.7441 127.4 97.7441 127.466C97.7441 127.532 97.7441 127.595 97.7441 127.65C97.7441 127.728 97.7559 127.794 97.7754 127.853C97.795 127.912 97.8223 127.955 97.8575 127.986C97.8966 128.017 97.9396 128.033 97.9904 128.033C98.0413 128.033 98.0999 128.009 98.1703 127.974C98.2015 127.955 98.2328 127.931 98.2641 127.912C98.2954 127.884 98.3227 127.857 98.3501 127.83C98.4048 127.771 98.4478 127.701 98.483 127.63C98.5221 127.556 98.5456 127.482 98.569 127.4C98.5886 127.321 98.5964 127.247 98.6003 127.169V127.157C98.6003 127.098 98.6003 127.036 98.6003 126.969C98.6003 126.903 98.6003 126.84 98.6003 126.782V126.774ZM98.1703 127.634C98.1116 127.665 98.0725 127.665 98.0413 127.634C98.0178 127.603 97.9983 127.556 97.9943 127.486C97.9943 127.458 97.9943 127.435 97.9943 127.403V127.216C97.9943 127.184 97.9943 127.157 97.9943 127.13C97.9943 127.095 98.0022 127.059 98.01 127.024C98.0178 126.989 98.0295 126.958 98.0413 126.93C98.0569 126.899 98.0725 126.872 98.096 126.848C98.1194 126.821 98.139 126.805 98.1703 126.79C98.1976 126.77 98.225 126.762 98.2485 126.762C98.268 126.762 98.2876 126.77 98.2993 126.786C98.3149 126.797 98.3266 126.817 98.3345 126.844C98.3423 126.872 98.3462 126.899 98.3462 126.934C98.3462 126.958 98.3462 126.985 98.3462 127.012V127.204C98.3462 127.235 98.3462 127.263 98.3462 127.29C98.3462 127.364 98.3266 127.431 98.2993 127.493C98.2719 127.552 98.2289 127.603 98.1703 127.638V127.634Z" fill="white"/>
<path d="M99.5817 125.933C99.5621 125.882 99.5387 125.843 99.5035 125.823C99.4761 125.804 99.4449 125.796 99.4097 125.796C99.4019 125.796 99.3901 125.796 99.3823 125.796C99.3393 125.804 99.2846 125.823 99.2259 125.855L99.1986 125.87L98.8311 126.081C98.8311 126.081 98.8115 126.097 98.8076 126.113C98.7998 126.128 98.7959 126.144 98.7959 126.156V127.524C98.7959 127.524 98.8037 127.551 98.8076 127.559C98.8154 127.567 98.8233 127.567 98.8311 127.559L99.0109 127.457C99.0109 127.457 99.0305 127.442 99.0383 127.426C99.0461 127.411 99.0461 127.395 99.0461 127.379V126.945L99.2259 126.844C99.2846 126.812 99.3354 126.769 99.3823 126.722C99.4292 126.676 99.4722 126.621 99.5035 126.562C99.5348 126.504 99.5621 126.433 99.5817 126.363C99.6012 126.292 99.6091 126.214 99.6091 126.132C99.6091 126.05 99.6012 125.984 99.5817 125.933ZM99.3159 126.429C99.2924 126.472 99.2572 126.504 99.222 126.523L99.0969 126.593L99.05 126.621V126.285L99.222 126.191C99.222 126.191 99.2494 126.175 99.265 126.175C99.2885 126.167 99.3041 126.167 99.3198 126.175C99.3432 126.183 99.3549 126.222 99.3549 126.281C99.3549 126.339 99.3432 126.39 99.3198 126.429H99.3159Z" fill="white"/>
<path d="M100.489 126.288C100.489 126.288 100.473 126.28 100.461 126.288L100.027 126.538V126.304L100.418 126.073C100.418 126.073 100.438 126.058 100.446 126.042C100.453 126.026 100.457 126.015 100.457 125.999V125.772C100.457 125.772 100.457 125.745 100.446 125.741C100.438 125.733 100.43 125.733 100.418 125.741L100.027 125.968V125.737L100.45 125.495C100.45 125.495 100.469 125.475 100.477 125.463C100.485 125.448 100.485 125.432 100.485 125.416V125.19C100.485 125.19 100.485 125.162 100.477 125.158C100.469 125.154 100.461 125.151 100.45 125.158L99.8084 125.526C99.8084 125.526 99.7888 125.545 99.781 125.557C99.7732 125.573 99.7732 125.588 99.7732 125.604V126.972C99.7732 126.972 99.7732 127 99.781 127.004C99.7888 127.011 99.7966 127.011 99.8084 127.004L100.461 126.628C100.461 126.628 100.481 126.613 100.489 126.597C100.496 126.581 100.5 126.566 100.5 126.55V126.327C100.5 126.327 100.5 126.3 100.489 126.292V126.288Z" fill="white"/>
<path d="M101.486 124.572C101.486 124.572 101.47 124.564 101.458 124.572L101.278 124.678C101.278 124.678 101.259 124.693 101.251 124.709C101.243 124.725 101.239 124.74 101.239 124.752V125.467L100.926 124.928C100.926 124.928 100.919 124.916 100.907 124.908C100.895 124.9 100.883 124.9 100.868 124.908L100.723 124.99C100.723 124.99 100.704 125.006 100.696 125.022C100.688 125.037 100.684 125.053 100.684 125.069V126.433C100.684 126.433 100.684 126.46 100.696 126.468C100.704 126.476 100.711 126.476 100.723 126.468L100.903 126.367C100.903 126.367 100.919 126.351 100.93 126.335C100.938 126.32 100.938 126.304 100.938 126.288V125.573L101.255 126.116C101.255 126.116 101.263 126.124 101.274 126.136C101.282 126.144 101.298 126.136 101.313 126.136L101.458 126.054C101.458 126.054 101.478 126.038 101.486 126.022C101.493 126.007 101.493 125.991 101.493 125.976V124.607C101.493 124.607 101.493 124.58 101.486 124.576V124.572Z" fill="white"/>
<path d="M73.4119 153.49V106.155L79.2721 109.529V156.872L73.4119 153.49Z" fill="#BA68C8"/>
<path opacity="0.3" d="M73.4119 153.49V106.155L79.2721 109.529V156.872L73.4119 153.49Z" fill="white"/>
<path d="M123.789 42.8655L129.645 46.2472V80.4549L123.789 77.0771V42.8655Z" fill="#BA68C8"/>
<path opacity="0.3" d="M123.789 42.8655L129.645 46.2472V80.4549L123.789 77.0771V42.8655Z" fill="white"/>
<path d="M147.019 36.231L141.163 32.8494L123.789 42.8654L129.645 46.2471L147.019 36.231Z" fill="#BA68C8"/>
<path opacity="0.2" d="M147.019 36.231L141.163 32.8494L123.789 42.8654L129.645 46.2471L147.019 36.231Z" fill="black"/>
<path d="M118.132 54.9187V73.1993L99.3901 84.0246V65.7401L118.132 54.9187Z" fill="#37474F"/>
<path d="M118.132 54.9187L117.596 55.2315V72.8475L118.132 73.1993V54.9187Z" fill="#455A64"/>
<path d="M99.3901 65.744V83.356L117.596 72.8474V55.2314L99.3901 65.744Z" fill="#BA68C8"/>
<path opacity="0.8" d="M99.3901 65.744V83.356L117.596 72.8474V55.2314L99.3901 65.744Z" fill="white"/>
<path opacity="0.7" d="M99.3901 72.0235V77.3599L104.574 62.7502L102.193 64.1264L99.3901 72.0235Z" fill="white"/>
<path opacity="0.7" d="M114.524 57.0029L110.305 59.4385L102.447 81.5895L106.666 79.1539L114.524 57.0029Z" fill="white"/>
<path opacity="0.7" d="M117.596 65.345V60.0085L111.877 76.1468L114.254 74.7745L117.596 65.345Z" fill="white"/>
<path opacity="0.2" d="M99.3901 65.744V68.1639L118.132 57.3465V54.9187L117.596 55.2315L99.3901 65.744Z" fill="#BA68C8"/>
<path d="M103.945 81.3934V63.1128L103.366 63.449V81.0611L103.945 81.3934Z" fill="#37474F"/>
<path d="M103.945 81.3937V63.1131L104.523 62.7808V81.0614L103.945 81.3937Z" fill="#455A64"/>
<path d="M113.359 75.9552V57.6746L112.78 58.0108V75.6229L113.359 75.9552Z" fill="#37474F"/>
<path d="M113.359 75.9557V57.6751L113.937 57.3428V75.6234L113.359 75.9557Z" fill="#455A64"/>
<path d="M92.1538 69.9189V88.1995L73.4119 99.0248V80.7403L92.1538 69.9189Z" fill="#37474F"/>
<path d="M92.1538 69.9189L91.6182 70.2317V87.8477L92.1538 88.1995V69.9189Z" fill="#455A64"/>
<path d="M73.4119 80.744V98.356L91.6182 87.8474V70.2314L73.4119 80.744Z" fill="#BA68C8"/>
<path opacity="0.8" d="M73.4119 80.744V98.356L91.6182 87.8474V70.2314L73.4119 80.744Z" fill="white"/>
<path opacity="0.7" d="M73.4119 87.0232V92.3596L78.5958 77.75L76.2149 79.1261L73.4119 87.0232Z" fill="white"/>
<path opacity="0.7" d="M88.5453 72.0032L84.327 74.4388L76.469 96.5897L80.6873 94.1541L88.5453 72.0032Z" fill="white"/>
<path opacity="0.7" d="M91.6182 80.3462V75.0098L85.8987 91.148L88.2756 89.7758L91.6182 80.3462Z" fill="white"/>
<path opacity="0.2" d="M73.4119 80.7442V83.1642L92.1538 72.3467V69.9189L91.6182 70.2317L73.4119 80.7442Z" fill="#BA68C8"/>
<path d="M77.9663 96.3929V78.1123L77.3877 78.4485V96.0606L77.9663 96.3929Z" fill="#37474F"/>
<path d="M77.9663 96.3924V78.1118L78.5449 77.7795V96.0601L77.9663 96.3924Z" fill="#455A64"/>
<path d="M87.3804 90.9544V72.6738L86.8018 73.01V90.6221L87.3804 90.9544Z" fill="#37474F"/>
<path d="M87.3804 90.9545V72.6739L87.959 72.3416V90.6222L87.3804 90.9545Z" fill="#455A64"/>
<path d="M17.4285 54.9177V73.1983L36.1704 84.0236V65.7391L17.4285 54.9177Z" fill="#37474F"/>
<path d="M17.4285 54.9177L17.968 55.2305V72.8465L17.4285 73.1983V54.9177Z" fill="#455A64"/>
<path d="M36.1704 65.7432V83.3553L17.968 72.8467V55.2307L36.1704 65.7432Z" fill="#BA68C8"/>
<path opacity="0.5" d="M36.1704 65.7432V83.3553L17.968 72.8467V55.2307L36.1704 65.7432Z" fill="white"/>
<path opacity="0.7" d="M36.1705 72.0227V77.3591L30.9905 62.7495L33.3713 64.1256L36.1705 72.0227Z" fill="white"/>
<path opacity="0.7" d="M21.0369 57.0027L25.2552 59.4383L33.1132 81.5892L28.8949 79.1536L21.0369 57.0027Z" fill="white"/>
<path opacity="0.7" d="M17.968 65.345V60.0085L23.6875 76.1468L21.3106 74.7745L17.968 65.345Z" fill="white"/>
<path opacity="0.2" d="M36.1704 65.743V68.1629L17.4285 57.3455V54.9177L17.968 55.2305L36.1704 65.743Z" fill="#BA68C8"/>
<path d="M31.6199 81.3936V63.113L32.1946 63.4493V81.0613L31.6199 81.3936Z" fill="#37474F"/>
<path d="M31.6199 81.3937V63.1131L31.0413 62.7808V81.0614L31.6199 81.3937Z" fill="#455A64"/>
<path d="M22.2019 75.9547V57.6741L22.7805 58.0103V75.6224L22.2019 75.9547Z" fill="#37474F"/>
<path d="M22.2019 75.9545V57.6739L21.6272 57.3416V75.6221L22.2019 75.9545Z" fill="#455A64"/>
<path d="M43.4067 69.9202V88.2008L62.1487 99.026V80.7415L43.4067 69.9202Z" fill="#37474F"/>
<path d="M43.4067 69.9202L43.9462 70.2329V87.8489L43.4067 88.2008V69.9202Z" fill="#455A64"/>
<path d="M62.1487 80.7452V98.3573L43.9463 87.8487V70.2327L62.1487 80.7452Z" fill="#BA68C8"/>
<path opacity="0.5" d="M62.1487 80.7452V98.3573L43.9463 87.8487V70.2327L62.1487 80.7452Z" fill="white"/>
<path opacity="0.7" d="M62.1488 87.0227V92.3591L56.9688 77.7495L59.3496 79.1256L62.1488 87.0227Z" fill="white"/>
<path opacity="0.7" d="M47.0151 72.0024L51.2334 74.438L59.0914 96.589L54.8731 94.1534L47.0151 72.0024Z" fill="white"/>
<path opacity="0.7" d="M43.9463 80.3457V75.0093L49.6658 91.1475L47.2889 89.7753L43.9463 80.3457Z" fill="white"/>
<path opacity="0.2" d="M62.1487 80.7454V83.1654L43.4067 72.3479V69.9202L43.9462 70.2329L62.1487 80.7454Z" fill="#BA68C8"/>
<path d="M57.5981 96.3924V78.1118L58.1728 78.448V96.0601L57.5981 96.3924Z" fill="#37474F"/>
<path d="M57.5981 96.392V78.1114L57.0195 77.7791V96.0596L57.5981 96.392Z" fill="#455A64"/>
<path d="M48.1802 90.9554V72.6748L48.7588 73.011V90.6231L48.1802 90.9554Z" fill="#37474F"/>
<path d="M48.1802 90.9557V72.6751L47.6055 72.3428V90.6234L48.1802 90.9557Z" fill="#455A64"/>
<path d="M17.4285 91.3848V109.669L36.1704 120.491V102.21L17.4285 91.3848Z" fill="#37474F"/>
<path d="M17.4285 91.3848L17.968 91.6975V109.314L17.4285 109.669V91.3848Z" fill="#455A64"/>
<path d="M36.1704 102.211V119.823L17.968 109.314V91.6982L36.1704 102.211Z" fill="#BA68C8"/>
<path opacity="0.5" d="M36.1704 102.211V119.823L17.968 109.314V91.6982L36.1704 102.211Z" fill="white"/>
<path opacity="0.7" d="M36.1705 108.489V113.825L30.9905 99.2195L33.3713 100.592L36.1705 108.489Z" fill="white"/>
<path opacity="0.7" d="M21.0369 93.469L25.2552 95.9085L33.1132 118.059L28.8949 115.624L21.0369 93.469Z" fill="white"/>
<path opacity="0.7" d="M17.968 101.812V96.48L23.6875 112.618L21.3106 111.242L17.968 101.812Z" fill="white"/>
<path opacity="0.2" d="M36.1704 102.21V104.634L17.4285 93.8125V91.3848L17.968 91.6975L36.1704 102.21Z" fill="#BA68C8"/>
<path d="M31.6199 117.865V99.5808L32.1946 99.917V117.529L31.6199 117.865Z" fill="#37474F"/>
<path d="M31.6199 117.865V99.5803L31.0413 99.248V117.529L31.6199 117.865Z" fill="#455A64"/>
<path d="M22.2019 112.426V94.1411L22.7805 94.4773V112.089L22.2019 112.426Z" fill="#37474F"/>
<path d="M22.2019 112.426V94.1414L21.6272 93.8091V112.09L22.2019 112.426Z" fill="#455A64"/>
<path d="M43.4067 106.385V124.67L62.1487 135.491V117.211L43.4067 106.385Z" fill="#37474F"/>
<path d="M43.4067 106.385L43.9462 106.698V124.314L43.4067 124.67V106.385Z" fill="#455A64"/>
<path d="M62.1487 117.211V134.823L43.9463 124.314V106.698L62.1487 117.211Z" fill="#BA68C8"/>
<path opacity="0.5" d="M62.1487 117.211V134.823L43.9463 124.314V106.698L62.1487 117.211Z" fill="white"/>
<path opacity="0.7" d="M62.1488 123.492V128.828L56.9688 114.222L59.3496 115.595L62.1488 123.492Z" fill="white"/>
<path opacity="0.7" d="M47.0151 108.471L51.2334 110.91L59.0914 133.061L54.8731 130.626L47.0151 108.471Z" fill="white"/>
<path opacity="0.7" d="M43.9463 116.814V111.481L49.6658 127.619L47.2889 126.243L43.9463 116.814Z" fill="white"/>
<path opacity="0.2" d="M62.1487 117.211V119.634L43.4067 108.813V106.385L43.9462 106.698L62.1487 117.211Z" fill="#BA68C8"/>
<path d="M57.5981 132.864V114.58L58.1728 114.916V132.528L57.5981 132.864Z" fill="#37474F"/>
<path d="M57.5981 132.865V114.58L57.0195 114.248V132.529L57.5981 132.865Z" fill="#455A64"/>
<path d="M48.1802 127.427V109.143L48.7588 109.479V127.091L48.1802 127.427Z" fill="#37474F"/>
<path d="M48.1802 127.427V109.142L47.6055 108.81V127.091L48.1802 127.427Z" fill="#455A64"/>
<path d="M106.14 104.584V101.66L107.108 101.015C107.587 100.695 107.88 100.8 107.88 101.288C107.88 101.612 107.761 101.924 107.531 102.193C107.787 102.122 107.917 102.268 107.917 102.608C107.917 103.108 107.627 103.593 107.125 103.928L106.14 104.584ZM107.072 101.491L106.566 101.828V102.624L107.082 102.281C107.315 102.125 107.444 101.891 107.444 101.631C107.444 101.379 107.311 101.331 107.072 101.491ZM107.108 102.695L106.566 103.056V103.848L107.108 103.487C107.348 103.327 107.481 103.098 107.481 102.834C107.481 102.586 107.345 102.537 107.108 102.695ZM108.168 101.124C108.168 100.612 108.521 100.021 109.033 99.6795C109.526 99.3511 109.839 99.4705 109.852 99.9897L109.426 100.274C109.416 100.028 109.266 99.9802 109.026 100.14C108.764 100.315 108.594 100.58 108.594 100.824C108.594 101.032 108.687 101.086 108.89 101.007L109.273 100.852C109.689 100.682 109.892 100.803 109.892 101.239C109.892 101.783 109.539 102.37 109.003 102.727C108.484 103.074 108.145 102.968 108.135 102.451L108.561 102.167C108.564 102.412 108.73 102.449 109.003 102.267C109.286 102.079 109.466 101.811 109.466 101.567C109.466 101.371 109.383 101.311 109.183 101.392L108.797 101.545C108.384 101.712 108.168 101.572 108.168 101.124ZM111.608 99.7426L110.703 100.346V101.542L110.277 101.826V98.9021L111.782 97.8992V98.3712L110.703 99.0901V99.8861L111.608 99.2826V99.7426ZM112.592 97.3592V100.283L112.166 100.567V97.6432L112.592 97.3592Z" fill="#263238"/>
</g>
<defs>
<clipPath id="clip0_1_16019">
<rect width="186" height="186.317" fill="white" transform="translate(0 0.807617)"/>
</clipPath>
</defs>
</svg>
