<svg width="210" height="208" viewBox="0 0 210 208" fill="none" xmlns="http://www.w3.org/2000/svg">
<path d="M209.788 192.583H0V194.256H209.788V192.583Z" fill="black"/>
<path d="M168.377 13.6625V86.6395C168.377 93.5241 163.055 99.1695 156.295 99.672C155.971 99.6996 155.641 99.7065 155.303 99.7065C148.081 99.7065 142.229 93.8545 142.229 86.6395V13.6625C142.229 6.44055 148.081 0.588623 155.303 0.588623C157.541 0.588623 159.654 1.15316 161.493 2.14455C162.622 2.75039 163.648 3.51458 164.543 4.41647C166.911 6.78478 168.37 10.0481 168.37 13.6625H168.377Z" fill="#E3E3E3"/>
<path d="M156.501 59.4016C155.338 61.5358 154.512 64.1176 155.414 66.3757C156.474 69.047 159.455 70.2862 161.954 71.7044C164.37 73.0814 166.546 74.8713 168.377 76.9643V86.6303C168.377 93.8454 162.525 99.6973 155.31 99.6973C148.095 99.6973 142.236 93.8454 142.236 86.6303V48.1728C143.606 47.5532 145.149 47.3122 146.732 47.567C148.494 47.8492 150.45 48.6616 151.937 47.6771C153.369 46.7339 153.458 44.6823 153.279 42.9749C153.114 41.4052 152.852 39.8493 152.508 38.3071C152.205 36.9715 151.827 35.6428 151.758 34.2796C151.517 29.7978 154.808 25.5568 159.021 24.0147C160.963 23.3056 163.083 23.0715 164.921 22.1352C166.759 21.1989 167.765 19.939 168.384 18.4519V36.9715C167.351 37.0748 166.291 37.481 165.417 37.9285C163.2 39.0576 161.396 41.0679 160.722 43.4844C159.868 46.5343 160.653 49.8595 159.833 52.9232C159.2 55.2708 157.679 57.2605 156.508 59.3947L156.501 59.4016Z" fill="#70CD28"/>
<path d="M160.508 90.954C160.074 94.2035 158.567 97.3016 156.302 99.6699C155.978 99.6975 155.648 99.7043 155.31 99.7043C148.088 99.7043 142.236 93.8524 142.236 86.6373V59.2159C142.367 59.209 142.505 59.2021 142.642 59.2021C144.701 59.2021 146.732 60.2761 147.854 61.9973C149.341 64.2968 149.107 67.2916 150.009 69.8802C151.414 73.8939 155.324 76.4206 157.782 79.8904C160.033 83.0642 161.024 87.0986 160.508 90.954Z" fill="#413637"/>
<path d="M161.728 6.82369C161.129 10.0732 158.637 12.6825 155.388 13.2608C153.797 13.5431 152.138 13.5844 150.672 14.2591C147.821 15.5603 146.431 19.1265 147.119 22.1833C147.298 22.9819 147.601 23.7598 147.67 24.5722C147.739 25.3846 147.525 26.2934 146.871 26.7822C146.575 27.0025 146.217 27.1195 145.887 27.2779C144.179 28.0972 143.236 29.9422 142.596 31.7185C142.472 32.0627 142.355 32.4138 142.245 32.758V13.6532C142.245 6.43127 148.097 0.579346 155.319 0.579346C157.556 0.579346 159.67 1.14389 161.508 2.13527C162.038 3.60169 161.969 5.5225 161.735 6.80992L161.728 6.82369Z" fill="#E6E6E6"/>
<path d="M155.31 0.587158C154.925 0.587158 154.539 0.607813 154.161 0.642236C160.839 1.22743 166.085 6.8315 166.085 13.661V86.638C166.085 93.4675 160.846 99.0716 154.161 99.6568C154.539 99.6912 154.925 99.7119 155.31 99.7119C162.532 99.7119 168.384 93.8599 168.384 86.638V13.661C168.384 6.43908 162.532 0.587158 155.31 0.587158Z" fill="#232323"/>
<path d="M153.761 20.1326C153.761 20.5112 153.451 20.821 153.073 20.821C152.694 20.821 152.384 20.5112 152.384 20.1326C152.384 19.7539 152.694 19.4441 153.073 19.4441C153.451 19.4441 153.761 19.7539 153.761 20.1326Z" fill="black"/>
<path d="M157.541 20.821C157.921 20.821 158.229 20.5128 158.229 20.1326C158.229 19.7523 157.921 19.4441 157.541 19.4441C157.161 19.4441 156.852 19.7523 156.852 20.1326C156.852 20.5128 157.161 20.821 157.541 20.821Z" fill="black"/>
<path d="M153.761 23.9194C153.761 24.2981 153.451 24.6079 153.073 24.6079C152.694 24.6079 152.384 24.2981 152.384 23.9194C152.384 23.5408 152.694 23.231 153.073 23.231C153.451 23.231 153.761 23.5408 153.761 23.9194Z" fill="black"/>
<path d="M157.541 24.6079C157.921 24.6079 158.229 24.2996 158.229 23.9194C158.229 23.5392 157.921 23.231 157.541 23.231C157.161 23.231 156.852 23.5392 156.852 23.9194C156.852 24.2996 157.161 24.6079 157.541 24.6079Z" fill="black"/>
<path d="M153.761 76.3804C153.761 76.759 153.451 77.0688 153.073 77.0688C152.694 77.0688 152.384 76.759 152.384 76.3804C152.384 76.0017 152.694 75.6919 153.073 75.6919C153.451 75.6919 153.761 76.0017 153.761 76.3804Z" fill="black"/>
<path d="M157.541 77.0688C157.921 77.0688 158.229 76.7606 158.229 76.3804C158.229 76.0001 157.921 75.6919 157.541 75.6919C157.161 75.6919 156.853 76.0001 156.853 76.3804C156.853 76.7606 157.161 77.0688 157.541 77.0688Z" fill="black"/>
<path d="M153.761 80.1601C153.761 80.5388 153.451 80.8486 153.073 80.8486C152.694 80.8486 152.384 80.5388 152.384 80.1601C152.384 79.7815 152.694 79.4717 153.073 79.4717C153.451 79.4717 153.761 79.7815 153.761 80.1601Z" fill="black"/>
<path d="M157.541 80.8486C157.921 80.8486 158.229 80.5404 158.229 80.1601C158.229 79.7799 157.921 79.4717 157.541 79.4717C157.161 79.4717 156.853 79.7799 156.853 80.1601C156.853 80.5404 157.161 80.8486 157.541 80.8486Z" fill="black"/>
<path d="M203.255 50.1509C203.255 50.805 203.255 51.4521 203.248 52.0993C203.227 53.7654 203.186 55.4108 203.124 57.0287C202.993 60.2851 202.773 63.4451 202.47 66.4675C200.549 85.827 195.296 99.7133 189.114 99.7133C185.995 99.7133 183.11 96.1746 180.776 90.185C179.475 86.846 178.339 82.7565 177.43 78.0818C177.369 77.7514 177.3 77.414 177.238 77.0698C176.391 72.4984 175.758 67.4107 175.379 61.9649C175.289 60.65 175.214 59.3213 175.152 57.9719C175.035 55.4246 174.973 52.8153 174.973 50.1509C174.973 47.9134 175.014 45.7104 175.097 43.5486C175.22 40.2509 175.441 37.0633 175.737 34.0065C175.909 32.244 176.115 30.516 176.336 28.8499C176.487 27.7209 176.653 26.6262 176.832 25.5453C177.169 23.4662 177.554 21.4903 177.974 19.6177C178.594 16.85 179.289 14.3165 180.06 12.0721C181.189 8.7675 182.47 6.06873 183.861 4.12727C185.486 1.84846 187.255 0.595459 189.114 0.595459C193.224 0.595459 196.928 6.74342 199.509 16.554C200.873 21.7312 201.926 27.9274 202.559 34.7776C202.642 35.6932 202.725 36.6158 202.793 37.5452C203.096 41.5658 203.255 45.793 203.255 50.1509Z" fill="#70CD28"/>
<path d="M202.793 37.5426C202.608 37.5702 202.415 37.5564 202.243 37.4807C201.864 37.3292 201.616 36.9643 201.403 36.6201C199.303 33.2948 197.499 29.6047 194.312 27.2983C191.014 24.9094 186.436 24.4137 182.704 26.0522C181.189 26.7132 179.826 27.6908 178.332 28.393C177.713 28.6821 177.045 28.93 176.37 28.8543C176.363 28.8543 176.356 28.8543 176.35 28.8543C176.501 27.7252 176.666 26.6305 176.845 25.5496C177.183 23.4705 177.568 21.4946 177.988 19.622C179.055 19.0093 179.992 18.2657 180.914 17.3432C182.635 15.622 184.329 13.6737 186.656 12.9646C188.301 12.462 190.14 12.6616 191.64 13.5016C192.845 14.1831 193.809 15.2365 195.014 15.9112C196.37 16.6685 198.002 16.8819 199.516 16.5515C200.88 21.7287 201.933 27.9248 202.566 34.775C202.649 35.6907 202.731 36.6132 202.8 37.5426H202.793Z" fill="url(#paint0_radial_1_12803)"/>
<path d="M190.656 63.1878C190.029 66.3685 188.246 69.2325 186.009 71.5801C183.771 73.9278 181.086 75.7935 178.36 77.5422C178.064 77.7281 177.754 77.9208 177.43 78.0792C177.368 77.7487 177.3 77.4114 177.238 77.0672C176.391 72.4958 175.757 67.408 175.379 61.9623C175.289 60.6473 175.214 59.3186 175.152 57.9692C175.634 58.5682 176.081 59.2153 176.508 59.5871C177.795 60.7162 179.269 61.6318 180.845 62.3065C182.422 62.9812 184.102 63.4081 185.809 63.5595C186.332 63.6077 190.539 63.7798 190.663 63.1878H190.656Z" fill="#70CD28"/>
<path d="M203.248 52.0891C203.227 53.7552 203.186 55.4006 203.124 57.0185C202.993 60.2749 202.773 63.435 202.47 66.4573C202.332 66.5812 202.195 66.7052 202.05 66.8222C199.813 68.7017 197.189 70.058 194.525 71.2628C190.67 73.0115 186.319 74.8152 184.604 78.6844C184.054 79.9167 183.847 81.3832 184.418 82.6017C184.99 83.8203 186.525 84.6258 187.758 84.075C188.625 83.6895 189.148 82.7256 189.19 81.7756C189.231 80.8255 188.852 79.8961 188.322 79.1112C190.718 78.7257 193.093 80.7911 193.437 83.1938C193.782 85.5965 192.384 88.0406 190.346 89.3624C188.308 90.6843 185.747 91.0147 183.338 90.7462C182.47 90.6498 181.596 90.4777 180.777 90.1748C179.379 86.6017 178.181 82.1542 177.238 77.0596C177.747 76.1302 178.36 75.2627 179.055 74.471C180.873 72.3987 183.172 70.8222 185.148 68.9082C187.124 66.9874 188.832 64.5434 188.921 61.7964C194.415 59.9789 198.594 55.5934 203.22 52.1167C203.227 52.1167 203.234 52.1029 203.241 52.096L203.248 52.0891Z" fill="url(#paint1_radial_1_12803)"/>
<path d="M203.255 50.1482C203.255 52.4821 203.207 54.7747 203.117 57.0259C202.243 58.3615 201.21 59.5939 200.06 60.6817C197.134 63.4493 193.417 65.4045 189.444 66.0517C185.472 66.6919 181.258 65.9759 177.816 63.883C176.935 63.346 176.095 62.7126 175.379 61.9691C175.117 58.1826 174.973 54.2239 174.973 50.1551C174.973 47.9176 175.014 45.7145 175.097 43.5527C175.22 40.255 175.441 37.0674 175.737 34.0107C176.026 31.0572 176.398 28.2207 176.832 25.5495C178.36 24.4204 180.191 23.6769 182.002 23.3533C185.506 22.7337 189.141 23.491 192.425 24.861C195.647 26.2035 198.704 28.1932 200.659 31.0847C201.437 32.2344 202.022 33.4943 202.559 34.7749C203.014 39.6147 203.255 44.7782 203.255 50.1482Z" fill="#E3E3E3"/>
<path d="M197.41 51.4289C195.847 54.947 193.024 58.0588 189.341 59.1741C185.665 60.2894 181.162 58.9814 179.262 55.6423C178.133 53.6664 178.002 51.2293 178.505 49.0055C178.869 47.3877 179.613 45.7904 180.914 44.7646C182.215 43.7388 184.157 43.4221 185.554 44.324C187.138 45.3498 187.53 47.4772 187.517 49.3635C188.329 48.1863 188.969 46.8507 189.093 45.4324C189.217 44.0073 188.749 42.4927 187.661 41.5701C186.684 40.7509 185.355 40.4962 184.074 40.4548C180.845 40.3516 177.596 41.4944 175.097 43.5391C175.221 40.2414 175.441 37.0538 175.737 33.9971C175.847 33.9145 175.957 33.8318 176.061 33.7561C178.153 32.1795 180.701 31.2226 183.283 30.8301C185.203 30.5341 187.186 30.5066 189.079 30.9609C193.162 31.9454 196.529 35.2156 197.995 39.1537C199.461 43.0917 199.11 47.5873 197.403 51.4289H197.41Z" fill="#E6E6E6"/>
<path d="M184.646 10.9605C183.393 11.5526 181.561 12.1446 180.067 12.062C181.196 8.75741 182.477 6.05864 183.868 4.11717C183.985 4.09652 184.109 4.07587 184.226 4.0621C185.472 3.91752 186.883 4.26864 187.544 5.12921C187.84 5.52164 187.971 5.98291 187.998 6.43729C188.109 8.28237 186.622 10.0242 184.653 10.9605H184.646Z" fill="url(#paint2_radial_1_12803)"/>
<path d="M202.56 34.775C200.714 14.9335 195.393 0.585938 189.114 0.585938C188.735 0.585938 188.363 0.641015 187.999 0.7374C193.782 2.32775 198.594 16.1176 200.329 34.7681C200.783 39.6079 201.024 44.7714 201.024 50.1414C201.024 50.7955 201.024 51.4426 201.017 52.0898C200.997 53.7558 200.955 55.4013 200.893 57.0191C200.763 60.2756 200.542 63.4356 200.239 66.458C198.436 84.6333 193.692 97.9895 188.005 99.5523C188.377 99.6556 188.749 99.7038 189.121 99.7038C195.296 99.7038 200.549 85.8175 202.477 66.458C202.78 63.4356 203 60.2756 203.131 57.0191C203.193 55.4013 203.234 53.7558 203.255 52.0898C203.255 51.4426 203.262 50.7955 203.262 50.1414C203.262 44.7714 203.021 39.6079 202.566 34.7681L202.56 34.775Z" fill="black"/>
<path d="M187.572 20.1323C187.572 20.511 187.262 20.8208 186.883 20.8208C186.504 20.8208 186.195 20.511 186.195 20.1323C186.195 19.7537 186.504 19.4438 186.883 19.4438C187.262 19.4438 187.572 19.7537 187.572 20.1323Z" fill="black"/>
<path d="M192.04 20.1323C192.04 20.511 191.73 20.8208 191.351 20.8208C190.972 20.8208 190.663 20.511 190.663 20.1323C190.663 19.7537 190.972 19.4438 191.351 19.4438C191.73 19.4438 192.04 19.7537 192.04 20.1323Z" fill="black"/>
<path d="M187.572 23.9192C187.572 24.2978 187.262 24.6076 186.883 24.6076C186.504 24.6076 186.195 24.2978 186.195 23.9192C186.195 23.5405 186.504 23.2307 186.883 23.2307C187.262 23.2307 187.572 23.5405 187.572 23.9192Z" fill="black"/>
<path d="M192.04 23.9192C192.04 24.2978 191.73 24.6076 191.351 24.6076C190.972 24.6076 190.663 24.2978 190.663 23.9192C190.663 23.5405 190.972 23.2307 191.351 23.2307C191.73 23.2307 192.04 23.5405 192.04 23.9192Z" fill="black"/>
<path d="M186.883 77.0691C187.263 77.0691 187.572 76.7608 187.572 76.3806C187.572 76.0004 187.263 75.6921 186.883 75.6921C186.503 75.6921 186.195 76.0004 186.195 76.3806C186.195 76.7608 186.503 77.0691 186.883 77.0691Z" fill="black"/>
<path d="M192.04 76.3806C192.04 76.7593 191.73 77.0691 191.351 77.0691C190.972 77.0691 190.663 76.7593 190.663 76.3806C190.663 76.0019 190.972 75.6921 191.351 75.6921C191.73 75.6921 192.04 76.0019 192.04 76.3806Z" fill="black"/>
<path d="M187.572 80.1604C187.572 80.539 187.262 80.8488 186.883 80.8488C186.504 80.8488 186.195 80.539 186.195 80.1604C186.195 79.7817 186.504 79.4719 186.883 79.4719C187.262 79.4719 187.572 79.7817 187.572 80.1604Z" fill="black"/>
<path d="M192.04 80.1601C192.04 80.5388 191.73 80.8486 191.351 80.8486C190.972 80.8486 190.663 80.5388 190.663 80.1601C190.663 79.7815 190.972 79.4717 191.351 79.4717C191.73 79.4717 192.04 79.7815 192.04 80.1601Z" fill="black"/>
<path d="M132.584 51.6969C132.584 53.6452 131.008 55.2287 129.059 55.2287C127.111 55.2287 125.527 53.6452 125.527 51.6969C125.527 51.4284 125.555 51.1736 125.61 50.9258C125.961 49.3492 127.372 48.165 129.052 48.165C130.732 48.165 132.143 49.3423 132.495 50.9258C132.55 51.1736 132.577 51.4284 132.577 51.6969H132.584Z" fill="#231F20"/>
<path d="M132.584 51.6969C132.584 53.6452 131.008 55.2287 129.059 55.2287C127.111 55.2287 125.527 53.6452 125.527 51.6969C125.527 51.4284 125.555 51.1736 125.61 50.9258H132.495C132.55 51.1736 132.577 51.4284 132.577 51.6969H132.584Z" fill="black"/>
<path d="M134.044 97.7273H124.068V108.226H134.044V97.7273Z" fill="#231F20"/>
<path d="M134.044 97.7273H124.068V102.326H134.044V97.7273Z" fill="black"/>
<path d="M95.0767 51.5457H163.035C164.185 51.5457 165.114 52.4751 165.114 53.6248V98.8843C165.114 100.034 164.185 100.963 163.035 100.963H95.0767C93.927 100.963 92.9976 100.034 92.9976 98.8843V53.6248C92.9976 52.4751 93.927 51.5457 95.0767 51.5457Z" fill="black"/>
<path d="M163.73 98.8843V53.6248C163.73 53.2408 163.419 52.9294 163.035 52.9294L95.0767 52.9294C94.6927 52.9294 94.3814 53.2408 94.3814 53.6248V98.8843C94.3814 99.2683 94.6927 99.5796 95.0767 99.5796H163.035C163.419 99.5796 163.73 99.2683 163.73 98.8843Z" fill="#E3E3E3"/>
<path d="M137.334 57.3228C136.997 56.8133 136.419 56.4966 135.854 56.4897C135.248 56.4828 135.056 56.5517 134.615 55.994C134.346 55.6567 133.734 55.3607 133.334 55.457C133.197 55.4915 133.073 55.5534 132.935 55.5741C132.612 55.6223 132.309 55.4089 131.999 55.2918C131.469 55.0922 130.856 55.1817 130.402 55.5328C130.216 55.6705 130.057 55.8495 129.878 55.994C129.472 56.3176 128.97 56.4691 128.515 56.6963C128.054 56.9235 127.6 57.2883 127.462 57.8185C127.379 58.1352 127.421 58.4725 127.359 58.7892C127.221 59.4914 126.622 60.0284 126.574 60.7444C126.546 61.1024 126.663 61.4535 126.691 61.8184C126.746 62.6102 126.374 63.512 126.794 64.1592C127.09 64.6136 127.696 64.7582 127.951 65.2401C128.054 65.4328 128.088 65.66 128.192 65.8528C128.495 66.438 129.238 66.4862 129.837 66.3692C130.243 66.2865 130.643 66.1695 131.035 66.0043C131.255 65.9148 131.482 65.8115 131.71 65.8597C132.04 65.9354 132.24 66.3141 132.55 66.4518C132.956 66.6377 133.424 66.3829 133.858 66.4931C134.367 66.6239 134.739 67.2504 135.262 67.2228C135.579 67.2022 135.834 66.9406 136.061 66.6927C136.439 66.2797 136.818 65.8666 137.197 65.4466C137.369 65.2607 137.541 65.0749 137.644 64.8339C137.761 64.5792 137.796 64.2969 137.851 64.0146C138.037 63.1472 138.477 62.259 138.223 61.4122C138.105 61.0336 137.865 60.7238 137.706 60.3658C137.534 59.9665 137.465 59.5121 137.52 59.0715C137.555 58.803 137.63 58.5413 137.63 58.2728C137.63 57.9217 137.513 57.5844 137.328 57.3021L137.334 57.3228Z" fill="#752B31"/>
<path d="M121.686 81.6198L120.653 84.408C120.55 84.6972 120.44 84.9863 120.323 85.2617C118.071 90.7625 114.106 94.019 111.414 91.451C109.073 89.2204 105.576 81.6473 104.426 79.0725C104.302 78.9416 104.178 78.8108 104.054 78.6731C102.601 77.0897 101.156 75.4993 99.7031 73.9159C99.4621 73.6543 98.6979 72.5045 99.0284 72.1534C99.5723 71.5751 101.844 74.0398 102.202 74.4116C101.445 73.3169 100.688 72.2154 99.9303 71.1207C99.7306 70.8384 99.531 70.5424 99.4759 70.2051C99.4139 69.8677 99.5378 69.4684 99.8408 69.317C100.336 69.0691 100.867 69.551 101.211 69.9779C102.058 71.0381 102.898 72.1052 103.744 73.1655C103.138 71.9331 102.498 70.7145 102.058 69.4133C101.92 69.0071 101.417 67.7886 101.707 67.3961C102.312 66.5631 103.276 68.1328 103.49 68.5803C104.171 69.9985 104.86 71.4168 105.541 72.8419C105.156 71.2515 104.908 69.6336 104.805 68.0089C104.777 67.5545 104.825 66.9831 105.245 66.8178C105.824 66.5906 106.271 67.3548 106.422 67.9607C106.911 69.9848 107.304 72.0295 107.593 74.088C107.854 73.1586 108.309 72.2773 108.908 71.5131C109.039 71.3479 109.19 71.1827 109.397 71.1483C109.934 71.0656 110.113 71.8436 110.016 72.3737C109.762 73.7782 109.176 75.1 108.901 76.5045C108.894 76.532 108.887 76.5665 108.887 76.6009L113.631 85.3306L114.526 83.3891L115.379 81.5234L121.693 81.6129L121.686 81.6198Z" fill="#FDD292"/>
<path d="M121.686 81.6188L120.653 84.4071C120.55 84.6963 120.44 84.9854 120.323 85.2608C117.403 84.8684 115.545 83.9734 114.519 83.3882L115.372 81.5225L121.686 81.612V81.6188Z" fill="black"/>
<path d="M142.223 84.9989C142.787 87.6908 143.675 96.4549 143.978 99.5874H150.071C149.748 95.7527 148.667 87.5049 147.999 84.0282C147.62 82.0661 147.345 80.7373 147.345 80.7373L140.563 80.2485C140.563 80.2485 141.176 81.1642 141.775 83.1951C141.934 83.7184 142.085 84.3173 142.23 84.9989H142.223Z" fill="#FDD292"/>
<path d="M147.999 84.0282C145.114 84.5445 142.973 83.8148 141.775 83.1952C141.176 81.1642 140.563 80.2485 140.563 80.2485L147.345 80.7373C147.345 80.7373 147.62 82.073 147.999 84.0282Z" fill="black"/>
<path d="M149.259 81.9835C149.259 81.9835 146.883 82.7683 144.536 82.8716C143.4 82.9198 142.278 82.8165 141.424 82.3828C138.815 81.0541 136.178 69.8528 136.178 69.8528C136.178 69.8528 136.673 69.9423 137.472 70.1901H137.479C140.357 71.0782 147.152 73.9698 149.252 81.9835H149.259Z" fill="white"/>
<g style="mix-blend-mode:multiply" opacity="0.3">
<path d="M144.536 82.8716C143.4 82.9198 142.278 82.8165 141.424 82.3828C138.815 81.0541 136.178 69.8528 136.178 69.8528C136.178 69.8528 136.673 69.9423 137.472 70.1901H137.479C138.904 70.8648 140.832 72.2968 142.353 75.3329C143.641 77.894 144.247 80.6616 144.529 82.8716H144.536Z" fill="#368CAD"/>
</g>
<path d="M113.479 82.4653C113.479 82.4653 115.82 83.3466 118.161 83.5531C119.29 83.6495 120.419 83.5875 121.286 83.1951C123.944 81.9765 127.049 70.8992 127.049 70.8992C127.049 70.8992 126.553 70.968 125.741 71.1814H125.734C122.822 71.9456 115.91 74.5549 113.479 82.4722V82.4653Z" fill="white"/>
<g style="mix-blend-mode:multiply" opacity="0.3">
<path d="M118.161 83.5463C119.29 83.6427 120.419 83.5807 121.286 83.1883C123.944 81.9697 127.049 70.8923 127.049 70.8923C127.049 70.8923 126.553 70.9612 125.741 71.1746H125.734C124.288 71.7873 122.298 73.1436 120.646 76.104C119.255 78.61 118.532 81.3432 118.161 83.5463Z" fill="#368CAD"/>
</g>
<path d="M142.904 99.5802C143.021 95.0984 143.29 79.2431 141.507 75.1812C139.42 70.4377 135.042 69.4463 135.042 69.4463L129.975 69.8387C129.975 69.8387 124.095 70.8714 121.417 77.2397C119.338 82.1828 118.656 94.3617 118.457 99.5734H142.918L142.904 99.5802Z" fill="white"/>
<path d="M128.46 64.8143C128.137 64.8624 127.792 64.711 127.489 64.47C126.842 63.9468 126.402 62.9761 126.801 62.5836C127.049 62.3358 127.338 62.3565 127.586 62.4528C127.916 62.5836 128.178 62.8659 128.178 62.8659L128.453 64.8143H128.46Z" fill="#FDD292"/>
<path d="M128.46 64.8133C128.136 64.8615 127.792 64.7101 127.489 64.4691C127.434 63.7462 127.524 62.9269 127.586 62.4519C127.916 62.5827 128.178 62.865 128.178 62.865L128.453 64.8133H128.46Z" fill="black"/>
<path d="M136.563 64.6897C136.894 64.7242 137.231 64.5658 137.52 64.3111C138.154 63.7672 138.56 62.7827 138.147 62.4041C137.892 62.17 137.603 62.1906 137.355 62.3008C137.025 62.4385 136.777 62.7276 136.777 62.7276L136.563 64.6829V64.6897Z" fill="#FDD292"/>
<path d="M136.563 64.6897C136.894 64.7242 137.231 64.5658 137.52 64.3111C137.555 63.5882 137.438 62.7689 137.362 62.3008C137.032 62.4385 136.784 62.7276 136.784 62.7276L136.57 64.6829L136.563 64.6897Z" fill="black"/>
<path d="M135.008 70.9887C132.274 73.2193 129.011 71.0851 129.011 71.0851L129.459 68.1729L129.686 66.6927L134.429 66.6169L134.815 69.5291L135.008 70.9887Z" fill="#FDD292"/>
<path d="M134.815 69.536C132.467 70.1006 130.546 69.0266 129.458 68.1729L129.686 66.6927L134.429 66.6169L134.815 69.5291V69.536Z" fill="black"/>
<path d="M137.08 63.2983C136.915 66.2174 134.718 68.4755 132.178 68.3309C129.638 68.1864 127.717 65.701 127.882 62.7751C128.047 59.856 130.243 57.5978 132.784 57.7424C135.324 57.887 137.245 60.3723 137.08 63.2983Z" fill="#FDD292"/>
<path d="M129.562 63.0851C129.816 62.6858 129.913 62.1281 130.353 61.9422C130.801 61.7494 131.324 62.0868 131.799 61.9698C132.364 61.8321 132.605 61.1436 133.128 60.8889C133.431 60.7374 133.727 60.82 134.044 60.7581C134.271 60.7099 134.477 60.4827 134.711 60.6686C134.849 60.7787 134.911 60.9508 134.98 61.1161C135.049 61.2744 135.145 61.4465 135.303 61.5154C135.393 61.5498 135.496 61.5498 135.599 61.5773C135.944 61.6599 136.13 62.0317 136.219 62.3691C136.267 62.5481 136.295 62.7408 136.384 62.9061C136.474 63.0713 136.639 63.2159 136.825 63.209C137.155 63.209 137.321 62.8097 137.362 62.4792C137.596 60.7099 136.701 58.6858 135.111 57.8046C133.624 56.9784 131.772 56.8407 130.181 57.4466C129.39 57.7495 128.605 58.2934 128.391 59.1195C128.322 59.3949 128.316 59.6841 128.219 59.9526C128.026 60.524 127.462 60.9233 127.324 61.5154C127.276 61.7219 127.29 61.9422 127.304 62.1556C127.331 62.6858 127.104 63.3054 127.689 63.6358C128.302 63.9801 129.197 63.6703 129.562 63.1057V63.0851Z" fill="#752B31"/>
<path d="M120.467 105.507H137.644C139.565 105.507 141.121 107.063 141.121 108.984V109.638H116.99V108.984C116.99 107.063 118.546 105.507 120.467 105.507Z" fill="#333333"/>
<path d="M129.059 50.6851C129.489 50.6851 129.837 50.3368 129.837 49.9071C129.837 49.4775 129.489 49.1292 129.059 49.1292C128.63 49.1292 128.281 49.4775 128.281 49.9071C128.281 50.3368 128.63 50.6851 129.059 50.6851Z" fill="#E3E3E3"/>
<path d="M157.369 106.705H83.3866C83.2079 106.705 83.063 106.85 83.063 107.028V109.314C83.063 109.493 83.2079 109.638 83.3866 109.638H157.369C157.547 109.638 157.692 109.493 157.692 109.314V107.028C157.692 106.85 157.547 106.705 157.369 106.705Z" fill="black"/>
<path d="M171.723 109.638C171.82 109.301 171.875 108.943 171.875 108.578C171.875 105.983 169.224 103.876 165.954 103.876C162.684 103.876 160.033 105.983 160.033 108.578C160.033 108.943 160.088 109.294 160.185 109.638H171.716H171.723Z" fill="black"/>
<path d="M29.3081 97.6112C29.3081 97.6112 29.2806 97.563 29.253 97.5424C28.9983 97.3221 28.1446 97.1637 27.883 96.9641C27.4011 96.5992 26.9949 95.9796 26.6369 95.4976C25.8933 94.5063 25.2737 93.4185 24.7505 92.2963C23.6971 90.0588 23.0156 87.6492 22.5336 85.2258C22.1619 83.3669 21.8934 81.4874 21.8245 79.5873C21.5836 73.3636 23.4493 66.954 21.6455 60.9919C21.6455 60.9919 21.6455 60.9919 21.6593 61.0057C21.6937 61.047 21.735 61.0883 21.7694 61.1296C21.7832 61.1434 21.7901 61.1572 21.8039 61.1641C25.5491 65.4325 26.809 71.4359 26.568 77.1157C26.4992 78.8162 26.3064 80.5029 26.2444 82.2034C26.0517 87.4839 27.1119 92.8058 29.3219 97.6043L29.3081 97.6112Z" fill="#E3E3E3"/>
<g style="mix-blend-mode:multiply" opacity="0.5">
<path d="M29.3081 97.6111C29.3081 97.6111 29.2736 97.5629 29.253 97.5422C23.5732 90.5681 24.5164 80.0209 24.2272 71.601C23.9794 64.4823 22.3133 61.8386 21.79 61.1846C25.5353 65.453 26.7952 71.4564 26.5542 77.1362C26.4854 78.8367 26.2926 80.5235 26.2306 82.224C26.0379 87.5045 27.0981 92.8263 29.3081 97.6249V97.6111Z" fill="#E3E3E3"/>
</g>
<path d="M31.0429 99.4966C31.0429 99.4966 31.0291 99.4416 31.0222 99.4209C30.8776 99.1455 30.1961 98.7256 30.0308 98.4708C29.7348 97.9958 29.5902 97.328 29.4456 96.7979C29.1358 95.6963 28.9637 94.5604 28.888 93.4244C28.7228 91.1525 28.9362 88.853 29.3217 86.6086C29.6178 84.8875 30.0102 83.1801 30.5816 81.5278C32.4405 76.0958 36.1719 71.2077 36.5919 65.4797C36.5919 65.4797 36.5919 65.4797 36.5988 65.5004C36.6125 65.5486 36.6332 65.5968 36.6538 65.645C36.6538 65.6587 36.6607 65.6725 36.6676 65.6863C38.4714 70.595 37.5695 76.1784 35.4766 80.9839C34.8501 82.4228 34.1272 83.8066 33.5076 85.2455C31.5868 89.7205 30.74 94.6499 31.0498 99.5104L31.0429 99.4966Z" fill="#E3E3E3"/>
<g style="mix-blend-mode:multiply" opacity="0.5">
<path d="M31.0429 99.4969C31.0429 99.4969 31.0291 99.4418 31.0222 99.4212C28.4474 91.5383 32.764 82.781 35.3045 75.4489C37.4525 69.2459 36.8948 66.4232 36.6676 65.6865C38.4714 70.5953 37.5695 76.1787 35.4766 80.9841C34.8501 82.423 34.1272 83.8068 33.5076 85.2457C31.5868 89.7207 30.74 94.6501 31.0498 99.5107L31.0429 99.4969Z" fill="#E3E3E3"/>
</g>
<path d="M30.5748 97.7479C30.5748 97.7479 30.5541 97.6859 30.5266 97.6584C30.2994 97.3623 29.3906 96.9906 29.1428 96.7152C28.6884 96.2057 28.3855 95.4278 28.0963 94.8219C27.5042 93.562 27.0705 92.2333 26.74 90.877C26.086 88.1782 25.8726 85.3762 25.8864 82.6017C25.9001 80.4744 26.024 78.3401 26.3752 76.2403C27.5111 69.3351 31.0016 62.7121 30.3545 55.7517C30.3545 55.7517 30.3545 55.7517 30.3683 55.7724C30.3958 55.8206 30.4302 55.8756 30.4577 55.9307C30.4646 55.9445 30.4715 55.9651 30.4853 55.9789C33.6453 61.5141 33.6866 68.3987 32.1445 74.5949C31.6832 76.4469 31.098 78.2644 30.6436 80.1164C29.2461 85.8788 29.2185 91.9786 30.5679 97.7479H30.5748Z" fill="#E3E3E3"/>
<g style="mix-blend-mode:multiply" opacity="0.5">
<path d="M30.5748 97.7479C30.5748 97.7479 30.5473 97.686 30.5266 97.6584C25.8451 88.7084 29.2598 77.3213 30.8226 67.9926C32.1445 60.1097 30.9122 56.8258 30.4853 55.9858C33.6453 61.5211 33.6867 68.4057 32.1445 74.6018C31.6832 76.4538 31.098 78.2713 30.6437 80.1233C29.2461 85.8857 29.2185 91.9855 30.5679 97.7548L30.5748 97.7479Z" fill="#E3E3E3"/>
</g>
<path d="M37.5695 94.2646V100.075C37.5695 100.406 37.5557 100.736 37.5351 101.06C37.4938 101.672 37.4112 102.265 37.2873 102.843C36.6745 105.776 35.1186 108.22 33.0463 109.638H24.771C22.6987 108.22 21.1428 105.776 20.5301 102.843C20.4062 102.265 20.3235 101.672 20.2822 101.06C20.2547 100.736 20.2478 100.406 20.2478 100.075V94.2646H37.5764H37.5695Z" fill="#413637"/>
<path d="M37.5696 97.4106H20.241V99.1938H37.5696V97.4106Z" fill="#A2CD28"/>
<path d="M37.5351 101.06C37.4938 101.672 37.4112 102.264 37.2873 102.843H20.5301C20.4062 102.264 20.3235 101.672 20.2822 101.06H37.5351Z" fill="#A2CD28"/>
<path d="M36.9291 0.585938H6.53345V42.1346H36.9291V0.585938Z" fill="#E6E6E6"/>
<path d="M34.96 2.56177H8.51611V40.1518H34.96V2.56177Z" fill="#E3E3E3"/>
<path d="M34.96 2.56177H8.51611V10.7063H34.96V2.56177Z" fill="#413637"/>
<path d="M34.96 36.0278H8.51611V40.1586H34.96V36.0278Z" fill="#413637"/>
<path d="M34.9531 13.8806V20.1732C34.6984 20.2833 34.4574 20.4279 34.2371 20.6C33.0667 21.5225 32.7225 23.1198 32.3989 24.5724C32.3025 25.0199 32.1855 25.4881 31.8895 25.8323C31.0908 26.7824 29.5349 26.3693 28.516 25.6671C27.4971 24.958 26.5057 23.9941 25.2665 24.0217C24.0203 24.0492 23.0289 25.1094 22.5057 26.2385C21.9756 27.3676 21.7553 28.6206 21.177 29.7221C20.5987 30.8237 19.4903 31.8013 18.251 31.6705C16.9361 31.519 16.0824 30.2247 14.912 29.5982C13.1495 28.6481 10.8638 29.3985 9.43869 30.8099C9.08757 31.1541 8.78466 31.5328 8.50928 31.9321V25.0819C8.61943 24.958 8.72959 24.834 8.85351 24.717C10.2717 23.3057 12.5643 22.5552 14.3268 23.5053C15.4972 24.1318 16.344 25.4261 17.6658 25.5776C18.9051 25.7153 20.0135 24.7377 20.5918 23.6361C21.1701 22.5346 21.3904 21.2747 21.9205 20.1525C22.4506 19.0234 23.442 17.9632 24.6813 17.9357C25.9205 17.9081 26.9119 18.8788 27.9308 19.5811C28.9497 20.2902 30.5056 20.6964 31.3043 19.7463C31.6003 19.3952 31.7105 18.9339 31.8137 18.4864C32.1373 17.0338 32.4815 15.4365 33.6519 14.514C34.0375 14.2111 34.4781 14.0114 34.9531 13.8944V13.8806Z" fill="#70CD28"/>
<path d="M28.8879 111.696H23.5798V207.123H28.8879V111.696Z" fill="#999999"/>
<path d="M28.8879 111.696H23.5798V115.978H28.8879V111.696Z" fill="black"/>
<path d="M181.011 111.696H175.703V207.123H181.011V111.696Z" fill="#999999"/>
<path d="M181.011 111.696H175.703V115.978H181.011V111.696Z" fill="black"/>
<path d="M189.775 113.473H14.8226C13.6384 113.473 12.6746 112.516 12.6746 111.325C12.6746 110.14 13.6315 109.177 14.8226 109.177H189.775C190.959 109.177 191.923 110.133 191.923 111.325C191.923 112.509 190.966 113.473 189.775 113.473Z" fill="#E6E6E6"/>
<path d="M145.596 129.039H139.641V201.699H145.596V129.039Z" fill="url(#paint3_radial_1_12803)"/>
<path d="M173.355 123.606H141.575V207.124H173.355V123.606Z" fill="url(#paint4_radial_1_12803)"/>
<path d="M173.355 182.477H141.575V207.124H173.355V182.477Z" fill="#E3E3E3"/>
<path d="M173.355 203.585H141.575V207.124H173.355V203.585Z" fill="black"/>
<path d="M173.355 123.606H141.575V148.956H173.355V123.606Z" fill="#9BEA5D"/>
<path d="M167.661 146.635H147.269V148.962H167.661V146.635Z" fill="#413637"/>
<path d="M161.747 189.176C161.747 191.544 159.827 193.458 157.465 193.458C155.104 193.458 153.183 191.537 153.183 189.176C153.183 186.815 155.104 184.894 157.465 184.894C159.827 184.894 161.747 186.815 161.747 189.176Z" fill="#70CD28"/>
<path d="M157.465 191.62C157.066 191.62 156.742 191.296 156.742 190.897V187.468C156.742 187.069 157.066 186.745 157.465 186.745C157.864 186.745 158.188 187.069 158.188 187.468V190.897C158.188 191.296 157.864 191.62 157.465 191.62Z" fill="#413637"/>
<path d="M102.478 196.943C101.569 196.957 100.158 197.625 99.9441 200.482L99.9785 202.403C99.9923 203.084 100.467 203.663 101.128 203.807C104.633 204.565 115.675 206.775 126.099 207.036C132.481 207.201 135.572 207.098 137.066 206.967C137.865 206.899 138.47 206.231 138.484 205.432L138.498 204.248C138.512 203.174 137.899 202.189 136.928 201.721L136.068 201.308L102.485 196.937L102.478 196.943Z" fill="#23A267"/>
<path d="M137.617 201.68V203.118C137.617 203.118 109.335 203.325 101.61 199.669C101.61 199.669 99.7924 197.005 103.792 186.127C104.164 185.108 104.591 184.014 105.073 182.843L119.469 184.496C119.469 184.496 119.31 187.91 121.417 191.181C122.174 192.351 123.214 193.501 124.66 194.471C130.147 198.162 137.293 197.748 137.61 201.68H137.617Z" fill="url(#paint5_radial_1_12803)"/>
<g style="mix-blend-mode:multiply">
<path d="M121.424 191.173C115.242 190.774 107.682 187.814 103.792 186.12C104.164 185.101 104.591 184.006 105.073 182.836L119.469 184.488C119.469 184.488 119.31 187.903 121.417 191.173H121.424Z" fill="black"/>
</g>
<path d="M66.7395 193.447C65.9753 193.454 64.7842 194.018 64.6052 196.428L64.6328 198.046C64.6397 198.617 65.0458 199.106 65.6035 199.23C68.557 199.864 77.8581 201.729 86.636 201.95C92.0129 202.087 94.6153 202.005 95.8752 201.888C96.543 201.826 97.0594 201.268 97.0663 200.593L97.08 199.595C97.0938 198.686 96.5705 197.86 95.7582 197.468L95.0284 197.123L66.7395 193.44V193.447Z" fill="#23A267"/>
<path d="M96.3297 197.432V198.644C96.3297 198.644 72.5088 198.816 66.0029 195.738C66.0029 195.738 64.4676 193.494 67.8411 184.331C68.1578 183.47 68.5158 182.554 68.922 181.57L81.0458 182.961C81.0458 182.961 80.915 185.831 82.6912 188.592C83.3246 189.577 84.2058 190.547 85.4244 191.367C90.044 194.472 96.0612 194.127 96.3297 197.439V197.432Z" fill="url(#paint6_radial_1_12803)"/>
<g style="mix-blend-mode:multiply">
<path d="M82.6981 188.585C77.4864 188.248 71.125 185.756 67.8479 184.331C68.1646 183.47 68.5226 182.554 68.9288 181.57L81.0526 182.961C81.0526 182.961 80.9218 185.831 82.6981 188.592V188.585Z" fill="black"/>
</g>
<path d="M84.8049 183.758C76.4056 185.287 66.175 181.81 66.175 181.81V135.718L82.5123 136.296C82.5123 136.296 82.8496 142.657 83.2627 150.726C83.7515 160.192 84.3436 172.006 84.6328 178.684C84.7498 181.356 84.8186 183.208 84.8117 183.751L84.8049 183.758Z" fill="#E3E3E3"/>
<g style="mix-blend-mode:multiply" opacity="0.5">
<path d="M83.2556 150.732C78.1816 151.696 71.9166 151.159 66.168 150.147V135.723L82.5052 136.302C82.5052 136.302 82.8425 142.663 83.2556 150.732Z" fill="#E3E3E3"/>
</g>
<g style="mix-blend-mode:screen" opacity="0.5">
<path d="M84.8049 183.758C76.4056 185.287 66.175 181.81 66.175 181.81V177.445C69.5829 178.43 77.4727 180.261 84.6328 178.691C84.7498 181.363 84.8186 183.215 84.8117 183.758H84.8049Z" fill="#E3E3E3"/>
</g>
<path d="M127.352 179.035C126.904 182.636 126.601 184.894 126.601 184.894C115.469 186.836 101.032 183.097 101.032 183.097L102.188 176.894L109.142 138.981L83.2902 137.335C83.2902 137.335 68.4676 140.599 55.6139 136.84C47.3111 134.409 44.8877 127.236 44.213 122.458C43.8412 119.841 43.9927 117.941 43.9927 117.941C43.9927 117.941 81.3349 113.473 93.0044 113.831C96.3365 113.934 100.536 114.85 104.915 116.275C115.868 119.835 127.889 126.554 129.968 131.518C132.24 136.929 128.928 166.32 127.359 179.035H127.352Z" fill="#E3E3E3"/>
<path d="M104.908 116.275C78.1887 130.623 52.1304 124.792 44.2062 122.458C43.8344 119.841 43.9859 117.941 43.9859 117.941C43.9859 117.941 81.3281 113.473 92.9975 113.831C96.3297 113.934 100.529 114.85 104.908 116.275Z" fill="black"/>
<g style="mix-blend-mode:screen" opacity="0.5">
<path d="M127.352 179.035C126.904 182.636 126.601 184.894 126.601 184.894C115.469 186.836 101.032 183.097 101.032 183.097L102.188 176.894C106.636 178.127 115.193 179.793 127.352 179.029V179.035Z" fill="#E3E3E3"/>
</g>
<path d="M111.145 132.186C109.693 134.988 109.135 138.981 109.135 138.981C109.135 138.981 107.338 136.145 107.655 132.895" stroke="black" stroke-width="0.261616" stroke-linecap="round" stroke-linejoin="round"/>
<path d="M163.682 97.0683C163.351 97.1922 163.014 97.3092 162.656 97.4194C161.823 97.681 161.011 97.8738 160.274 98.0046C158.395 98.3281 156.942 98.2249 156.563 97.6948C156.529 97.6466 156.501 97.5984 156.487 97.5433L153.389 87.5881L149.851 76.2216L149.527 75.1889L160.845 71.6709L161.169 72.7036L161.314 73.1649L161.672 74.3215L161.919 75.127L162.353 76.5177L167.799 94.0321C168.047 94.8376 166.264 96.1251 163.675 97.082L163.682 97.0683Z" fill="#F15A24"/>
<path d="M157.651 84.1052C156.914 87.8711 158.401 91.6714 159.771 95.2514C160.102 96.1188 160.419 97.124 160.281 98.0052C158.401 98.3288 156.949 98.2255 156.57 97.6954C156.536 97.6472 156.508 97.599 156.494 97.544L153.396 87.5888C153.548 86.2325 153.885 84.9107 154.498 83.6852C155.73 81.2205 157.94 79.403 159.524 77.1517C160.109 76.3187 160.604 75.4237 161.004 74.4943C161.121 74.212 161.176 73.6406 161.32 73.1655L161.678 74.3221L161.926 75.1276C161.789 75.4237 161.658 75.6578 161.596 75.761C160.962 76.7662 160.157 77.6612 159.565 78.687C159.028 79.6233 158.684 80.656 158.339 81.6818C158.071 82.4804 157.809 83.2859 157.644 84.1121L157.651 84.1052Z" fill="white"/>
<path d="M161.176 72.6968C160.309 73.7226 158.326 74.8516 155.875 75.6158C153.424 76.38 151.152 76.5728 149.858 76.2148L149.534 75.1821L160.853 71.6641L161.176 72.6968Z" fill="#A2CD28"/>
<path d="M160.859 71.666C161.142 72.5679 158.835 74.0963 155.71 75.067C152.584 76.0378 149.823 76.0929 149.541 75.191C149.259 74.2891 151.565 72.7607 154.691 71.79C157.816 70.8192 160.577 70.7642 160.859 71.666Z" fill="#666666"/>
<path d="M149.651 75.3818C150.174 74.4937 152.164 73.3508 154.691 72.566C157.568 71.671 160.136 71.554 160.749 72.2493C160.873 72.0359 160.914 71.8431 160.859 71.6641C160.577 70.7553 157.816 70.8104 154.691 71.788C151.565 72.7588 149.259 74.2803 149.541 75.189C149.562 75.2579 149.603 75.3267 149.651 75.3818Z" fill="#999999"/>
<path d="M153.768 73.9495C153.878 74.3075 153.321 74.7963 152.522 75.0441C151.724 75.292 150.98 75.2094 150.87 74.8514C150.76 74.4934 151.317 74.0046 152.116 73.7567C152.915 73.5089 153.658 73.5915 153.768 73.9495Z" fill="black"/>
<path d="M163.888 96.1527C163.847 96.4625 163.778 96.7723 163.682 97.0752C163.351 97.1992 163.014 97.3162 162.656 97.4264C159.709 98.342 157.086 98.4453 156.563 97.6949C156.797 97.0959 156.949 96.4625 156.997 95.8222C157.1 94.4866 156.797 93.1579 156.488 91.8498C156.253 90.8378 156.019 89.8326 155.778 88.8206C155.599 88.0633 155.42 87.2991 155.4 86.5211C155.31 83.8774 156.963 81.5229 158.574 79.4231C159.579 78.115 160.604 76.7863 161.286 75.2717C161.417 74.9825 161.568 74.652 161.685 74.3147L162.367 76.504C161.678 77.6056 160.818 78.6382 160.295 79.8362C159.592 81.4403 159.53 83.2785 159.944 84.9721C160.357 86.6726 161.231 88.2354 162.319 89.5985C162.663 90.0323 163.035 90.4591 163.283 90.9617C163.517 91.4505 163.627 91.9944 163.716 92.5383C163.916 93.7293 164.067 94.9548 163.895 96.1527H163.888Z" fill="#A2CD28"/>
<path d="M150.797 79.1681C150.797 79.2172 150.776 79.2523 150.734 79.2804C150.699 79.2102 150.664 79.1681 150.643 79.1681C150.545 79.1681 150.797 79.07 150.797 79.1681Z" fill="white" stroke="#231F20" stroke-width="0.261616" stroke-miterlimit="10"/>
<path d="M169.644 78.2866C166.002 79.9802 164.453 81.0611 164.446 81.0679C164.735 80.8614 165.782 82.8648 165.83 83.0369C166.064 83.8149 165.913 84.4896 165.658 85.24C165.479 85.777 165.472 85.7564 165.864 86.1419C166.202 86.4724 166.498 86.7409 166.67 87.1953C166.904 87.8149 166.849 88.5378 166.532 89.1161C166.773 89.0541 167.007 89.2606 167.138 89.4741C167.537 90.1281 167.537 90.9749 167.269 91.6978C166.993 92.4138 166.484 93.0196 165.913 93.5291C164.343 94.9336 162.284 95.6427 160.24 96.0145C156.432 96.7029 151.613 97.9215 149.603 96.4344C149.575 96.4138 149.548 96.3931 149.52 96.3656L148.811 95.5394L144.866 96.5239L143.372 87.5946C144.715 87.3054 145.83 86.3347 146.636 85.2125C146.649 85.1987 146.656 85.1781 146.67 85.1643C147.476 84.0215 148.026 82.7271 148.673 81.4879C149.128 80.6204 149.686 79.7254 150.587 79.3468C150.636 79.3261 150.684 79.3055 150.725 79.2711C150.98 79.7392 151.572 81.481 151.572 81.481C151.572 81.481 152.577 82.617 155.393 80.4828C158.209 78.3485 166.546 73.4673 170.043 73.1369C173.548 72.8064 173.286 76.5723 169.637 78.2728L169.644 78.2866Z" fill="#FDD292"/>
<path d="M149.61 96.4407C149.61 96.4407 149.555 96.3994 149.527 96.3718L148.818 95.5457L144.873 96.5302L143.379 87.6008C144.722 87.3117 145.837 86.3409 146.642 85.2188C147.875 86.9812 149.747 90.637 149.603 96.4338L149.61 96.4407Z" fill="black"/>
<path d="M70.7188 47.8423L67.3384 53.7906L53.2112 73.6183C53.2112 73.6183 49.2181 75.7112 44.5916 76.7026C42.5194 77.1432 40.3232 77.3635 38.2991 77.0744C31.7518 76.1381 30.8224 67.9798 40.4677 60.7509C46.5331 56.2071 56.9289 52.2691 63.8135 49.9765C67.8754 48.6203 70.7188 47.8423 70.7188 47.8423Z" fill="url(#paint7_radial_1_12803)"/>
<g style="mix-blend-mode:multiply" opacity="0.5">
<path d="M70.7187 47.8423L67.3384 53.7906L53.2111 73.6183C53.2111 73.6183 49.218 75.7112 44.5916 76.7026C47.2008 63.016 57.3488 54.2794 63.8203 49.9765C67.8823 48.6203 70.7256 47.8423 70.7256 47.8423H70.7187Z" fill="#413637"/>
</g>
<path d="M71.9236 48.1659C71.9236 48.1659 73.7205 45.3845 74.6705 44.9921C75.6275 44.5997 82.2505 42.8785 87.0836 47.6564C87.0836 47.6564 88.0749 48.1108 87.9166 51.9524C87.7582 55.794 71.9236 48.1659 71.9236 48.1659Z" fill="#413637"/>
<path d="M99.8202 115.36C99.8202 115.36 79.6207 127.739 41.9824 121.109C41.9824 121.109 39.8 112.668 41.9824 96.648C44.1648 80.6275 51.5933 54.8515 73.3625 46.7414C73.3625 46.7414 79.779 44.1115 87.5793 49.9565C87.5793 49.9565 97.321 57.7912 97.982 71.7876C98.216 76.655 98.0439 80.4898 97.7203 83.6705C97.1145 89.6394 95.9717 93.3158 95.9303 97.2469C95.9028 100.118 96.9355 103.87 97.9544 107.25C99.0697 110.961 100.171 114.218 99.8133 115.367L99.8202 115.36Z" fill="#E6E6E6"/>
<g style="mix-blend-mode:multiply" opacity="0.5">
<path d="M97.9613 107.243C92.1507 100.234 82.0441 83.0294 79.2145 72.2825C75.7102 58.9814 82.0578 55.1191 82.4227 54.9746C82.7876 54.8231 84.1439 58.1071 84.5707 58.5133L97.7272 83.6696C97.1214 89.6386 95.9786 93.315 95.9373 97.2461C95.9097 100.117 96.9424 103.869 97.9613 107.249V107.243Z" fill="#999999"/>
</g>
<path d="M147.014 96.5712L144.116 97.3216L139.641 98.4851L137.438 86.0791L140.192 85.5283L144.832 84.5989C144.832 84.5989 148.481 89.5145 147.014 96.5643V96.5712Z" fill="#E6E6E6"/>
<g style="mix-blend-mode:multiply" opacity="0.5">
<path d="M144.116 97.3219L139.641 98.4854L137.438 86.0793L140.192 85.5286C141.741 87.1878 144.543 91.1051 144.116 97.3219Z" fill="#999999"/>
</g>
<path d="M102.622 106.706C102.478 106.589 84.2816 83.3943 80.2266 70.4718C76.1715 57.5494 82.2025 54.1278 86.0579 53.1983C89.9064 52.262 93.9683 56.5511 102.113 73.4873C110.257 90.4235 111.145 90.2513 111.145 90.2513C111.145 90.2513 132.323 83.3254 136.935 84.1791C141.548 85.0328 144.212 95.9931 141.204 99.8554C138.195 103.711 107.696 110.754 102.622 106.719V106.706Z" fill="url(#paint8_radial_1_12803)"/>
<path d="M98.2091 25.1574C97.6033 23.6497 96.5155 24.3519 95.469 24.0008C94.3675 23.6291 94.8425 23.4845 94.5396 22.4449C94.3055 21.6256 94.0233 21.006 93.3623 20.4002C92.2608 19.3812 90.6705 18.9131 89.1972 19.1747C89.6722 18.2866 89.1008 17.0267 88.1232 16.7926C87.1455 16.5586 86.0715 17.4398 86.0991 18.4449C85.5414 17.0336 83.8822 16.1524 82.402 16.4897C80.9218 16.8271 79.8065 18.3348 79.9166 19.8494C78.1748 19.2504 76.1095 19.5189 74.7188 20.7237C73.3281 21.9286 72.7842 24.0972 73.6448 25.722C71.779 25.8321 69.8513 26.8097 69.1216 28.5309C68.3918 30.2521 69.3488 32.6272 71.1938 32.9508C69.7963 34.3759 68.7842 36.3863 69.218 38.3346C69.6517 40.2829 72.0131 41.7631 73.748 40.7855C73.3694 42.1418 73.8788 43.6908 74.9804 44.5652C76.0819 45.4395 77.7067 45.5772 78.939 44.9025C79.6344 46.3965 81.0733 47.5256 82.6912 47.8423C84.3091 48.1589 86.0646 47.6633 87.2763 46.5411C89.1007 47.7941 91.8133 47.2708 93.266 45.5979C94.7186 43.9249 94.932 41.3845 94.0508 39.3535C96.2952 38.0936 98.5534 36.4964 99.5103 34.1006C100.467 31.7047 99.4965 28.407 97.0112 27.7323C98.0301 27.4156 98.5946 26.1351 98.2022 25.1506L98.2091 25.1574Z" fill="black"/>
<path d="M76.5916 203.944C76.5916 205.699 75.1665 207.124 73.4109 207.124C71.6553 207.124 70.2302 205.699 70.2302 203.944C70.2302 202.188 71.6553 200.763 73.4109 200.763C75.1665 200.763 76.5916 202.188 76.5916 203.944Z" fill="black"/>
<path d="M73.4109 204.921C72.7982 204.921 72.3025 204.419 72.3025 203.813V200.804C72.3025 200.192 72.8051 199.696 73.4109 199.696C74.0237 199.696 74.5194 200.198 74.5194 200.804V203.813C74.5194 204.426 74.0168 204.921 73.4109 204.921Z" fill="#666666"/>
<path d="M65.459 144.165H60.688V184.144H65.459V144.165Z" fill="#999999"/>
<path d="M65.459 144.165V149.803C63.8205 149.583 62.2164 149.315 60.688 149.018V144.165H65.459Z" fill="black"/>
<path d="M75.9443 200.398C74.4917 200.15 72.2266 198.387 66.657 194.566C63.0081 192.06 61.1837 191.565 60.3369 191.606C60.0684 191.592 59.7103 191.634 59.2215 191.771L57.3765 196.191C60.1165 196.708 68.2748 200.384 69.9685 201.871C71.8686 203.537 74.2369 203.585 74.2369 203.585C76.378 203.585 77.3901 200.646 75.9443 200.398Z" fill="#666666"/>
<path d="M92.9999 81.0482V116.18C92.9999 117.633 92.0567 118.92 90.6729 119.347C84.9173 121.124 78.3769 122.363 71.3546 122.914C68.6145 123.127 65.8056 123.244 62.9416 123.244C61.9915 123.244 61.0483 123.23 60.112 123.21C50.9692 122.976 42.4667 121.592 35.2103 119.354C33.8265 118.927 32.8833 117.64 32.8833 116.187V81.0551C32.8833 79.6024 33.8265 78.315 35.2103 77.8882C43.2102 75.4235 52.7248 73.9915 62.9416 73.9915C73.1584 73.9915 82.6729 75.4235 90.6729 77.8882C92.0567 78.315 92.9999 79.6024 92.9999 81.0551V81.0482Z" fill="#9BEA5D"/>
<path d="M71.3524 122.919C68.6123 123.132 65.8034 123.249 62.9394 123.249C61.9893 123.249 61.0461 123.235 60.1098 123.215C59.6279 121.576 59.1184 119.917 59.1184 119.917L67.6416 118.733L71.3593 122.926L71.3524 122.919Z" fill="black"/>
<path d="M101.837 136.221C101.837 139.657 99.5517 142.679 96.2333 143.581C87.6963 145.887 77.8513 147.202 67.3591 147.202C56.867 147.202 47.015 145.887 38.485 143.581C36.8258 143.133 35.4282 142.149 34.4368 140.855C33.4523 139.553 32.874 137.942 32.874 136.228C32.874 133.784 35.1391 131.96 37.528 132.497C44.096 133.97 51.2147 134.975 58.6983 135.423C61.5347 135.588 64.4263 135.677 67.3522 135.677C69.8582 135.677 72.3367 135.615 74.7808 135.491C82.7119 135.092 90.2574 134.059 97.1833 132.504C97.4656 132.442 97.7479 132.407 98.0233 132.407C100.075 132.407 101.83 134.08 101.83 136.235L101.837 136.221Z" fill="#C6EBA9"/>
<path d="M74.7877 135.477C71.8824 138.417 69.521 138.3 64.6811 138.389C59.318 138.486 56.8533 135.842 56.8533 135.842C56.8533 135.842 57.5624 135.67 58.6984 135.408C61.5348 135.574 64.4264 135.663 67.3523 135.663C69.8583 135.663 72.3368 135.601 74.7809 135.477H74.7877Z" fill="black"/>
<g style="mix-blend-mode:multiply" opacity="0.5">
<path d="M97.1905 132.489C96.385 132.668 95.5588 132.84 94.7395 133.012C95.6345 133.88 96.2197 135.201 96.2197 136.702C96.2197 139.814 94.9461 142.657 92.9082 144.413C94.0373 144.151 95.1526 143.876 96.2404 143.58C99.5588 142.685 101.844 139.656 101.844 136.22C101.844 133.776 99.5794 131.952 97.1974 132.489H97.1905Z" fill="#A2CD28"/>
</g>
<g style="mix-blend-mode:multiply" opacity="0.5">
<path d="M90.6705 77.8881C89.4795 77.5232 88.2471 77.179 86.9941 76.8623C87.2971 77.4337 87.4692 78.1015 87.4692 78.7969V118.445C87.4692 119.148 87.2971 119.809 86.9941 120.38C88.2471 120.063 89.4795 119.719 90.6705 119.354C92.0543 118.927 92.9975 117.64 92.9975 116.187V81.055C92.9975 79.6024 92.0543 78.315 90.6705 77.8881Z" fill="#A2CD28"/>
</g>
<path d="M69.5555 136.364C66.9738 128.234 67.6347 118.726 67.6347 118.726L50.8775 118.134C50.8775 118.134 50.2166 128.275 52.8121 136.412C53.1907 137.59 54.2923 138.388 55.5315 138.388H68.0822C69.1356 138.388 69.8722 137.363 69.5555 136.364Z" fill="#999999"/>
<g style="mix-blend-mode:multiply" opacity="0.5">
<path d="M69.5553 136.366C66.9736 128.235 67.6345 118.728 67.6345 118.728L64.206 118.604C64.1165 120.442 63.848 128.931 66.1956 136.311C66.5192 137.337 65.7619 138.39 64.6879 138.39H68.0889C69.1422 138.39 69.8789 137.364 69.5622 136.366H69.5553Z" fill="#999999"/>
</g>
<path d="M67.3456 185.541V191.793H58.7949V185.541C58.7949 184.13 59.9378 182.987 61.3491 182.987H64.7914C66.2028 182.987 67.3456 184.13 67.3456 185.541Z" fill="#E6E6E6"/>
<g style="mix-blend-mode:multiply" opacity="0.5">
<path d="M67.3456 186.215V191.792H58.7949V187.73C60.9567 186.801 64.2062 185.768 67.3456 186.215Z" fill="#999999"/>
</g>
<path d="M41.9069 207.125C43.9601 207.125 45.6246 205.46 45.6246 203.407C45.6246 201.354 43.9601 199.689 41.9069 199.689C39.8537 199.689 38.1892 201.354 38.1892 203.407C38.1892 205.46 39.8537 207.125 41.9069 207.125Z" fill="black"/>
<path d="M41.9069 204.55C41.1909 204.55 40.6057 203.965 40.6057 203.249V199.737C40.6057 199.021 41.1909 198.436 41.9069 198.436C42.6229 198.436 43.2081 199.021 43.2081 199.737V203.249C43.2081 203.965 42.6229 204.55 41.9069 204.55Z" fill="#666666"/>
<path d="M84.2128 207.125C86.266 207.125 87.9305 205.46 87.9305 203.407C87.9305 201.354 86.266 199.689 84.2128 199.689C82.1596 199.689 80.4951 201.354 80.4951 203.407C80.4951 205.46 82.1596 207.125 84.2128 207.125Z" fill="black"/>
<path d="M84.2128 204.55C83.4968 204.55 82.9116 203.965 82.9116 203.249V199.737C82.9116 199.021 83.4968 198.436 84.2128 198.436C84.9288 198.436 85.514 199.021 85.514 199.737V203.249C85.514 203.965 84.9288 204.55 84.2128 204.55Z" fill="#666666"/>
<path d="M90.3676 198.78C87.8341 198.484 83.8617 196.37 74.1268 191.792C67.7447 188.79 64.5571 188.191 63.0769 188.246C61.5967 188.198 58.4092 188.79 52.0271 191.792C42.2923 196.37 38.3198 198.484 35.7863 198.78C33.2527 199.076 35.0221 202.601 38.7673 202.601C38.7673 202.601 42.905 202.546 46.2371 200.542C49.3559 198.67 58.7396 195.757 63.0838 195.399C67.4212 195.757 76.8118 198.67 79.9305 200.542C83.2558 202.539 87.4003 202.601 87.4003 202.601C91.1456 202.601 92.9149 199.076 90.3814 198.78H90.3676Z" fill="#999999"/>
<defs>
<radialGradient id="paint0_radial_1_12803" cx="0" cy="0" r="1" gradientUnits="userSpaceOnUse" gradientTransform="translate(188.911 27.2337) rotate(145.652) scale(34.2001 41.9299)">
<stop stop-color="#666666"/>
<stop offset="1"/>
</radialGradient>
<radialGradient id="paint1_radial_1_12803" cx="0" cy="0" r="1" gradientUnits="userSpaceOnUse" gradientTransform="translate(189.59 74.7485) rotate(132.72) scale(40.9273 53.6873)">
<stop stop-color="#666666"/>
<stop offset="1"/>
</radialGradient>
<radialGradient id="paint2_radial_1_12803" cx="0" cy="0" r="1" gradientUnits="userSpaceOnUse" gradientTransform="translate(183.837 8.73234) rotate(143.632) scale(10.522 13.2224)">
<stop stop-color="#666666"/>
<stop offset="1"/>
</radialGradient>
<radialGradient id="paint3_radial_1_12803" cx="0" cy="0" r="1" gradientUnits="userSpaceOnUse" gradientTransform="translate(142.469 171.535) rotate(96.4321) scale(56.7478 16.6261)">
<stop stop-color="#666666"/>
<stop offset="1"/>
</radialGradient>
<radialGradient id="paint4_radial_1_12803" cx="0" cy="0" r="1" gradientUnits="userSpaceOnUse" gradientTransform="translate(156.668 172.452) rotate(117.627) scale(73.1579 79.1054)">
<stop stop-color="#666666"/>
<stop offset="1"/>
</radialGradient>
<radialGradient id="paint5_radial_1_12803" cx="0" cy="0" r="1" gradientUnits="userSpaceOnUse" gradientTransform="translate(118.494 194.703) rotate(157.963) scale(41.9414 38.3915)">
<stop stop-color="#666666"/>
<stop offset="1"/>
</radialGradient>
<radialGradient id="paint6_radial_1_12803" cx="0" cy="0" r="1" gradientUnits="userSpaceOnUse" gradientTransform="translate(80.2223 191.557) rotate(157.967) scale(35.326 32.3307)">
<stop stop-color="#666666"/>
<stop offset="1"/>
</radialGradient>
<radialGradient id="paint7_radial_1_12803" cx="0" cy="0" r="1" gradientUnits="userSpaceOnUse" gradientTransform="translate(51.0717 65.0153) rotate(150.294) scale(45.9857 52.0933)">
<stop stop-color="#666666"/>
<stop offset="1"/>
</radialGradient>
<radialGradient id="paint8_radial_1_12803" cx="0" cy="0" r="1" gradientUnits="userSpaceOnUse" gradientTransform="translate(109.084 85.157) rotate(147.913) scale(80.136 94.9207)">
<stop stop-color="#666666"/>
<stop offset="1"/>
</radialGradient>
</defs>
</svg>
