<svg width="172" height="119" viewBox="0 0 172 119" fill="none" xmlns="http://www.w3.org/2000/svg">
<path d="M43.9133 36.1341L17.5802 20.9277C17.1722 20.6866 17.1166 20.2972 17.1166 20.1303C17.1166 19.9634 17.1537 19.5739 17.5802 19.3328L21.9196 16.8293C23.0879 16.1617 23.7926 14.9378 23.7926 13.6026C23.7926 12.2674 23.0879 11.0435 21.9196 10.3759L4.59906 0.361844C3.93146 -0.0275905 3.05987 0.194943 2.67044 0.881089C2.281 1.56723 2.50354 2.42028 3.18968 2.80971L20.5102 12.8052C20.9182 13.0463 20.9738 13.4357 20.9738 13.6026C20.9738 13.7695 20.9367 14.1589 20.5102 14.4L16.1708 16.9035C15.0025 17.5711 14.2978 18.7951 14.2978 20.1303C14.2978 21.4655 15.0025 22.6894 16.1708 23.357L42.504 38.5635C42.7265 38.6933 42.9676 38.7489 43.2087 38.7489C43.6908 38.7489 44.173 38.4893 44.4326 38.0442C44.822 37.3766 44.5995 36.505 43.9133 36.1156V36.1341Z" fill="#70CD28"/>
<path d="M170.962 70.8123C170.387 69.4956 169.571 68.2346 168.643 67.159C167.846 66.2689 166.974 65.5086 166.029 64.9522C152.046 56.8854 93.8351 23.2828 82.1335 16.5141C80.4645 15.5497 78.9624 15.457 77.8683 16.1061L73.9554 18.554C75.0495 17.9234 76.5516 18.0162 78.2206 18.9619C89.9407 25.7307 148.133 59.3333 162.116 67.4001C163.062 67.9379 163.933 68.6982 164.731 69.6069C165.658 70.6639 166.474 71.925 167.049 73.2602C167.716 74.7437 168.087 76.32 168.087 77.7665L172 75.3186C172 73.8721 171.629 72.2958 170.962 70.8123Z" fill="#70CD28" fill-opacity="0.3"/>
<g style="mix-blend-mode:screen" opacity="0.5">
<path d="M168.643 67.1777L164.731 69.6256C165.658 70.6826 166.474 71.9437 167.049 73.2789L170.962 70.831C170.387 69.5143 169.571 68.2533 168.643 67.1777Z" fill="#70CD28"/>
</g>
<path d="M162.116 67.4188C148.133 59.352 89.9222 25.7494 78.2206 18.9806C74.9197 17.0706 72.2307 18.6098 72.2122 22.4114L72.1751 27.8449C72.1751 31.6651 74.8455 36.3012 78.1464 38.1927C92.129 46.2596 150.34 79.8622 162.042 86.6309L168.05 83.2002L168.087 77.7666C168.087 73.9465 165.417 69.3103 162.116 67.4188Z" fill="url(#paint0_radial_38_4609)"/>
<path d="M163.97 79.955L163.933 85.3885C163.933 87.28 163.266 88.6152 162.19 89.2457L170.22 84.6096C171.295 83.9791 171.963 82.6439 171.963 80.7524L172 75.3188L163.97 79.955Z" fill="#70CD28" fill-opacity="0.3"/>
<path d="M164.619 74.4657C164.044 73.149 163.228 71.888 162.301 70.8124C161.504 69.9223 160.632 69.162 159.686 68.6056C145.704 60.5388 62.8656 12.7126 51.1455 5.94385L0.0739746 35.6521C11.7941 42.4208 94.6137 90.247 108.615 98.3139C109.561 98.8517 110.432 99.612 111.23 100.521C112.157 101.578 112.973 102.839 113.548 104.174C114.215 105.657 114.586 107.234 114.586 108.68L165.676 78.9905C165.676 77.5441 165.305 75.9678 164.638 74.4842L164.619 74.4657Z" fill="url(#paint1_radial_38_4609)"/>
<g style="mix-blend-mode:screen" opacity="0.5">
<path d="M162.301 70.8311L111.211 100.521C112.138 101.578 112.954 102.839 113.529 104.174L164.619 74.4843C164.044 73.1677 163.228 71.9066 162.301 70.8311Z" fill="#0D3C26"/>
</g>
<path d="M108.615 98.3136C94.6139 90.2282 11.7943 42.4206 0.0741779 35.6519L0 54.8825C13.9825 62.9679 96.8207 110.775 108.541 117.544C111.842 119.454 114.531 117.915 114.549 114.114L114.586 108.68C114.586 104.86 111.916 100.224 108.615 98.3322V98.3136Z" fill="#70CD28" fill-opacity="0.3"/>
<path d="M116.2 54.3263L111.916 56.8113C110.469 57.6458 108.114 57.6458 106.649 56.8113L104.072 55.3277C103.33 54.9012 102.977 54.3449 102.977 53.7885V55.1237C102.977 55.6801 103.33 56.2364 104.072 56.6629L106.649 58.1465C108.096 58.981 110.469 58.981 111.916 58.1465L116.2 55.6615C116.923 55.2535 117.275 54.6972 117.275 54.1409V52.8057C117.275 53.362 116.923 53.8998 116.2 54.3263Z" fill="url(#paint2_linear_38_4609)"/>
<path d="M116.181 51.2849C117.628 52.1194 117.646 53.4917 116.181 54.3262L111.897 56.8111C110.451 57.6456 108.096 57.6456 106.631 56.8111L104.053 55.3276C102.588 54.4745 102.588 53.1208 104.053 52.2863L108.337 49.8013C109.783 48.9668 112.138 48.9483 113.603 49.8013L116.181 51.2849Z" fill="#E6F3C0"/>
<path d="M102.143 62.5045L97.8592 64.9895C96.3942 65.8425 94.0576 65.824 92.5926 64.9895L90.0149 63.5059C89.2731 63.0794 88.9022 62.5231 88.9022 61.9667V63.3019C88.9022 63.8583 89.2731 64.4146 89.9963 64.8411L92.574 66.3247C94.0205 67.1592 96.3756 67.1777 97.8407 66.3247L102.124 63.8397C102.848 63.4318 103.2 62.8754 103.2 62.3191V60.9839C103.2 61.5402 102.848 62.078 102.124 62.5045H102.143Z" fill="url(#paint3_linear_38_4609)"/>
<path d="M102.124 59.4445C103.571 60.279 103.589 61.6513 102.124 62.4858L97.8407 64.9708C96.3756 65.8238 94.039 65.8053 92.574 64.9708L89.9964 63.4872C88.5313 62.6342 88.5128 61.2804 89.9964 60.4459L94.2801 57.961C95.7266 57.1265 98.0817 57.1079 99.5468 57.961L102.124 59.4445Z" fill="#E6F3C0"/>
<path d="M88.0121 70.7008L83.7468 73.1858C82.2818 74.0388 79.9452 74.0203 78.4802 73.1858L75.9025 71.7022C75.1607 71.2757 74.7899 70.7194 74.7899 70.163V71.4982C74.7899 72.0546 75.1607 72.6109 75.884 73.0374L78.4617 74.521C79.9081 75.3555 82.2633 75.374 83.7283 74.521L87.9935 72.036C88.7168 71.6095 89.0691 71.0717 89.0691 70.5154V69.1802C89.0691 69.718 88.7168 70.2743 87.9935 70.7008H88.0121Z" fill="url(#paint4_linear_38_4609)"/>
<path d="M87.9935 67.6409C89.44 68.4754 89.4585 69.8477 87.9935 70.6822L83.7283 73.1672C82.2633 74.0202 79.9267 74.0017 78.4617 73.1672L75.884 71.6836C74.419 70.8306 74.419 69.4768 75.884 68.6423L80.1492 66.1574C81.6142 65.3043 83.9508 65.3043 85.4158 66.1574L87.9935 67.6409Z" fill="#E6F3C0"/>
<path d="M126.047 60.0197L121.763 62.5046C120.317 63.3391 117.961 63.3391 116.496 62.5046L113.919 61.0211C113.177 60.5945 112.825 60.0382 112.825 59.4819V60.8171C112.825 61.3734 113.177 61.9297 113.919 62.3563L116.496 63.8398C117.943 64.6743 120.317 64.6743 121.763 63.8398L126.047 61.3549C126.77 60.9469 127.122 60.3906 127.122 59.8342V58.499C127.122 59.0554 126.77 59.5931 126.047 60.0197Z" fill="url(#paint5_linear_38_4609)"/>
<path d="M126.028 56.9597C127.475 57.7942 127.493 59.1665 126.028 60.001L121.744 62.4859C120.298 63.3204 117.943 63.3204 116.478 62.4859L113.9 61.0024C112.435 60.1493 112.435 58.7956 113.9 57.9611L118.184 55.4761C119.63 54.6416 121.986 54.6231 123.451 55.4761L126.028 56.9597Z" fill="#E6F3C0"/>
<path d="M111.972 68.1793L107.688 70.6643C106.223 71.5173 103.886 71.4988 102.421 70.6643L99.8434 69.1807C99.1017 68.7542 98.7308 68.1979 98.7308 67.6415V68.9768C98.7308 69.5331 99.1017 70.0894 99.8249 70.5159L102.403 71.9995C103.849 72.834 106.204 72.8525 107.669 71.9995L111.953 69.5145C112.676 69.1066 113.029 68.5502 113.029 67.9939V66.6587C113.029 67.215 112.676 67.7528 111.953 68.1793H111.972Z" fill="url(#paint6_linear_38_4609)"/>
<path d="M111.953 65.1379C113.399 65.9724 113.418 67.3447 111.953 68.1792L107.669 70.6641C106.204 71.5172 103.868 71.4986 102.403 70.6641L99.8249 69.1806C98.3599 68.3275 98.3599 66.9738 99.8249 66.1393L104.109 63.6543C105.555 62.8198 107.91 62.8013 109.375 63.6543L111.953 65.1379Z" fill="#E6F3C0"/>
<path d="M97.8592 76.3756L93.5939 78.8606C92.1289 79.7136 89.7923 79.6951 88.3273 78.8606L85.7496 77.377C85.0079 76.9505 84.637 76.3942 84.637 75.8378V77.173C84.637 77.7294 85.0079 78.2857 85.7311 78.7122L88.3088 80.1958C89.7552 81.0303 92.1104 81.0488 93.5754 80.1958L97.8406 77.7108C98.5639 77.2843 98.9162 76.7465 98.9162 76.1902V74.855C98.9162 75.3928 98.5639 75.9491 97.8406 76.3756H97.8592Z" fill="url(#paint7_linear_38_4609)"/>
<path d="M97.8406 73.3343C99.2871 74.1688 99.3056 75.5411 97.8406 76.3756L93.5754 78.8605C92.1104 79.7136 89.7738 79.695 88.3088 78.8605L85.7311 77.377C84.2661 76.5239 84.2661 75.1702 85.7311 74.3357L89.9963 71.8507C91.4613 70.9977 93.7979 70.9977 95.2629 71.8507L97.8406 73.3343Z" fill="#E6F3C0"/>
<path d="M135.894 65.694L131.61 68.1789C130.164 69.0134 127.809 69.0134 126.343 68.1789L123.766 66.6954C123.024 66.2689 122.672 65.7125 122.672 65.1562V66.4914C122.672 67.0477 123.024 67.6041 123.766 68.0306L126.343 69.5142C127.79 70.3487 130.164 70.3487 131.61 69.5142L135.894 67.0292C136.617 66.6212 136.969 66.0649 136.969 65.5085V64.1733C136.969 64.7297 136.617 65.2675 135.894 65.694Z" fill="url(#paint8_linear_38_4609)"/>
<path d="M135.875 62.6525C137.322 63.487 137.34 64.8593 135.875 65.6938L131.592 68.1788C130.145 69.0133 127.79 69.0133 126.325 68.1788L123.747 66.6952C122.282 65.8422 122.282 64.4884 123.747 63.6539L128.031 61.169C129.477 60.3345 131.833 60.3159 133.298 61.169L135.875 62.6525Z" fill="#E6F3C0"/>
<path d="M121.819 73.8722L117.535 76.3572C116.07 77.2102 113.733 77.1917 112.268 76.3572L109.691 74.8736C108.949 74.4471 108.578 73.8908 108.578 73.3344V74.6696C108.578 75.226 108.949 75.7823 109.672 76.2088L112.25 77.6924C113.696 78.5269 116.051 78.5454 117.516 77.6924L121.8 75.2074C122.523 74.7994 122.876 74.2431 122.876 73.6868V72.3516C122.876 72.9079 122.523 73.4457 121.8 73.8722H121.819Z" fill="url(#paint9_linear_38_4609)"/>
<path d="M121.8 70.8122C123.247 71.6467 123.265 73.019 121.8 73.8535L117.516 76.3385C116.051 77.1915 113.715 77.173 112.25 76.3385L109.672 74.8549C108.207 74.0019 108.207 72.6481 109.672 71.8136L113.956 69.3287C115.402 68.4941 117.757 68.4756 119.222 69.3287L121.8 70.8122Z" fill="#E6F3C0"/>
<path d="M107.706 82.0685L103.441 84.5535C101.976 85.4065 99.6394 85.388 98.1744 84.5535L95.5967 83.0699C94.855 82.6434 94.4841 82.087 94.4841 81.5307V82.8659C94.4841 83.4222 94.855 83.9786 95.5782 84.4051L98.1559 85.8887C99.6023 86.7232 101.957 86.7417 103.423 85.8887L107.688 83.4037C108.411 82.9772 108.763 82.4394 108.763 81.883V80.5479C108.763 81.0856 108.411 81.642 107.688 82.0685H107.706Z" fill="url(#paint10_linear_38_4609)"/>
<path d="M107.688 79.0086C109.134 79.8431 109.153 81.2154 107.688 82.0499L103.423 84.5348C101.957 85.3879 99.6209 85.3693 98.1559 84.5348L95.5782 83.0513C94.1132 82.1982 94.1132 80.8445 95.5782 80.01L99.8434 77.525C101.308 76.672 103.645 76.672 105.11 77.525L107.688 79.0086Z" fill="#E6F3C0"/>
<path d="M145.741 71.3873L141.457 73.8723C140.011 74.7068 137.656 74.7068 136.191 73.8723L133.613 72.3887C132.871 71.9622 132.519 71.4059 132.519 70.8496V72.1848C132.519 72.7411 132.871 73.2974 133.613 73.724L136.191 75.2075C137.637 76.042 140.011 76.042 141.457 75.2075L145.741 72.7225C146.464 72.3146 146.817 71.7582 146.817 71.2019V69.8667C146.817 70.423 146.464 70.9608 145.741 71.3873Z" fill="#75A140"/>
<path d="M145.723 68.3273C147.169 69.1618 147.188 70.5341 145.723 71.3686L141.439 73.8536C139.992 74.6881 137.637 74.6881 136.172 73.8536L133.594 72.37C132.129 71.517 132.129 70.1632 133.594 69.3287L137.878 66.8438C139.325 66.0093 141.68 65.9907 143.145 66.8438L145.723 68.3273Z" fill="#91C63E"/>
<path d="M131.666 79.547L127.382 82.032C125.917 82.885 123.58 82.8665 122.115 82.032L119.538 80.5484C118.796 80.1219 118.425 79.5656 118.425 79.0092V80.3444C118.425 80.9008 118.796 81.4571 119.519 81.8836L122.097 83.3672C123.543 84.2017 125.898 84.2202 127.363 83.3672L131.647 80.8822C132.37 80.4742 132.723 79.9179 132.723 79.3616V78.0264C132.723 78.5827 132.37 79.1205 131.647 79.547H131.666Z" fill="#EFA520"/>
<path d="M131.647 76.5056C133.094 77.3401 133.112 78.7124 131.647 79.5469L127.363 82.0318C125.898 82.8849 123.562 82.8663 122.097 82.0318L119.519 80.5483C118.054 79.6952 118.054 78.3415 119.519 77.507L123.803 75.022C125.249 74.1875 127.605 74.169 129.07 75.022L131.647 76.5056Z" fill="#FFC541"/>
<path d="M117.535 87.7433L113.27 90.2283C111.805 91.0813 109.468 91.0628 108.003 90.2283L105.425 88.7447C104.684 88.3182 104.313 87.7619 104.313 87.2055V88.5407C104.313 89.097 104.684 89.6534 105.407 90.0799L107.984 91.5635C109.431 92.398 111.786 92.4165 113.251 91.5635L117.516 89.0785C118.24 88.652 118.592 88.1142 118.592 87.5579V86.2227C118.592 86.7604 118.24 87.3168 117.516 87.7433H117.535Z" fill="#A63131"/>
<path d="M117.516 84.702C118.963 85.5365 118.981 86.9087 117.516 87.7432L113.251 90.2282C111.786 91.0813 109.449 91.0627 107.984 90.2282L105.407 88.7446C103.942 87.8916 103.942 86.5379 105.407 85.7034L109.672 83.2184C111.137 82.3654 113.474 82.3654 114.939 83.2184L117.516 84.702Z" fill="#D34444"/>
<path d="M74.2521 64.4891C75.0124 64.9156 75.0124 65.6388 74.2521 66.0653L72.0267 67.3449C71.2664 67.79 70.0425 67.7714 69.3007 67.3449L67.9655 66.566C67.2052 66.1395 67.2052 65.4163 67.9655 64.9898L70.1908 63.7102C70.9512 63.2651 72.1751 63.2837 72.9169 63.7102L74.2521 64.4891Z" fill="#E6F3C0"/>
<path d="M74.827 66.2695V65.2866C74.827 65.5648 74.6415 65.8615 74.2706 66.0655L72.0453 67.3451C71.285 67.7901 70.061 67.7716 69.3193 67.3451L67.9841 66.5662C67.6132 66.3437 67.4092 66.0655 67.4092 65.7688V66.7516C67.4092 67.0483 67.5946 67.3265 67.9841 67.549L69.3193 68.3279C70.0796 68.7544 71.285 68.773 72.0453 68.3279L74.2706 67.0483C74.6415 66.8258 74.827 66.5476 74.827 66.2695Z" fill="url(#paint11_linear_38_4609)"/>
<path d="M85.2119 58.1653C85.9722 58.5918 85.9722 59.3151 85.2119 59.7416L82.9865 61.0212C82.2262 61.4662 81.0023 61.4477 80.2605 61.0212L78.9253 60.2423C78.165 59.8158 78.165 59.0925 78.9253 58.666L81.1506 57.3865C81.9109 56.9414 83.1349 56.9599 83.8767 57.3865L85.2119 58.1653Z" fill="#E6F3C0"/>
<path d="M85.7867 59.9457V58.9629C85.7867 59.2411 85.6013 59.5378 85.2304 59.7418L83.0051 61.0213C82.2448 61.4664 81.0208 61.4478 80.279 61.0213L78.9438 60.2425C78.5729 60.0199 78.369 59.7418 78.369 59.445V60.4279C78.369 60.7246 78.5544 61.0028 78.9438 61.2253L80.279 62.0042C81.0394 62.4307 82.2448 62.4493 83.0051 62.0042L85.2304 60.7246C85.6013 60.5021 85.7867 60.2239 85.7867 59.9457Z" fill="url(#paint12_linear_38_4609)"/>
<path d="M96.1716 51.8416C96.932 52.2681 96.932 52.9913 96.1716 53.4179L93.9463 54.6974C93.186 55.1425 91.962 55.124 91.2203 54.6974L89.8851 53.9186C89.1247 53.4921 89.1247 52.7688 89.8851 52.3423L92.1104 51.0627C92.8707 50.6177 94.0947 50.6362 94.8364 51.0627L96.1716 51.8416Z" fill="#E6F3C0"/>
<path d="M96.7465 53.6035V52.6206C96.7465 52.8988 96.5611 53.1955 96.1902 53.3995L93.9649 54.679C93.2045 55.1241 91.9806 55.1056 91.2388 54.679L89.9036 53.9002C89.5327 53.6776 89.3287 53.3995 89.3287 53.1028V54.0856C89.3287 54.3823 89.5142 54.6605 89.9036 54.883L91.2388 55.6619C91.9991 56.0884 93.2045 56.107 93.9649 55.6619L96.1902 54.3823C96.5611 54.1598 96.7465 53.8816 96.7465 53.6035Z" fill="url(#paint13_linear_38_4609)"/>
<path d="M107.13 45.5179C107.891 45.9444 107.891 46.6676 107.13 47.0941L104.905 48.3737C104.145 48.8188 102.921 48.8002 102.179 48.3737L100.844 47.5948C100.084 47.1683 100.084 46.4451 100.844 46.0186L103.069 44.739C103.83 44.2939 105.054 44.3125 105.795 44.739L107.13 45.5179Z" fill="#E6F3C0"/>
<path d="M107.688 47.2797V46.2969C107.688 46.575 107.502 46.8718 107.131 47.0757L104.906 48.3553C104.146 48.8004 102.922 48.7818 102.18 48.3553L100.845 47.5764C100.474 47.3539 100.27 47.0757 100.27 46.779V47.7619C100.27 48.0586 100.455 48.3368 100.845 48.5593L102.18 49.3382C102.94 49.7647 104.146 49.7832 104.906 49.3382L107.131 48.0586C107.502 47.8361 107.688 47.5579 107.688 47.2797Z" fill="url(#paint14_linear_38_4609)"/>
<path d="M160.15 84.8506L121.336 107.271V109.57L160.15 87.1501V84.8506Z" fill="url(#paint15_radial_38_4609)"/>
<path d="M156.747 93.333L123.961 112.378C122.273 113.361 119.51 113.343 117.822 112.378V113.194C119.51 114.177 122.273 114.177 123.961 113.194L156.747 94.149C157.582 93.6668 157.99 93.0363 158.008 92.3872V91.5713C158.008 92.2018 157.6 92.8509 156.766 93.333H156.747Z" fill="url(#paint16_radial_38_4609)"/>
<path d="M160.336 87.0757C162.023 88.0585 162.06 89.6534 160.373 90.6362L127.586 109.681C125.898 110.664 123.135 110.646 121.448 109.681L160.354 87.0942L160.336 87.0757Z" fill="url(#paint17_radial_38_4609)"/>
<path d="M70.0055 15.9208C68.8372 13.2689 67.2238 10.7469 65.3508 8.5957C63.7745 6.79688 61.9943 5.27624 60.1213 4.18211C56.7833 2.25349 53.7605 2.06804 51.5908 3.34761L6.58337 29.6251C8.77162 28.3641 11.7944 28.531 15.1138 30.4596C16.9868 31.5352 18.7671 33.0744 20.3434 34.8732C22.2164 37.0058 23.8297 39.5464 24.998 42.1983C25.6656 43.7189 26.1849 45.2581 26.5558 46.7973L71.5632 20.5383C71.2109 18.9991 70.6731 17.4414 70.0055 15.9393V15.9208Z" fill="#0D3C26"/>
<g style="mix-blend-mode:screen" opacity="0.5">
<path d="M65.3508 8.61426L20.3434 34.8732C22.2164 37.0058 23.8297 39.5464 24.998 42.1983L70.0055 15.9393C68.8372 13.2875 67.2238 10.7654 65.3508 8.61426Z" fill="#422C42"/>
</g>
<path d="M15.1138 30.4596C9.71734 27.3441 5.1554 28.7906 3.61621 33.5565L26.5372 46.7972C25.0351 40.3067 20.4917 33.575 15.0952 30.4781L15.1138 30.4596Z" fill="#70CD28"/>
<path d="M102.94 41.1968L62.0869 64.7854L34.4742 48.8557L75.3276 25.2671L102.94 41.1968Z" fill="#232323"/>
<g style="mix-blend-mode:multiply" opacity="0.8">
<path d="M75.3276 27.4368L101.067 42.2909L102.94 41.1968L75.3276 25.2671L34.4742 48.8557L36.3472 49.9312L75.3276 27.4368Z" fill="#23262F"/>
</g>
<path d="M53.779 56.1068L53.4452 56.2922C53.4452 56.2922 53.3154 56.3293 53.2412 56.2922L48.6793 53.6589C48.6793 53.6589 48.6051 53.5847 48.6793 53.5476L50.4225 52.5462C50.7563 52.3422 51.1271 52.2495 51.5166 52.2495C51.906 52.2495 52.2769 52.3422 52.6107 52.5462L53.4267 53.0284C53.779 53.2324 53.9459 53.4364 53.9459 53.6589C53.9459 53.8814 53.779 54.0854 53.4267 54.2894L52.2027 54.9941C52.2027 54.9941 52.1471 55.0497 52.2027 55.0683L53.779 55.977C53.779 55.977 53.8532 56.0511 53.779 56.0882V56.1068ZM51.7391 54.7159L52.8889 54.0483C53.2968 53.8072 53.2968 53.5662 52.8889 53.3251L52.11 52.88C51.6835 52.6389 51.257 52.6204 50.849 52.88L49.6992 53.5476C49.6992 53.5476 49.6436 53.6033 49.6992 53.6218L51.6278 54.7345C51.6278 54.7345 51.7206 54.753 51.7762 54.7345L51.7391 54.7159Z" fill="white" fill-opacity="0.8"/>
<path d="M57.4323 53.9929L57.0985 54.1784C57.0985 54.1784 56.9686 54.2155 56.8945 54.1784L53.3154 52.1199C53.3154 52.1199 53.2412 52.0458 53.3154 52.0087L53.6492 51.8232C53.6492 51.8232 53.779 51.7861 53.8532 51.8232L54.1499 51.9901C54.1128 51.8789 54.1128 51.7676 54.187 51.6563C54.2611 51.5451 54.3724 51.4153 54.5579 51.304L54.8546 51.1371C54.8546 51.1371 54.9844 51.1 55.0586 51.1371L55.3367 51.304C55.3367 51.4153 54.9287 51.6378 54.9287 51.6378C54.7062 51.7676 54.5949 51.8974 54.6135 52.0458C54.6135 52.1941 54.7433 52.3239 54.9844 52.4723L57.4323 53.8817C57.4323 53.8817 57.5064 53.9558 57.4323 53.9929Z" fill="white" fill-opacity="0.8"/>
<path d="M60.863 52.027L60.2325 52.3979C59.8987 52.6018 59.5278 52.6946 59.1384 52.6946C58.7489 52.6946 58.378 52.6018 58.0442 52.3979L56.4494 51.4892C56.0971 51.2852 55.9302 51.0812 55.9302 50.8587C55.9302 50.6361 56.0971 50.4321 56.4494 50.2281L57.0799 49.8573C57.4137 49.6533 57.7846 49.5605 58.1741 49.5605C58.5635 49.5605 58.9344 49.6533 59.2682 49.8573L60.863 50.7659C61.2154 50.9699 61.3822 51.1739 61.3822 51.3964C61.3822 51.619 61.2154 51.823 60.863 52.027ZM59.806 52.0826L60.3252 51.7859C60.7332 51.5448 60.7332 51.3037 60.3252 51.0626L58.7675 50.154C58.341 49.9129 57.9144 49.9129 57.5065 50.154L56.9872 50.4507C56.5792 50.6918 56.5792 50.9328 56.9872 51.1739L58.5449 52.0826C58.9715 52.3237 59.398 52.3237 59.806 52.0826Z" fill="white" fill-opacity="0.8"/>
<path d="M64.5533 49.4495L64.8315 49.6164C64.8315 49.6164 64.8871 49.6906 64.8315 49.7277L63.7559 50.3397C63.4221 50.5436 63.0512 50.6364 62.6618 50.6364C62.2724 50.6364 61.9015 50.5436 61.5677 50.3397L59.9729 49.431C59.6205 49.227 59.4536 49.023 59.4536 48.8005C59.4536 48.5779 59.6205 48.3739 59.9729 48.17L61.0484 47.558C61.0484 47.558 61.1782 47.5209 61.2524 47.558L61.5306 47.7249C61.5306 47.7249 61.5862 47.7991 61.5306 47.8362L60.5106 48.4296C60.1027 48.6707 60.1027 48.9117 60.5477 49.1528L62.0869 50.0429C62.5134 50.284 62.94 50.3026 63.348 50.0429L64.3679 49.4495C64.3679 49.4495 64.4977 49.4124 64.5719 49.4495H64.5533Z" fill="white" fill-opacity="0.8"/>
<path d="M68.0953 47.8359L66.5191 48.7445C66.1853 48.9485 65.8144 49.0413 65.4249 49.0413C65.0355 49.0413 64.6646 48.9485 64.3308 48.7445L62.736 47.8359C62.3836 47.6319 62.2167 47.4279 62.2167 47.2054C62.2167 46.9828 62.3836 46.7788 62.736 46.5748L63.3665 46.2225C63.7003 46.0185 64.0712 45.9258 64.4606 45.9258C64.85 45.9258 65.2209 46.0185 65.5547 46.2225L66.5005 46.7603C66.5005 46.7603 66.5747 46.853 66.5005 46.8901L64.405 48.0955C64.405 48.0955 64.3494 48.1511 64.405 48.1697L64.8501 48.4293C65.2766 48.6704 65.7031 48.6889 66.1111 48.4293L67.6317 47.5577C67.6317 47.5577 67.7615 47.5206 67.8357 47.5577L68.0953 47.7061C68.0953 47.7061 68.151 47.7802 68.0953 47.8173V47.8359ZM64.0156 47.873L65.6104 46.9457C65.6104 46.9457 65.666 46.8901 65.6104 46.853L65.0355 46.5192C64.609 46.2781 64.1825 46.2781 63.7745 46.5192L63.2738 46.8159C62.8658 47.057 62.8658 47.2981 63.2738 47.5392L63.8487 47.873C63.8487 47.873 63.9414 47.91 63.997 47.873H64.0156Z" fill="white" fill-opacity="0.8"/>
<path d="M70.2465 46.5937L68.9298 47.354C68.9298 47.354 68.8 47.3911 68.7258 47.354L68.4662 47.2056C68.4662 47.2056 68.4106 47.1314 68.4662 47.0944L69.7087 46.3711C70.0981 46.1486 70.1352 45.9631 69.857 45.7962L69.7087 45.7221C69.4491 45.5737 69.1338 45.5366 68.7815 45.6293L67.539 45.9261C67.1866 46.0188 66.8714 46.0373 66.6303 46.0188C66.3892 46.0188 66.1481 45.9261 65.9071 45.7962C65.2951 45.4439 65.3322 45.073 65.9998 44.6836L67.2237 43.9789C67.2237 43.9789 67.3535 43.9418 67.4277 43.9789L67.6873 44.1272C67.6873 44.1272 67.743 44.2014 67.6873 44.2385L66.5747 44.8876C66.3892 44.9988 66.2965 45.0916 66.278 45.1843C66.278 45.277 66.2965 45.3512 66.4078 45.4068L66.5376 45.481C66.7416 45.5923 67.0383 45.6108 67.4277 45.5181L68.6887 45.2399C69.0411 45.1472 69.3563 45.1286 69.5974 45.1657C69.857 45.2028 70.1167 45.3141 70.4134 45.481C71.0068 45.8148 70.9512 46.2042 70.2465 46.6122V46.5937Z" fill="white" fill-opacity="0.8"/>
<path d="M73.2692 44.8505L71.9526 45.6108C71.9526 45.6108 71.8228 45.6479 71.7486 45.6108L71.489 45.4625C71.489 45.4625 71.4333 45.3883 71.489 45.3512L72.7314 44.628C73.1209 44.4054 73.158 44.22 72.8798 44.0531L72.7314 43.9789C72.4718 43.8305 72.1566 43.7935 71.8042 43.8862L70.5617 44.1829C70.2094 44.2756 69.8941 44.2942 69.6531 44.2756C69.412 44.2756 69.1709 44.1829 68.9298 44.0531C68.3179 43.7007 68.355 43.3298 69.0226 42.9404L70.2465 42.2357C70.2465 42.2357 70.3763 42.1986 70.4505 42.2357L70.7101 42.3841C70.7101 42.3841 70.7657 42.4583 70.7101 42.4953L69.5974 43.1444C69.412 43.2557 69.3193 43.3484 69.3007 43.4411C69.3007 43.5338 69.3193 43.608 69.4305 43.6636L69.5603 43.7378C69.7643 43.8491 70.061 43.8676 70.4505 43.7749L71.7115 43.4967C72.0638 43.404 72.3791 43.3855 72.6202 43.4226C72.8798 43.4597 73.1394 43.5709 73.4361 43.7378C74.0296 44.0716 73.9739 44.4611 73.2692 44.869V44.8505Z" fill="white" fill-opacity="0.8"/>
<path d="M70.6545 41.2895L69.9498 40.8815C69.9498 40.8815 69.8756 40.8074 69.9498 40.7703L70.2836 40.5663C70.2836 40.5663 70.4134 40.5292 70.4876 40.5663L71.1923 40.9743C71.1923 40.9743 71.2664 41.0484 71.1923 41.0855L70.8585 41.2895C70.8585 41.2895 70.7286 41.3266 70.6545 41.2895ZM74.9568 43.7559L71.3777 41.6975C71.3777 41.6975 71.3035 41.6233 71.3777 41.5862L71.7115 41.3822C71.7115 41.3822 71.8413 41.3452 71.9155 41.3822L75.4946 43.4407C75.4946 43.4407 75.5687 43.5149 75.4946 43.5519L75.1608 43.7374C75.1608 43.7374 75.031 43.7745 74.9568 43.7374V43.7559Z" fill="white" fill-opacity="0.8"/>
<path d="M76.9039 42.7546L76.5701 42.9401C76.5701 42.9401 76.4403 42.9772 76.3661 42.9401L72.7871 40.8816C72.7871 40.8816 72.7129 40.8075 72.7871 40.7704L73.1209 40.5849C73.1209 40.5849 73.2507 40.5478 73.3248 40.5849L73.6216 40.7518C73.5103 40.5108 73.6216 40.2882 74.011 40.0657L74.419 39.8246C74.7528 39.6392 75.1051 39.5279 75.4945 39.5464C75.884 39.5464 76.2363 39.6577 76.5887 39.8432L79.1664 41.3267C79.1664 41.3267 79.2405 41.4009 79.1664 41.438L78.8326 41.6234C78.8326 41.6234 78.7027 41.6605 78.6286 41.6234L76.0694 40.1399C75.6429 39.8988 75.2164 39.8802 74.8084 40.1399L74.4004 40.3809C74.1779 40.5108 74.0666 40.6406 74.0666 40.7704C74.0666 40.9002 74.1779 41.03 74.4004 41.1598L76.9225 42.6248C76.9225 42.6248 76.9967 42.699 76.9225 42.7361L76.9039 42.7546Z" fill="white" fill-opacity="0.8"/>
<path d="M81.3175 39.973L80.9096 40.214C80.5758 40.3995 80.2234 40.5108 79.834 40.4922C79.4445 40.4922 79.0922 40.3809 78.7399 40.1955L77.349 39.3981C76.9967 39.1941 76.8298 38.9901 76.8298 38.7676C76.8298 38.545 76.9967 38.3411 77.349 38.1371L78.9624 37.2098C78.9624 37.2098 79.0922 37.1728 79.1664 37.2098L82.8382 39.3425C83.172 39.5464 83.3574 39.7504 83.3574 39.973C83.3574 40.1955 83.1905 40.418 82.8382 40.6035L81.4659 41.3823C81.4659 41.3823 81.3175 41.4194 81.2434 41.3823L80.9652 41.2154C80.9652 41.2154 80.891 41.1413 80.9652 41.0856L82.2633 40.3439C82.6713 40.1028 82.6713 39.8617 82.2633 39.6206L81.6884 39.2868C81.7997 39.5279 81.6884 39.7504 81.299 39.973H81.3175ZM80.9466 38.8603L79.0551 37.7662C79.0551 37.7662 78.9624 37.7476 78.9068 37.7662L77.8683 38.3596C77.4603 38.6007 77.4603 38.8418 77.8868 39.0828L79.222 39.8617C79.6485 40.1028 80.0751 40.1213 80.483 39.8617L80.891 39.6206C81.1135 39.4908 81.2248 39.361 81.2248 39.2312C81.2248 39.1014 81.1135 38.9716 80.891 38.8418L80.9466 38.8603Z" fill="white" fill-opacity="0.8"/>
<path d="M83.172 37.9701L84.0621 38.4893C84.0621 38.4893 84.1363 38.5635 84.0621 38.6006L83.6912 38.8231C83.6912 38.8231 83.5614 38.8602 83.4872 38.8231L82.5971 38.3039C82.5971 38.3039 82.5415 38.2297 82.5971 38.1926L82.968 37.9701C82.968 37.9701 83.0978 37.933 83.1534 37.9701H83.172Z" fill="white" fill-opacity="0.8"/>
<path d="M84.433 37.247L85.3232 37.7662C85.3232 37.7662 85.3973 37.8404 85.3232 37.8775L84.9523 38.1C84.9523 38.1 84.8225 38.1371 84.7483 38.1L83.8582 37.5808C83.8582 37.5808 83.8025 37.5066 83.8582 37.4695L84.229 37.247C84.229 37.247 84.3589 37.2099 84.4145 37.247H84.433Z" fill="white" fill-opacity="0.8"/>
<path d="M85.694 36.5238L86.5842 37.0431C86.5842 37.0431 86.6583 37.1172 86.5842 37.1543L86.2133 37.3769C86.2133 37.3769 86.0835 37.4139 86.0093 37.3769L85.1191 36.8576C85.1191 36.8576 85.0635 36.7834 85.1191 36.7463L85.49 36.5238C85.49 36.5238 85.6198 36.4867 85.6755 36.5238H85.694Z" fill="white" fill-opacity="0.8"/>
<path d="M69.3563 26.1385L36.1988 45.2764L33.9734 43.9782L67.131 24.8589L69.3563 26.1385Z" fill="#70CD28"/>
<defs>
<radialGradient id="paint0_radial_38_4609" cx="0" cy="0" r="1" gradientUnits="userSpaceOnUse" gradientTransform="translate(117.725 58.2058) rotate(90) scale(45.2711 72.932)">
<stop stop-color="#666666"/>
<stop offset="1"/>
</radialGradient>
<radialGradient id="paint1_radial_38_4609" cx="0" cy="0" r="1" gradientUnits="userSpaceOnUse" gradientTransform="translate(78.7199 66.0301) rotate(90) scale(67.9267 125.925)">
<stop stop-color="#666666"/>
<stop offset="1"/>
</radialGradient>
<linearGradient id="paint2_linear_38_4609" x1="102.942" y1="55.7951" x2="117.275" y2="55.7951" gradientUnits="userSpaceOnUse">
<stop stop-color="#A1BA8E"/>
<stop offset="1" stop-color="#E6F3C0"/>
</linearGradient>
<linearGradient id="paint3_linear_38_4609" x1="88.8665" y1="63.9769" x2="103.2" y2="63.9769" gradientUnits="userSpaceOnUse">
<stop stop-color="#A1BA8E"/>
<stop offset="1" stop-color="#E6F3C0"/>
</linearGradient>
<linearGradient id="paint4_linear_38_4609" x1="74.7542" y1="72.1731" x2="89.0691" y2="72.1731" gradientUnits="userSpaceOnUse">
<stop stop-color="#A1BA8E"/>
<stop offset="1" stop-color="#E6F3C0"/>
</linearGradient>
<linearGradient id="paint5_linear_38_4609" x1="112.789" y1="61.4885" x2="127.122" y2="61.4885" gradientUnits="userSpaceOnUse">
<stop stop-color="#A1BA8E"/>
<stop offset="1" stop-color="#E6F3C0"/>
</linearGradient>
<linearGradient id="paint6_linear_38_4609" x1="98.695" y1="69.6517" x2="113.029" y2="69.6517" gradientUnits="userSpaceOnUse">
<stop stop-color="#A1BA8E"/>
<stop offset="1" stop-color="#E6F3C0"/>
</linearGradient>
<linearGradient id="paint7_linear_38_4609" x1="84.6013" y1="77.8479" x2="98.9162" y2="77.8479" gradientUnits="userSpaceOnUse">
<stop stop-color="#A1BA8E"/>
<stop offset="1" stop-color="#E6F3C0"/>
</linearGradient>
<linearGradient id="paint8_linear_38_4609" x1="122.636" y1="67.1628" x2="136.969" y2="67.1628" gradientUnits="userSpaceOnUse">
<stop stop-color="#A1BA8E"/>
<stop offset="1" stop-color="#E6F3C0"/>
</linearGradient>
<linearGradient id="paint9_linear_38_4609" x1="108.542" y1="75.3445" x2="122.876" y2="75.3445" gradientUnits="userSpaceOnUse">
<stop stop-color="#A1BA8E"/>
<stop offset="1" stop-color="#E6F3C0"/>
</linearGradient>
<linearGradient id="paint10_linear_38_4609" x1="94.4484" y1="83.5408" x2="108.763" y2="83.5408" gradientUnits="userSpaceOnUse">
<stop stop-color="#A1BA8E"/>
<stop offset="1" stop-color="#E6F3C0"/>
</linearGradient>
<linearGradient id="paint11_linear_38_4609" x1="67.3906" y1="66.9742" x2="74.827" y2="66.9742" gradientUnits="userSpaceOnUse">
<stop stop-color="#A1BA8E"/>
<stop offset="1" stop-color="#E6F3C0"/>
</linearGradient>
<linearGradient id="paint12_linear_38_4609" x1="78.3504" y1="60.6504" x2="85.7867" y2="60.6504" gradientUnits="userSpaceOnUse">
<stop stop-color="#A1BA8E"/>
<stop offset="1" stop-color="#E6F3C0"/>
</linearGradient>
<linearGradient id="paint13_linear_38_4609" x1="89.3102" y1="54.3082" x2="96.7465" y2="54.3082" gradientUnits="userSpaceOnUse">
<stop stop-color="#A1BA8E"/>
<stop offset="1" stop-color="#E6F3C0"/>
</linearGradient>
<linearGradient id="paint14_linear_38_4609" x1="100.251" y1="47.9844" x2="107.688" y2="47.9844" gradientUnits="userSpaceOnUse">
<stop stop-color="#A1BA8E"/>
<stop offset="1" stop-color="#E6F3C0"/>
</linearGradient>
<radialGradient id="paint15_radial_38_4609" cx="0" cy="0" r="1" gradientUnits="userSpaceOnUse" gradientTransform="translate(139.769 99.3081) rotate(90) scale(16.3441 29.514)">
<stop stop-color="#666666"/>
<stop offset="1"/>
</radialGradient>
<radialGradient id="paint16_radial_38_4609" cx="0" cy="0" r="1" gradientUnits="userSpaceOnUse" gradientTransform="translate(136.907 104.649) rotate(90) scale(14.7839 30.5575)">
<stop stop-color="#666666"/>
<stop offset="1"/>
</radialGradient>
<radialGradient id="paint17_radial_38_4609" cx="0" cy="0" r="1" gradientUnits="userSpaceOnUse" gradientTransform="translate(140.526 100.724) rotate(90) scale(15.4291 30.5471)">
<stop stop-color="#666666"/>
<stop offset="1"/>
</radialGradient>
</defs>
</svg>
