<svg width="53" height="50" viewBox="0 0 53 50" fill="none" xmlns="http://www.w3.org/2000/svg">
<path d="M35.6666 1.61001C34.5725 0.9795 33.4969 0.4788 32.4399 0.10791C32.4955 0.219177 32.5697 0.348988 32.6253 0.460255C31.9392 0.460255 31.5683 0.460255 30.9007 0.4788C31.0305 0.738422 31.1603 0.9795 31.2901 1.23912C30.604 1.23912 30.2331 1.23912 29.5655 1.25767C29.6953 1.51729 29.8251 1.75837 29.9549 2.01799C29.2688 2.01799 28.8979 2.01799 28.2303 2.03654C28.3601 2.29616 28.4899 2.53724 28.6197 2.79686C27.9521 2.79686 27.6183 2.79686 26.8951 2.8154C27.0249 3.07503 27.1547 3.3161 27.2845 3.57573C26.5984 3.57573 26.2275 3.57573 25.5599 3.59427C25.6897 3.85389 25.8195 4.09497 25.9493 4.35459C25.2632 4.35459 24.8923 4.35459 24.2247 4.37314C24.3545 4.63276 24.4843 4.87384 24.6141 5.13346C23.928 5.13346 23.5571 5.13346 22.8895 5.15201C23.0193 5.41163 23.1491 5.65271 23.2789 5.91233C22.5928 5.91233 22.2219 5.91233 21.5543 5.93088C21.6841 6.1905 21.8139 6.43158 21.9437 6.6912C21.2576 6.6912 20.8867 6.6912 20.2191 6.70974C20.3489 6.96937 20.4787 7.21044 20.6085 7.47007C19.9224 7.47007 19.5515 7.47007 18.8839 7.48861C19.0137 7.74823 19.1435 7.98931 19.2733 8.24893C18.5872 8.24893 18.2163 8.24893 17.5487 8.26748C17.6785 8.5271 17.8083 8.76818 17.9381 9.0278C17.2705 9.0278 16.9367 9.0278 16.2135 9.04635C16.3433 9.30597 16.4731 9.54705 16.6029 9.80667C15.9168 9.80667 15.5459 9.80667 14.8783 9.82521C15.0081 10.0848 15.1379 10.3259 15.2677 10.5855C14.5816 10.5855 14.2107 10.5855 13.5431 10.6041C13.6729 10.8637 13.8027 11.1048 13.9325 11.3644C13.2463 11.3644 12.8755 11.3644 12.2079 11.3829C12.3377 11.6426 12.4675 11.8837 12.5973 12.1433C11.9111 12.1433 11.5403 12.1433 10.8727 12.1618C11.0025 12.4214 11.1323 12.6625 11.2621 12.9221C10.5759 12.9221 10.2051 12.9221 9.53745 12.9407C9.66727 13.2003 9.79708 13.4414 9.92689 13.701C9.24074 13.701 8.86985 13.701 8.20225 13.7196C8.33206 13.9792 8.46187 14.2203 8.59169 14.4799C7.90554 14.4799 7.53465 14.4799 6.86705 14.4984C6.99686 14.758 7.12667 14.9991 7.25649 15.2587C6.58888 15.2587 6.25508 15.2587 5.53185 15.2773C5.66166 15.5369 5.79147 15.778 5.92128 16.0376C5.23514 16.0376 4.86425 16.0376 4.19665 16.0562C4.32646 16.3158 4.45627 16.5569 4.58608 16.8165C3.89993 16.8165 3.52905 16.8165 2.86145 16.835C2.99126 17.0946 3.12107 17.3357 3.25088 17.5954C2.56473 17.5954 2.19384 17.5953 1.52624 17.6139C1.65605 17.8735 1.78587 18.1146 1.91568 18.3742C1.22953 18.3742 0.858641 18.3742 0.19104 18.3928C0.265218 18.5411 0.376485 18.7451 0.450663 18.8935C1.47061 19.2644 2.5091 19.7465 3.54759 20.3399C12.5231 25.5138 19.7925 38.1241 19.774 48.4348L21.6285 49.5289L52.1156 31.9117V29.6307C52.1527 19.32 44.8647 6.70974 35.8892 1.53583L35.6666 1.61001Z" fill="#FCF0F6"/>
<path d="M12.8569 21.564L12.2264 21.9349C12.9496 22.6581 13.8768 23.6409 14.5444 24.3827L15.175 24.0118C14.4888 23.2515 13.5616 22.2872 12.8569 21.564Z" fill="#23262F"/>
<path d="M14.1179 20.8408L13.4874 21.2117C14.2107 21.9349 15.1379 22.9178 15.8055 23.6596L16.436 23.2887C15.7499 22.5284 14.8226 21.5641 14.1179 20.8408Z" fill="#23262F"/>
<path d="M14.8041 20.4326L14.6557 20.5253C15.3789 21.2486 16.3062 22.2314 16.9738 22.9732L17.1221 22.8805C16.436 22.1202 15.5087 21.1559 14.8041 20.4326Z" fill="#23262F"/>
<path d="M15.4531 20.0615L15.3047 20.1542C16.028 20.8775 16.9552 21.8603 17.6228 22.6021L17.7712 22.5094C17.085 21.7491 16.1578 20.7848 15.4531 20.0615Z" fill="#23262F"/>
<path d="M16.6029 19.394L15.9724 19.7649C16.6956 20.4882 17.6228 21.471 18.2904 22.2128L18.9209 21.8419C18.2348 21.0816 17.3076 20.1173 16.6029 19.394Z" fill="#23262F"/>
<path d="M17.8639 18.6523L17.2334 19.0232C17.9566 19.7465 18.8839 20.7293 19.5515 21.4711L20.182 21.1002C19.4958 20.3399 18.5686 19.3756 17.8639 18.6523Z" fill="#23262F"/>
<path d="M19.1063 17.9292L18.4758 18.3001C19.1991 19.0233 20.1263 20.0062 20.7939 20.748L21.4244 20.3771C20.7383 19.6167 19.811 18.6524 19.1063 17.9292Z" fill="#23262F"/>
<path d="M19.8481 17.5024L19.6071 17.6323C20.3303 18.3555 21.2575 19.3383 21.9251 20.0801L22.1662 19.9503C21.48 19.19 20.5528 18.2257 19.8481 17.5024Z" fill="#23262F"/>
<path d="M21.3688 16.6123L20.4601 17.1316C21.1834 17.8548 22.1106 18.8376 22.7782 19.5794L23.6869 19.0602C23.0007 18.2999 22.0735 17.3355 21.3688 16.6123Z" fill="#23262F"/>
<path d="M22.5927 15.9077L22.0178 16.2415C22.7411 16.9647 23.6683 17.9476 24.3359 18.6894L24.9108 18.3556C24.2246 17.5953 23.2974 16.6309 22.5927 15.9077Z" fill="#23262F"/>
<path d="M23.3716 15.4443L23.2233 15.5371C23.9465 16.2603 24.8737 17.2431 25.5413 17.9849L25.6897 17.8922C25.0035 17.1319 24.0763 16.1676 23.3716 15.4443Z" fill="#23262F"/>
<path d="M24.6326 14.7207L24.0021 15.0916C24.7254 15.8148 25.6526 16.7977 26.3202 17.5395L26.9507 17.1686C26.2646 16.4082 25.3373 15.4439 24.6326 14.7207Z" fill="#23262F"/>
<path d="M25.8936 13.9976L25.2631 14.3684C25.9864 15.0917 26.9136 16.0745 27.5812 16.8163L28.2117 16.4454C27.5255 15.6851 26.5983 14.7208 25.8936 13.9976Z" fill="#23262F"/>
<path d="M26.5798 13.5898L26.4315 13.6826C27.1547 14.4058 28.0819 15.3887 28.7495 16.1304L28.8979 16.0377C28.2117 15.2774 27.2845 14.3131 26.5798 13.5898Z" fill="#23262F"/>
<path d="M27.2103 13.2188L27.062 13.3115C27.7852 14.0347 28.7124 15.0176 29.38 15.7593L29.5284 15.6666C28.8422 14.9063 27.915 13.942 27.2103 13.2188Z" fill="#23262F"/>
<path d="M28.3601 12.5513L27.7296 12.9222C28.4528 13.6454 29.38 14.6282 30.0476 15.37L30.6781 14.9991C29.992 14.2388 29.0648 13.2745 28.3601 12.5513Z" fill="#23262F"/>
<path d="M29.6211 11.8096L28.9906 12.1805C29.7138 12.9037 30.6411 13.8866 31.3087 14.6283L31.9392 14.2574C31.253 13.4971 30.3258 12.5328 29.6211 11.8096Z" fill="#23262F"/>
<path d="M30.8821 11.0864L30.2516 11.4573C30.9748 12.1805 31.902 13.1634 32.5696 13.9052L33.2002 13.5343C32.514 12.774 31.5868 11.8097 30.8821 11.0864Z" fill="#23262F"/>
<path d="M31.6239 10.6597L31.3828 10.7895C32.106 11.5127 33.0333 12.4956 33.7009 13.2373L33.9419 13.1075C33.2558 12.3472 32.3286 11.3829 31.6239 10.6597Z" fill="#23262F"/>
<path d="M33.1445 9.76953L32.2358 10.2888C32.9591 11.012 33.8863 11.9949 34.5539 12.7366L35.4626 12.2174C34.7764 11.4571 33.8492 10.4928 33.1445 9.76953Z" fill="#23262F"/>
<path d="M35.407 8.47119L33.8121 9.39842C34.5354 10.1216 35.4626 11.1045 36.1302 11.8463L37.725 10.9191C37.0389 10.1587 36.1116 9.19443 35.407 8.47119Z" fill="#23262F"/>
<path d="M36.1858 8.00781L36.0375 8.10053C36.7607 8.82377 37.6879 9.80663 38.3555 10.5484L38.5039 10.4557C37.8177 9.69536 36.8905 8.73105 36.1858 8.00781Z" fill="#23262F"/>
<path d="M44.1043 11.0679L44.2342 11.2533C33.7194 17.3544 23.8723 23.0847 13.3761 29.1858L13.2463 29.0004C23.7611 22.8992 33.6082 17.169 44.1043 11.0679Z" fill="#23262F"/>
<path d="M49.0187 20.3584L49.0928 20.5624C38.5781 26.6635 28.731 32.3938 18.2348 38.4949L18.1606 38.2909C28.6754 32.1898 38.5225 26.4595 49.0187 20.3584Z" fill="#23262F"/>
<path d="M9.9825 17.7436H10.1123C10.2792 17.8549 10.3163 17.9105 10.3905 18.0403C10.409 17.9847 10.409 17.9291 10.4647 17.8178C10.5017 17.7436 10.5759 17.7004 10.6872 17.688L10.9097 17.7622L10.9468 17.8549C10.9468 17.8549 10.817 18.0218 10.4832 18.1516C10.5574 18.1331 10.7428 18.0774 10.9654 18.096C11.089 18.096 11.1817 18.1269 11.2435 18.1887L11.1879 18.337L11.0766 18.3927C10.817 18.3556 10.6316 18.3 10.4461 18.1701C10.2607 18.3741 10.1494 18.3927 9.92687 18.4854L9.79706 18.4483L9.68579 18.3C9.9825 18.1516 10.1494 18.1516 10.4276 18.1701C10.1679 18.1145 10.0938 18.096 10.0938 18.096C10.001 18.0589 9.83415 17.9847 9.83415 17.9847C9.8156 17.8734 9.9825 17.7807 9.9825 17.7807V17.7436Z" fill="#23262F"/>
<path d="M10.4458 18.1519C10.3472 18.3738 10.3102 18.5217 10.3349 18.5957L10.4458 18.6512H10.6862C10.6862 18.6512 10.7417 18.5957 10.7787 18.5772C10.7232 18.3738 10.6308 18.2813 10.4458 18.1519Z" fill="#23262F"/>
<path d="M12.6526 16.8721C12.893 17.0385 12.93 17.1125 12.9855 17.2974C12.967 17.3159 12.93 17.3529 12.893 17.3714H12.6526L12.5416 17.3159C12.5293 17.2296 12.5355 17.1372 12.5601 17.0385L12.6526 16.8721Z" fill="#23262F"/>
<path d="M12.1893 16.4643H12.3191C12.5045 16.5756 12.5602 16.6869 12.5973 16.761C12.6344 16.6683 12.6344 16.6312 12.69 16.5385C12.7271 16.4643 12.8013 16.4211 12.9125 16.4087L13.1165 16.4829C13.1165 16.6312 13.0238 16.7425 12.69 16.8723C13.2649 16.7239 13.3947 16.8723 13.4503 16.9094L13.3947 17.0577L13.2834 17.1134C13.0238 17.0763 12.8383 17.0207 12.6529 16.8908C12.4675 17.0763 12.3562 17.1134 12.1337 17.2061L12.0038 17.169L11.8926 17.0207C12.1893 16.8723 12.3747 16.8723 12.6344 16.8908C12.3006 16.8167 12.2078 16.7796 12.2078 16.7796L12.0409 16.6869C12.0038 16.5756 12.1893 16.4829 12.1893 16.4829V16.4643Z" fill="#23262F"/>
<path d="M14.8408 15.5928C15.0813 15.7777 15.1182 15.8517 15.1737 16.0181C15.1552 16.0366 15.1182 16.0736 15.0813 16.0921H14.8408L14.7299 16.0366C14.7114 15.9257 14.7114 15.9257 14.7484 15.7592L14.8408 15.5928Z" fill="#23262F"/>
<path d="M14.3776 15.1845H14.5074C14.6928 15.3144 14.767 15.4442 14.7856 15.4813C14.7856 15.37 14.8412 15.3144 14.8597 15.2587C14.8968 15.1845 14.971 15.1413 15.0823 15.1289L15.2863 15.2031L15.3233 15.2773C15.3233 15.2773 15.175 15.4627 14.8597 15.574C15.0266 15.5369 15.175 15.4998 15.379 15.5183C15.4779 15.5183 15.5582 15.5492 15.6201 15.6111L15.5644 15.7594L15.4532 15.8151C15.1935 15.778 15.0081 15.7223 14.8226 15.5925C14.6557 15.778 14.6001 15.7965 14.3034 15.9078L14.1736 15.8707L14.0623 15.7223C14.359 15.574 14.5445 15.574 14.8041 15.5925C14.4703 15.5183 14.3776 15.4813 14.3776 15.4813L14.2107 15.3885C14.1921 15.2773 14.359 15.1845 14.359 15.1845H14.3776Z" fill="#23262F"/>
<path d="M26.1904 8.32321H26.3202C26.4871 8.43448 26.5242 8.49011 26.5984 8.61992C26.6169 8.56429 26.6169 8.50866 26.6725 8.39739C26.7096 8.32321 26.7838 8.27994 26.8951 8.26758L27.1176 8.34176L27.1547 8.43448C27.1547 8.43448 27.0063 8.61992 26.6911 8.73119C27.266 8.58283 27.3958 8.73119 27.4514 8.76828L27.3958 8.91663L27.2845 8.97227C27.0249 8.93518 26.8394 8.87955 26.6354 8.74973C26.45 8.93518 26.3387 8.97227 26.1162 9.06499L25.9864 9.0279L25.8751 8.87955C26.1718 8.73119 26.3387 8.73119 26.6169 8.74973C26.3573 8.6941 26.2831 8.67556 26.2831 8.67556C26.1904 8.63847 26.0235 8.56429 26.0235 8.56429C26.0049 8.45302 26.1718 8.3603 26.1718 8.3603L26.1904 8.32321Z" fill="#23262F"/>
<path d="M26.6537 8.73145C26.5674 8.95338 26.5304 9.10134 26.5427 9.17532L26.6537 9.2308H26.8941C26.8941 9.2308 26.9496 9.17532 26.9681 9.15682C26.9311 8.93489 26.7831 8.84241 26.6352 8.73145H26.6537Z" fill="#23262F"/>
<path d="M28.8419 7.45166C29.0824 7.61811 29.1193 7.69209 29.1748 7.87704C29.1563 7.89553 29.1193 7.93252 29.0824 7.95101H28.8419L28.731 7.89553C28.7125 7.78456 28.7125 7.78456 28.7495 7.61811L28.8419 7.45166Z" fill="#23262F"/>
<path d="M28.3786 7.04391H28.5084C28.6939 7.17373 28.7495 7.26645 28.7866 7.34063C28.7866 7.2479 28.8422 7.17373 28.8793 7.11809C28.9164 7.04391 28.9906 7.00064 29.1018 6.98828L29.3058 7.06246L29.3429 7.13664C29.3429 7.13664 29.1946 7.32208 28.8793 7.43335C29.0833 7.37772 29.2317 7.35917 29.3986 7.37772C29.4975 7.37772 29.5716 7.40862 29.6211 7.47044L29.5655 7.61879L29.4542 7.67443C29.1946 7.63734 29.0091 7.5817 28.8237 7.45189C28.6382 7.63734 28.5455 7.67443 28.3044 7.76715L28.1746 7.73006L28.0634 7.5817C28.3601 7.43335 28.5455 7.43335 28.8051 7.45189C28.4713 7.37772 28.3786 7.34063 28.3786 7.34063L28.2117 7.2479C28.1932 7.13664 28.3601 7.04391 28.3601 7.04391H28.3786Z" fill="#23262F"/>
<path d="M31.0487 6.17188C31.2891 6.35682 31.3261 6.4308 31.3816 6.59725C31.3631 6.61575 31.3261 6.65274 31.2891 6.67123H31.0487L30.9377 6.63424C30.9192 6.52327 30.9377 6.52327 30.9747 6.35682L31.0672 6.19037L31.0487 6.17188Z" fill="#23262F"/>
<path d="M30.5854 5.76413H30.7152C30.8636 5.85685 30.9007 5.91249 30.9934 6.06084C30.9934 5.94957 31.049 5.89394 31.0676 5.83831C31.1046 5.76413 31.1788 5.72086 31.2901 5.7085L31.4941 5.78267L31.5312 5.85685C31.5312 5.85685 31.3828 6.0423 31.0676 6.15356C31.1417 6.15356 31.3457 6.07939 31.5497 6.09793C31.6733 6.09793 31.7661 6.12884 31.8279 6.19065L31.7722 6.33901L31.661 6.39464C31.4014 6.35755 31.2159 6.30192 31.0305 6.17211C30.845 6.3761 30.7338 6.39464 30.5112 6.48736L30.3814 6.45028L30.2701 6.30192C30.5483 6.15356 30.7894 6.19065 31.0119 6.17211C30.6781 6.09793 30.5854 6.06084 30.5854 6.06084L30.4185 5.96812C30.3814 5.85685 30.5669 5.76413 30.5669 5.76413H30.5854Z" fill="#23262F"/>
<path d="M23.6498 8.62012C24.7439 9.26917 24.8737 9.3619 26.5242 10.5858C23.5756 12.2919 20.627 14.0166 17.6785 15.7227C16.6214 14.9067 16.5102 14.8325 14.8041 13.7569C17.7526 12.0508 20.7012 10.3262 23.6498 8.62012Z" fill="#23262F"/>
<path d="M50.6691 30.2427V29.334C49.6862 29.8903 48.4252 30.6321 47.4609 31.1884V32.0971C48.4808 31.5222 49.6491 30.8361 50.6691 30.2427Z" fill="#23262F"/>
<path d="M29.6767 42.4077V41.4805C26.4129 43.372 23.5571 45.0225 20.3118 46.914V47.8412C23.5756 45.9497 26.4314 44.2992 29.6767 42.4077Z" fill="#23262F"/>
<path d="M22.9636 41.6855C21.8509 42.3346 21.1462 42.7426 20.0521 43.3731L20.1263 43.7996C21.239 43.1506 21.9437 42.7426 23.0378 42.1121L22.9636 41.6855Z" fill="#23262F"/>
<path d="M29.176 38.0879C28.2117 38.6442 26.9136 39.4045 25.9492 39.9609C25.1704 40.4245 24.1133 41.0179 23.3345 41.4815L23.4086 41.9081C25.3558 40.7768 27.303 39.6456 29.2502 38.5144L29.176 38.0879Z" fill="#23262F"/>
<path d="M32.069 36.3999C31.3086 36.845 30.2887 37.4384 29.5284 37.8835L29.6026 38.31C30.3629 37.8649 31.3828 37.2715 32.1432 36.8264L32.069 36.3999Z" fill="#23262F"/>
<path d="M34.4797 35.0088C33.8677 35.3611 33.0518 35.8433 32.4398 36.1956L32.514 36.6222C33.126 36.2698 33.9419 35.7877 34.5539 35.4353L34.4797 35.0088Z" fill="#23262F"/>
<path d="M38.8748 32.4312C37.521 33.21 36.1858 33.9889 34.8321 34.7863L34.9063 35.2128C35.8706 34.6565 37.1687 33.8962 38.133 33.3398C38.3741 33.1915 38.7079 33.006 38.949 32.8762L38.8748 32.4497V32.4312Z" fill="#23262F"/>
<path d="M28.4528 36.604C25.3744 38.3843 22.704 39.942 19.6256 41.7408L19.7183 42.1673C22.7967 40.3871 25.4671 38.8293 28.5455 37.0305L28.4528 36.604Z" fill="#23262F"/>
<path d="M33.4042 33.7295L28.8237 36.3814L28.9164 36.8079C30.437 35.9177 31.9762 35.0276 33.4969 34.156L33.4042 33.7295Z" fill="#23262F"/>
<path d="M37.5766 31.3003C36.2971 32.0421 35.036 32.7839 33.7565 33.5256L33.8492 33.9522C34.8135 33.3958 36.1116 32.6355 37.0759 32.0792C37.2428 31.9864 37.4839 31.8381 37.6508 31.7454L37.5581 31.3188L37.5766 31.3003Z" fill="#23262F"/>
<path d="M39.9689 29.9092C39.3569 30.2615 38.541 30.7437 37.929 31.096L38.0217 31.5226C38.6337 31.1702 39.4497 30.688 40.0616 30.3357L39.9689 29.9092Z" fill="#23262F"/>
<path d="M23.6868 37.4014C22.0549 38.3471 20.8124 39.0704 19.162 40.0347L19.2918 40.4612C20.9237 39.5154 22.1662 38.7922 23.8167 37.8279L23.6868 37.4014Z" fill="#23262F"/>
<path d="M29.8992 33.7852C27.9521 34.9164 25.9864 36.0476 24.0392 37.1973L24.169 37.6239C25.1333 37.0675 26.4314 36.3072 27.3957 35.7509C28.1746 35.2873 29.2316 34.6753 30.0105 34.2302L29.8807 33.8037L29.8992 33.7852Z" fill="#23262F"/>
<path d="M32.7922 32.0977C32.0319 32.5427 31.0119 33.1361 30.2516 33.5812L30.3814 34.0077C31.1417 33.5627 32.1617 32.9692 32.922 32.5242L32.7922 32.0977Z" fill="#23262F"/>
<path d="M35.203 30.707C34.591 31.0594 33.7751 31.5415 33.1631 31.8939L33.2929 32.3204C33.9049 31.9681 34.7208 31.4859 35.3328 31.1336L35.203 30.707Z" fill="#23262F"/>
<path d="M40.1729 27.8135C38.6337 28.7036 37.0945 29.5937 35.5553 30.4839L35.6851 30.9104L40.3027 28.24L40.1729 27.8135Z" fill="#23262F"/>
<path d="M23.6683 32.0791C21.4986 33.3401 19.7183 34.3786 17.5301 35.6396L17.7155 36.0476C19.8852 34.7866 21.6655 33.7481 23.8538 32.4871L23.6683 32.0791Z" fill="#23262F"/>
<path d="M28.6011 29.2231C27.6368 29.7795 26.3387 30.5398 25.3744 31.0961C24.9664 31.3372 24.4286 31.6339 24.0392 31.875L24.2246 32.283C25.1889 31.7266 26.4871 30.9663 27.4514 30.41C27.8593 30.1689 28.3971 29.8722 28.7866 29.6311L28.6011 29.2231Z" fill="#23262F"/>
<path d="M32.7737 26.7939C31.4941 27.5357 30.2331 28.2775 28.9535 29.0193L29.1389 29.4273C30.4185 28.6855 31.6795 27.9437 32.9591 27.2019L32.7737 26.7939Z" fill="#23262F"/>
<path d="M37.3356 24.1421C35.9447 24.958 34.5354 25.774 33.1445 26.5714L33.33 26.9794C34.7208 26.1634 36.1302 25.3475 37.521 24.5501L37.3356 24.1421Z" fill="#23262F"/>
<path d="M23.2047 30.2432C20.9052 31.5784 19.0136 32.6725 16.7327 34.0077L16.9367 34.4342C19.2362 33.099 21.1277 32.0049 23.4087 30.6697L23.2047 30.2432Z" fill="#23262F"/>
<path d="M26.0976 28.5557C25.3373 29.0007 24.3173 29.5942 23.557 30.0392L23.761 30.4657C24.5213 30.0207 25.5413 29.4273 26.3016 28.9822L26.0976 28.5557Z" fill="#23262F"/>
<path d="M28.5084 27.146C27.8964 27.4983 27.0805 27.9805 26.4685 28.3328L26.6725 28.7594C27.2845 28.407 28.1004 27.9249 28.7124 27.5725L28.5084 27.146Z" fill="#23262F"/>
<path d="M33.4783 24.2715C31.9391 25.1616 30.3999 26.0518 28.8793 26.9419L29.0833 27.3684C30.6225 26.4783 32.1616 25.5881 33.6823 24.698L33.4783 24.2715Z" fill="#23262F"/>
<path d="M38.0774 21.6011L33.8307 24.0675L34.0347 24.494C35.4441 23.6781 36.872 22.8436 38.2814 22.0276L38.0774 21.6011Z" fill="#23262F"/>
<path d="M21.9808 28.8149C19.8111 30.076 18.0493 31.0959 15.8796 32.3569L16.1022 32.7649C18.2719 31.5039 20.0336 30.4839 22.2033 29.2229L21.9808 28.8149Z" fill="#23262F"/>
<path d="M26.9136 25.9595C25.3929 26.8496 23.8537 27.7397 22.3331 28.6113L22.5556 29.0193C24.0763 28.1292 25.6154 27.239 27.1361 26.3675L26.9136 25.9595Z" fill="#23262F"/>
<path d="M31.0861 23.5298C29.8065 24.2716 28.5455 25.0133 27.2659 25.7551L27.4885 26.1631C28.768 25.4213 30.0291 24.6795 31.3086 23.9378L31.0861 23.5298Z" fill="#23262F"/>
<path d="M33.4969 22.1396C32.8849 22.492 32.0689 22.9742 31.457 23.3265L31.6795 23.7345C32.2915 23.3821 33.1074 22.9 33.7194 22.5476L33.4969 22.1396Z" fill="#23262F"/>
<path d="M36.7607 20.229C35.8891 20.7297 34.7208 21.4158 33.8492 21.9166L34.0717 22.3245C34.9433 21.8238 36.1116 21.1377 36.9832 20.637L36.7607 20.229Z" fill="#23262F"/>
<path d="M16.7141 29.7427C16.0651 30.1136 15.62 30.3917 14.9709 30.7626L15.212 31.1521C15.8611 30.7812 16.3061 30.503 16.9552 30.1321L16.7141 29.7427Z" fill="#23262F"/>
<path d="M22.945 26.145C20.9979 27.2762 19.0507 28.4074 17.1035 29.5387L17.3446 29.9281C19.2918 28.7969 21.2389 27.6657 23.1861 26.5345L22.945 26.145Z" fill="#23262F"/>
<path d="M25.838 24.457C25.0777 24.9021 24.0577 25.4955 23.2974 25.9406L23.5385 26.33C24.2988 25.885 25.3188 25.2915 26.0791 24.8465L25.838 24.457Z" fill="#23262F"/>
<path d="M28.2488 23.0664C27.6368 23.4188 26.8208 23.9009 26.2089 24.2533L26.4499 24.6427C27.0619 24.2903 27.8779 23.8082 28.4898 23.4558L28.2488 23.0664Z" fill="#23262F"/>
<path d="M33.2002 20.1738C31.661 21.064 30.1403 21.9541 28.6011 22.8442L28.8422 23.2337C30.3814 22.3435 31.902 21.4534 33.4412 20.5633L33.2002 20.1738Z" fill="#23262F"/>
<path d="M36.1116 18.4858C35.3513 18.9309 34.3314 19.5243 33.571 19.9694L33.8121 20.3588C34.5724 19.9138 35.5924 19.3203 36.3527 18.8753L36.1116 18.4858Z" fill="#23262F"/>
<path d="M50.7062 32.0785L47.4609 33.933V32.9316L50.7062 31.0586V32.0785Z" fill="#23262F"/>
<path d="M20.8681 49.2878L27.6925 45.3564V44.3364L20.4416 48.5275V49.0467L20.8681 49.2878Z" fill="#23262F"/>
</svg>
