<svg width="220" height="175" viewBox="0 0 220 175" fill="none" xmlns="http://www.w3.org/2000/svg">
<g clip-path="url(#clip0_1_16275)">
<path d="M199.188 119.327L192.75 123.063L193.016 123.525L199.454 119.789L199.188 119.327Z" fill="white"/>
<path d="M192.747 123.053L182.351 129.086L182.617 129.548L193.013 123.515L192.747 123.053Z" fill="white"/>
<path d="M143.07 152.454L142.935 152.379L99.6526 127.232L99.9145 126.774L143.07 151.846L155.961 144.374L156.223 144.832L143.07 152.454Z" fill="white"/>
<path d="M201.076 118.409C200.231 117.921 198.854 117.921 198.009 118.409C197.163 118.897 197.163 119.693 198.009 120.189C198.854 120.677 200.231 120.677 201.076 120.189C201.922 119.701 201.922 118.905 201.076 118.409Z" fill="white"/>
<path opacity="0.6" d="M205.625 115.773C204.78 115.285 203.403 115.285 202.557 115.773C201.712 116.261 201.712 117.057 202.557 117.553C203.403 118.041 204.78 118.041 205.625 117.553C206.47 117.065 206.47 116.269 205.625 115.773Z" fill="white"/>
<path opacity="0.4" d="M210.181 113.13C209.336 112.642 207.959 112.642 207.114 113.13C206.268 113.619 206.268 114.414 207.114 114.91C207.959 115.398 209.336 115.398 210.181 114.91C211.027 114.422 211.027 113.626 210.181 113.13Z" fill="white"/>
<path opacity="0.2" d="M214.73 110.494C213.885 110.006 212.508 110.006 211.663 110.494C210.817 110.983 210.817 111.778 211.663 112.274C212.508 112.762 213.885 112.762 214.73 112.274C215.576 111.786 215.576 110.99 214.73 110.494Z" fill="white"/>
<path opacity="0.1" d="M219.279 107.858C218.434 107.37 217.057 107.37 216.212 107.858C215.366 108.347 215.366 109.143 216.212 109.638C217.057 110.126 218.434 110.126 219.279 109.638C220.125 109.15 220.125 108.354 219.279 107.858Z" fill="white"/>
<path d="M59.3694 157.448C60.3495 157.448 61.3296 157.193 62.1975 156.69L133.701 115.279C133.963 115.129 134.12 114.851 134.12 114.543C134.12 114.235 133.963 113.965 133.701 113.807L86.9398 86.7075L86.7977 86.7901L12.6156 129.756C12.3537 129.906 12.1966 130.184 12.1966 130.492C12.1966 130.8 12.3537 131.07 12.6156 131.228L56.5488 156.683C57.4241 157.186 58.3968 157.441 59.3769 157.441L59.3694 157.448ZM86.9324 87.3758L133.417 114.31C133.544 114.385 133.551 114.498 133.551 114.55C133.551 114.603 133.537 114.716 133.417 114.791L61.9207 156.194C60.3495 157.103 58.3968 157.103 56.8256 156.194L12.8924 130.739C12.7652 130.664 12.7577 130.552 12.7577 130.499C12.7577 130.454 12.7727 130.334 12.8924 130.259L86.9324 87.3758Z" fill="white"/>
<path d="M84.8447 72.9516L75.7543 18.8128L76.4875 18.5049L75.3877 17.8742C75.1782 17.739 74.8715 17.7465 74.5423 17.9418L1.87894 60.0439C1.2804 60.3893 0.83149 61.2754 0.936241 61.8986L10.1015 116.465C10.1463 116.751 10.2885 116.938 10.483 117.021L11.5604 117.644L11.7475 116.638L11.6876 116.653L83.9095 74.8063C84.508 74.4609 84.957 73.5749 84.8522 72.9516H84.8447Z" fill="url(#paint0_linear_1_16275)"/>
<path d="M2.28327 61.5231L1.08619 60.99C0.951515 61.2979 0.884174 61.6207 0.929065 61.8911L10.0943 116.458C10.1392 116.743 10.2813 116.931 10.4759 117.014L11.5532 117.637L11.7403 116.631L11.6804 116.646L15.3315 114.528L2.28327 61.5156V61.5231Z" fill="#59BDEF"/>
<path d="M85.0394 75.4597L12.3761 117.562C11.8149 117.885 11.3361 117.697 11.2388 117.119L2.07362 62.552C1.96887 61.9288 2.41779 61.0427 3.01633 60.6973L75.6796 18.5951C76.2408 18.2723 76.7196 18.46 76.8169 19.0382L85.9821 73.605C86.0868 74.2283 85.6379 75.1143 85.0394 75.4597Z" fill="#626365"/>
<path d="M85.0394 75.4597L12.3761 117.562C11.8149 117.885 11.3361 117.697 11.2388 117.119L2.07362 62.552C1.96887 61.9288 2.41779 61.0427 3.01633 60.6973L75.6796 18.5951C76.2408 18.2723 76.7196 18.46 76.8169 19.0382L85.9821 73.605C86.0868 74.2283 85.6379 75.1143 85.0394 75.4597Z" fill="#626365"/>
<path d="M75.5526 21.5986L3.78711 63.1902L12.4735 114.581L84.1941 73.0193L75.5526 21.5986Z" fill="#C8F0FF"/>
<path d="M130.716 101.288L126.75 103.368L86.9846 80.3313C86.3187 79.9483 85.1591 79.9934 84.3884 80.4364L15.8102 120.173C15.1518 119.805 12.159 118.364 12.159 118.364L13.6105 122.163C13.6704 122.328 13.7976 122.486 14.0145 122.614L55.8902 146.882C56.5561 147.265 57.7158 147.22 58.4864 146.777L128.681 106.102C128.995 105.921 129.19 105.696 129.272 105.471L130.716 101.288Z" fill="url(#paint1_radial_1_16275)"/>
<path d="M130.102 101.95L58.1796 143.624C57.394 144.082 56.2044 144.127 55.5161 143.737L12.6005 118.867C11.9196 118.469 12.0019 117.779 12.795 117.328L84.7176 75.6539C85.5032 75.1958 86.6928 75.1508 87.3811 75.5412L130.297 100.403C130.978 100.801 130.895 101.492 130.102 101.942V101.95Z" fill="#E4E4E4"/>
<path opacity="0.5" d="M130.102 101.243L58.1797 142.917C57.3941 143.375 56.2045 143.42 55.5162 143.03L12.6005 118.16C12.4359 118.063 12.3237 117.957 12.2414 117.837C12.0319 118.205 12.1441 118.603 12.6005 118.866L55.5162 143.735C56.197 144.133 57.3866 144.081 58.1797 143.623L130.102 101.949C130.701 101.603 130.895 101.115 130.649 100.732C130.544 100.912 130.364 101.093 130.102 101.243Z" fill="white"/>
<path d="M36.4899 134.607V133.818C36.4899 133.743 36.5348 133.705 36.5947 133.743L39.3779 135.357C39.4303 135.387 39.4827 135.478 39.4827 135.553V136.341C39.4827 136.416 39.4378 136.454 39.3779 136.416L36.5947 134.802C36.5423 134.772 36.4899 134.682 36.4899 134.607Z" fill="#8E9DAE"/>
<path d="M40.6499 137.015V136.226C40.6499 136.151 40.6947 136.114 40.7546 136.151L43.5378 137.766C43.5902 137.796 43.6426 137.886 43.6426 137.961V138.749C43.6426 138.824 43.5977 138.862 43.5378 138.824L40.7546 137.21C40.7022 137.18 40.6499 137.09 40.6499 137.015Z" fill="#1458A7"/>
<path d="M86.4534 85.0319L34.5371 115.112L32.2252 113.776L84.1415 83.6953L86.4534 85.0319Z" fill="url(#paint2_radial_1_16275)"/>
<path d="M92.1096 88.3136L43.418 116.532L41.1061 115.188L89.8052 86.9771L92.1096 88.3136Z" fill="url(#paint3_radial_1_16275)"/>
<path d="M95.7981 90.4457L38.465 123.672L36.1531 122.328L93.4862 89.1091L95.7981 90.4457Z" fill="url(#paint4_radial_1_16275)"/>
<path d="M99.4866 92.5858L42.146 125.805L39.8416 124.468L97.1747 91.2493L99.4866 92.5858Z" fill="url(#paint5_radial_1_16275)"/>
<path d="M103.168 94.7184L45.8346 127.938L43.5302 126.601L100.863 93.3818L103.168 94.7184Z" fill="url(#paint6_radial_1_16275)"/>
<path d="M31.3948 116.93L29.0904 118.274L26.7785 116.93L29.0904 115.594L31.3948 116.93Z" fill="url(#paint7_radial_1_16275)"/>
<path d="M39.5425 118.776L34.7466 121.547L32.4422 120.21L37.2306 117.432L39.5425 118.776Z" fill="url(#paint8_radial_1_16275)"/>
<g opacity="0.11">
<mask id="mask0_1_16275" style="mask-type:luminance" maskUnits="userSpaceOnUse" x="3" y="22" width="81" height="93">
<path d="M74.7296 22.0789L3.78709 63.1898L12.4735 114.58L83.3711 73.4995L74.7296 22.0789Z" fill="white"/>
</mask>
<g mask="url(#mask0_1_16275)">
<path d="M79.6899 74.1529L-0.380463 120.55C-1.25583 121.061 -2.58011 121.113 -3.34325 120.67L-51.1221 92.9851C-51.8777 92.5421 -51.788 91.7762 -50.9126 91.2656L29.1577 44.8684C30.0331 44.3578 31.3574 44.3052 32.1205 44.7482L79.8993 72.4334C80.655 72.8764 80.5652 73.6423 79.6899 74.1529Z" fill="url(#paint9_linear_1_16275)"/>
<path d="M-0.612396 82.4726L17.329 72.0803C18.0323 71.6749 18.0323 71.0141 17.329 70.6086L5.05882 63.4977C4.35553 63.0922 3.21829 63.0922 2.52248 63.4977L-15.4189 73.89C-16.1222 74.2954 -16.1222 74.9562 -15.4189 75.3617L-3.14873 82.4726C-2.44544 82.8781 -1.3082 82.8781 -0.612396 82.4726Z" fill="url(#paint10_linear_1_16275)"/>
<path d="M-15.4264 74.4985L2.515 64.1062C3.21829 63.7008 4.35553 63.7008 5.05133 64.1062L17.3215 71.2171C17.5385 71.3448 17.6806 71.4949 17.7629 71.6526C17.95 71.2997 17.8078 70.8942 17.3215 70.6164L5.05133 63.5055C4.34805 63.1 3.21081 63.1 2.515 63.5055L-15.4264 73.8978C-15.9127 74.1756 -16.0548 74.5811 -15.8678 74.934C-15.7855 74.7763 -15.6433 74.6261 -15.4264 74.4985Z" fill="#9198DB"/>
<path d="M-23.3147 98.7219L43.2211 60.1639C43.6625 59.9086 44.2087 59.9086 44.6576 60.1639L68.3525 73.9201C68.6892 74.1153 68.6892 74.6109 68.3525 74.8062L1.84666 113.342C1.40523 113.597 0.859055 113.597 0.417625 113.342L-23.3072 99.6004C-23.6514 99.4052 -23.6514 98.9096 -23.3072 98.7143L-23.3147 98.7219Z" fill="#ADB1F2"/>
<path d="M-23.312 99.6104L-23.0726 99.7456L43.2236 61.3303C43.6651 61.075 44.2112 61.075 44.6602 61.3303L68.1156 74.9513L68.355 74.8162C68.6917 74.6209 68.6992 74.1253 68.355 73.9301L44.6602 60.1739C44.2187 59.9186 43.6726 59.9186 43.2236 60.1739L-23.312 98.7319C-23.6562 98.9271 -23.6562 99.4227 -23.312 99.6179V99.6104Z" fill="#9198DB"/>
<path d="M62.1528 72.9897L4.19123 106.577L6.48816 107.906L64.4497 74.3188L62.1528 72.9897Z" fill="#6951FF" fill-opacity="0.2"/>
<path d="M56.0476 69.4446L0.951538 101.372L3.24846 102.701L58.3445 70.7736L56.0476 69.4446Z" fill="#6951FF" fill-opacity="0.2"/>
<path d="M52.2245 67.2302L-12.134 104.519L-9.8371 105.848L54.5139 68.5593L52.2245 67.2302Z" fill="#6951FF" fill-opacity="0.2"/>
<path d="M48.3938 65.0146L-15.9648 102.304L-13.6678 103.633L50.6907 66.3437L48.3938 65.0146Z" fill="#6951FF" fill-opacity="0.2"/>
<path d="M44.5704 62.792L-19.7881 100.081L-17.4911 101.418L46.8599 64.1211L44.5704 62.792Z" fill="#6951FF" fill-opacity="0.2"/>
</g>
</g>
<path opacity="0.6" d="M47.8849 65.8334C48.1169 66.9673 49.2017 67.3727 50.2941 66.7345C51.3939 66.0962 52.0897 64.662 51.8578 63.5282C51.6258 62.3944 50.541 61.9889 49.4486 62.6271C48.3488 63.2654 47.653 64.6996 47.8849 65.8334Z" fill="white"/>
<path opacity="0.6" d="M42.0043 69.2423C42.2363 70.3762 43.3211 70.7817 44.4135 70.1434C45.5133 69.5052 46.2091 68.071 45.9772 66.9371C45.7452 65.8033 44.6604 65.3978 43.568 66.0361C42.4682 66.6743 41.7724 68.1085 42.0043 69.2423Z" fill="white"/>
<path opacity="0.6" d="M36.1235 72.6515C36.3554 73.7854 37.4403 74.1908 38.5326 73.5526C39.6324 72.9143 40.3282 71.4801 40.0963 70.3463C39.8644 69.2125 38.7795 68.807 37.6872 69.4453C36.5873 70.0835 35.8915 71.5177 36.1235 72.6515Z" fill="white"/>
<path d="M169.159 152.431C169.114 152.431 169.069 152.416 169.031 152.393L142.606 137.083C142.531 137.038 142.479 136.955 142.479 136.865C142.479 136.775 142.531 136.692 142.606 136.647L169.031 121.337C169.114 121.292 169.204 121.292 169.286 121.337L195.712 136.647C195.786 136.692 195.839 136.775 195.839 136.865C195.839 136.955 195.786 137.038 195.712 137.083L169.286 152.393C169.248 152.416 169.204 152.431 169.159 152.431ZM143.234 136.858L169.151 151.875L195.068 136.858L169.151 121.84L143.234 136.858Z" fill="white"/>
<path d="M169.158 134.936L195.734 119.536V107.702L169.158 123.102V134.936Z" fill="url(#paint11_radial_1_16275)"/>
<path d="M169.159 123.102L195.734 107.701L169.159 92.3083L142.576 107.701L169.159 123.102Z" fill="url(#paint12_linear_1_16275)"/>
<path opacity="0.5" d="M169.158 119.429L189.389 107.701L169.158 95.9792L148.92 107.701L169.158 119.429Z" fill="#0D3A50"/>
<path d="M142.576 119.536L169.159 134.936V123.102L142.576 107.702V119.536Z" fill="url(#paint13_radial_1_16275)"/>
<path d="M169.159 115.917L195.734 100.516V88.6821L169.159 104.083V115.917Z" fill="url(#paint14_radial_1_16275)"/>
<path d="M169.159 104.082L195.734 88.6812L169.159 73.2805L142.576 88.6812L169.159 104.082Z" fill="url(#paint15_linear_1_16275)"/>
<path d="M169.159 103.489L195.225 88.3884L195.734 88.6813L169.159 104.082L142.576 88.6813L143.092 88.3884L169.159 103.489Z" fill="#0D3A50"/>
<path d="M169.159 122.516L195.225 107.408L195.734 107.701L169.159 123.102L142.576 107.701L143.092 107.408L169.159 122.516Z" fill="#0D3A50"/>
<path d="M169.159 79.1746L187.781 89.9648L169.159 100.763L150.529 89.9648L169.159 79.1746Z" fill="white"/>
<path d="M169.159 79.1745L150.529 89.9647L148.314 88.6807L169.159 76.6064L189.995 88.6807L187.781 89.9647L169.159 79.1745Z" fill="#0D3A50"/>
<path d="M142.576 100.516L169.159 115.917V104.083L142.576 88.6821V100.516Z" fill="url(#paint16_radial_1_16275)"/>
<path d="M169.159 96.2355L195.734 80.8348V76.0142L169.159 91.4073V96.2355Z" fill="url(#paint17_radial_1_16275)"/>
<path d="M169.159 91.4071L195.734 76.0064L169.159 60.6133L142.576 76.0139L169.159 91.4071Z" fill="url(#paint18_linear_1_16275)"/>
<path d="M169.159 90.8212L195.225 75.7134L195.734 76.0062L169.159 91.4069L142.576 76.0137L143.092 75.7134L169.159 90.8212Z" fill="#6951FF"/>
<path d="M142.576 80.8348L169.159 96.2355V91.4073L142.576 76.0142V80.8348Z" fill="url(#paint19_radial_1_16275)"/>
</g>
<defs>
<linearGradient id="paint0_linear_1_16275" x1="0.921273" y1="67.7104" x2="84.8597" y2="67.7104" gradientUnits="userSpaceOnUse">
<stop stop-color="#7BDAFF"/>
<stop offset="1" stop-color="#59BDEF"/>
</linearGradient>
<radialGradient id="paint1_radial_1_16275" cx="0" cy="0" r="1" gradientUnits="userSpaceOnUse" gradientTransform="translate(74.4121 119.298) rotate(22.3567) scale(136.846 126.698)">
<stop stop-color="#666666"/>
<stop offset="1"/>
</radialGradient>
<radialGradient id="paint2_radial_1_16275" cx="0" cy="0" r="1" gradientUnits="userSpaceOnUse" gradientTransform="translate(60.6999 102.07) rotate(22.8404) scale(62.8142 59.1394)">
<stop stop-color="#666666"/>
<stop offset="1"/>
</radialGradient>
<radialGradient id="paint3_radial_1_16275" cx="0" cy="0" r="1" gradientUnits="userSpaceOnUse" gradientTransform="translate(67.8876 104.262) rotate(22.8446) scale(59.0808 55.6323)">
<stop stop-color="#666666"/>
<stop offset="1"/>
</radialGradient>
<radialGradient id="paint4_radial_1_16275" cx="0" cy="0" r="1" gradientUnits="userSpaceOnUse" gradientTransform="translate(67.4722 109.324) rotate(22.8452) scale(69.091 65.0595)">
<stop stop-color="#666666"/>
<stop offset="1"/>
</radialGradient>
<radialGradient id="paint5_radial_1_16275" cx="0" cy="0" r="1" gradientUnits="userSpaceOnUse" gradientTransform="translate(71.1606 111.459) rotate(22.8407) scale(69.0888 65.0476)">
<stop stop-color="#666666"/>
<stop offset="1"/>
</radialGradient>
<radialGradient id="paint6_radial_1_16275" cx="0" cy="0" r="1" gradientUnits="userSpaceOnUse" gradientTransform="translate(74.8453 113.592) rotate(22.8433) scale(69.0814 65.0463)">
<stop stop-color="#666666"/>
<stop offset="1"/>
</radialGradient>
<radialGradient id="paint7_radial_1_16275" cx="0" cy="0" r="1" gradientUnits="userSpaceOnUse" gradientTransform="translate(29.2025 117.161) rotate(22.8882) scale(5.34906 5.04431)">
<stop stop-color="#666666"/>
<stop offset="1"/>
</radialGradient>
<radialGradient id="paint8_radial_1_16275" cx="0" cy="0" r="1" gradientUnits="userSpaceOnUse" gradientTransform="translate(36.1705 119.838) rotate(22.8471) scale(8.22482 7.74541)">
<stop stop-color="#666666"/>
<stop offset="1"/>
</radialGradient>
<linearGradient id="paint9_linear_1_16275" x1="-7.25624" y1="82.713" x2="124.79" y2="82.713" gradientUnits="userSpaceOnUse">
<stop stop-color="#C0BFF6"/>
<stop offset="0.29" stop-color="#C4C3F6"/>
<stop offset="0.64" stop-color="#D2D2F9"/>
<stop offset="1" stop-color="#E9E9FD"/>
</linearGradient>
<linearGradient id="paint10_linear_1_16275" x1="-15.9501" y1="72.9889" x2="17.8527" y2="72.9889" gradientUnits="userSpaceOnUse">
<stop stop-color="#C0BFF6"/>
<stop offset="0.29" stop-color="#C4C3F6"/>
<stop offset="0.64" stop-color="#D2D2F9"/>
<stop offset="1" stop-color="#E9E9FD"/>
</linearGradient>
<radialGradient id="paint11_radial_1_16275" cx="0" cy="0" r="1" gradientUnits="userSpaceOnUse" gradientTransform="translate(181.779 123.63) rotate(143.312) scale(35.3775 44.6085)">
<stop stop-color="#666666"/>
<stop offset="1"/>
</radialGradient>
<linearGradient id="paint12_linear_1_16275" x1="189.075" y1="99.1114" x2="151.512" y2="115.195" gradientUnits="userSpaceOnUse">
<stop stop-color="#7BDAFF"/>
<stop offset="1" stop-color="#59BDEF"/>
</linearGradient>
<radialGradient id="paint13_radial_1_16275" cx="0" cy="0" r="1" gradientUnits="userSpaceOnUse" gradientTransform="translate(155.2 123.63) rotate(143.32) scale(35.3839 44.613)">
<stop stop-color="#666666"/>
<stop offset="1"/>
</radialGradient>
<radialGradient id="paint14_radial_1_16275" cx="0" cy="0" r="1" gradientUnits="userSpaceOnUse" gradientTransform="translate(181.78 104.611) rotate(143.312) scale(35.3775 44.6085)">
<stop stop-color="#666666"/>
<stop offset="1"/>
</radialGradient>
<linearGradient id="paint15_linear_1_16275" x1="189.076" y1="80.091" x2="151.512" y2="96.1743" gradientUnits="userSpaceOnUse">
<stop stop-color="#7BDAFF"/>
<stop offset="1" stop-color="#59BDEF"/>
</linearGradient>
<radialGradient id="paint16_radial_1_16275" cx="0" cy="0" r="1" gradientUnits="userSpaceOnUse" gradientTransform="translate(155.2 104.611) rotate(143.32) scale(35.3839 44.613)">
<stop stop-color="#666666"/>
<stop offset="1"/>
</radialGradient>
<radialGradient id="paint17_radial_1_16275" cx="0" cy="0" r="1" gradientUnits="userSpaceOnUse" gradientTransform="translate(181.78 87.8408) rotate(151.049) scale(32.4208 36.1419)">
<stop stop-color="#666666"/>
<stop offset="1"/>
</radialGradient>
<linearGradient id="paint18_linear_1_16275" x1="189.075" y1="67.4163" x2="151.512" y2="83.4996" gradientUnits="userSpaceOnUse">
<stop stop-color="#7BDAFF"/>
<stop offset="1" stop-color="#59BDEF"/>
</linearGradient>
<radialGradient id="paint19_radial_1_16275" cx="0" cy="0" r="1" gradientUnits="userSpaceOnUse" gradientTransform="translate(155.2 87.8408) rotate(151.056) scale(32.4278 36.1442)">
<stop stop-color="#666666"/>
<stop offset="1"/>
</radialGradient>
<clipPath id="clip0_1_16275">
<rect width="219" height="173.53" fill="white" transform="translate(0.915283 0.850342)"/>
</clipPath>
</defs>
</svg>
